<svg width="314" height="314" viewBox="0 0 314 314" fill="none" xmlns="http://www.w3.org/2000/svg">
<g clip-path="url(#clip0_178_32)">
<path d="M174.64 106.811L180.327 112.885C185.372 108.161 190.542 103.428 195.694 98.8167L190.145 92.6172C184.947 97.269 179.73 102.044 174.64 106.811Z" fill="white"/>
<path d="M90.5935 196.513L97.0239 201.793C119.03 174.988 142.797 149.139 167.665 124.964L161.866 118.998C136.775 143.39 112.795 169.469 90.5935 196.513Z" fill="white"/>
<path d="M313.987 64.6248C313.811 59.5444 311.557 54.7567 307.963 51.1615L297.319 40.5182C289.667 32.8668 277.218 32.8668 269.566 40.5182L258.113 51.9714L257.567 51.4257C252.069 45.9272 243.387 45.0258 237.002 49.4648C236.992 49.4717 236.981 49.4794 236.971 49.4863L216.687 63.8274C209.732 68.7448 200.72 70.1836 192.575 67.6735C190.576 67.0502 188.393 68.0098 187.525 69.9811C186.82 71.5842 187.276 73.466 188.513 74.7044L189.005 75.196C181.387 81.8489 173.874 88.6204 166.476 95.5161L153.982 83.0221C146.107 75.1468 134.568 72.5244 123.881 75.6619C121.809 76.27 119.673 76.5786 117.533 76.5786C112.029 76.5786 106.721 74.5643 102.588 70.9081L40.9514 16.3117C40.9486 16.309 40.9458 16.3069 40.9424 16.3041C39.9425 15.4249 38.9011 14.5949 37.9595 13.6533L28.0858 3.77898C26.4612 2.1544 23.8271 2.1544 22.2025 3.77898L1.21819 24.7633C-0.406389 26.3879 -0.406389 29.022 1.21819 30.6466L11.0718 40.5002C12.0168 41.4452 12.8544 42.4881 13.7322 43.4969C13.7385 43.5039 13.744 43.5108 13.7503 43.5177L68.3467 105.153C73.5241 110.998 75.3012 118.96 73.0984 126.454C72.2663 129.295 71.8447 132.219 71.8447 135.147C71.8447 143.272 75.1404 151.227 80.8877 156.975L94.4377 170.525C75.6895 192.337 57.937 215.006 41.2669 238.451C35.2491 246.914 36.2482 258.494 43.5918 265.838L82.9332 305.179C87.072 309.318 92.5149 311.44 97.9989 311.44C102.297 311.44 106.62 310.137 110.358 307.478C133.79 290.815 156.446 273.072 178.247 254.334L223.925 300.012C226.52 302.607 229.945 304.289 233.61 304.507C237.853 304.759 241.884 303.223 244.858 300.248L297.685 247.421C303.4 241.706 303.4 232.44 297.685 226.725L253.254 182.293C260.149 174.895 266.921 167.382 273.574 159.764L274.144 160.334C274.946 161.136 276.011 161.552 277.087 161.552C277.917 161.552 278.752 161.305 279.479 160.796C280.973 159.749 281.553 157.798 281.026 156.051C278.589 147.955 280.043 139.014 284.925 132.109L299.284 111.799C299.292 111.789 299.299 111.778 299.306 111.768C303.745 105.383 302.844 96.701 297.345 91.2026L296.799 90.6569L308.253 79.2037C312.124 75.3319 314.179 70.1281 313.987 64.6248ZM25.1445 12.6043L32.1393 19.599L17.0389 34.7001L10.0435 27.7046L25.1445 12.6043ZM22.5749 40.9314L38.3679 25.1384L97.0746 77.1409C102.733 82.1457 109.999 84.9012 117.535 84.9012C120.47 84.9012 123.397 84.4789 126.232 83.6461C134.151 81.3213 142.694 83.5005 148.528 89.3346L153.994 94.8012H70.293L22.5749 40.9314ZM86.771 151.091C82.5726 146.892 80.1652 141.081 80.1652 135.146C80.1652 133.01 80.4745 130.873 81.0826 128.795C83.68 119.959 82.2246 110.649 77.2406 103.121H158.422C138.012 122.598 118.481 142.993 99.9036 164.223L86.771 151.091ZM291.802 232.608C292.993 233.8 293.649 235.385 293.649 237.072C293.649 238.76 292.993 240.345 291.802 241.537L238.974 294.364C237.782 295.556 236.197 296.213 234.509 296.213C232.822 296.213 231.237 295.556 230.045 294.364L184.547 248.866C206.468 229.685 227.5 209.489 247.55 188.356L291.802 232.608ZM105.536 300.696C100.349 304.385 93.3179 303.796 88.8172 299.295L49.4757 259.954C44.9757 255.454 44.3864 248.422 48.0744 243.236C90.4334 183.668 139.823 129.138 194.905 81.0945L267.677 153.866C219.632 208.95 165.102 258.339 105.536 300.696ZM292.447 107.056L278.13 127.305C274.219 132.837 271.999 139.371 271.611 146.035L202.721 77.1451C209.398 76.7637 215.948 74.5428 221.493 70.6232L241.715 56.3251C244.876 54.2741 249.092 54.7164 251.762 57.3873L291.385 97.011C294.055 99.6805 294.498 103.895 292.447 107.056ZM263.998 57.8554L269.624 52.2293L296.542 79.1475L290.916 84.7736L263.998 57.8554ZM302.422 73.2615L275.509 46.3488C279.921 41.9985 287.048 42.0138 291.436 46.4022L302.369 57.3346C306.757 61.723 306.773 68.8495 302.422 73.2615Z" fill="white"/>
<path d="M277.768 237.232C278.58 238.044 279.645 238.451 280.71 238.451C281.775 238.451 282.839 238.044 283.652 237.232C285.276 235.608 285.276 232.974 283.652 231.349L254.291 201.988C252.666 200.363 250.031 200.363 248.407 201.988C246.783 203.613 246.783 206.247 248.407 207.871L277.768 237.232Z" fill="white"/>
<path d="M51.7979 40.2969C50.113 38.7348 47.4803 38.8346 45.9188 40.5188C44.3566 42.2037 44.4564 44.8358 46.1406 46.398L50.7356 50.6587C51.5365 51.4014 52.5509 51.7682 53.5632 51.7682C54.681 51.7682 55.7952 51.3202 56.6148 50.4369C58.177 48.752 58.0771 46.1199 56.3929 44.5577L51.7979 40.2969Z" fill="white"/>
<path d="M75.0592 73.2116C75.86 73.9542 76.8745 74.321 77.8868 74.321C79.0045 74.321 80.1188 73.8731 80.9383 72.9897C82.5005 71.3048 82.4007 68.6721 80.7164 67.1106L66.2811 53.7257C64.5962 52.1635 61.9634 52.2633 60.4019 53.9475C58.8397 55.6324 58.9396 58.2652 60.6238 59.8267L75.0592 73.2116Z" fill="white"/>
</g>
<defs>
<clipPath id="clip0_178_32">
<rect width="314" height="314" fill="white"/>
</clipPath>
</defs>
</svg>
