<svg width="30" height="30" viewBox="0 0 30 30" fill="none" xmlns="http://www.w3.org/2000/svg">
<path fill-rule="evenodd" clip-rule="evenodd" d="M30 15C30 6.73778 23.2622 0 15 0C6.73778 0 0 6.73778 0 15C0 23.2622 6.73778 30 15 30C23.2622 30 30 23.2622 30 15Z" fill="#FFCC00"/>
<path fill-rule="evenodd" clip-rule="evenodd" d="M11.7575 11.6161C11.7575 10.0889 10.5118 8.84326 8.98463 8.84326C7.45744 8.84326 6.21179 10.0889 6.21179 11.6161C6.21179 13.1433 7.45744 14.3889 8.98463 14.3889C10.5118 14.3889 11.7575 13.1433 11.7575 11.6161Z" fill="#FF3A2F"/>
<path fill-rule="evenodd" clip-rule="evenodd" d="M27.1489 23.7857L18.1601 14.6953L11.9044 21.0225L8.90909 17.8115L2.85388 23.7843L27.1489 23.7857Z" fill="black"/>
</svg>
