<svg width="30" height="30" viewBox="0 0 30 30" fill="none" xmlns="http://www.w3.org/2000/svg">
<mask id="mask0_187_64" style="mask-type:luminance" maskUnits="userSpaceOnUse" x="0" y="0" width="30" height="30">
<path d="M0 15C0 6.716 6.716 0 15 0C23.284 0 30 6.716 30 15C30 23.284 23.284 30 15 30C6.716 30 0 23.284 0 15Z" fill="white"/>
</mask>
<g mask="url(#mask0_187_64)">
<path d="M0 15C0 6.716 6.716 0 15 0C23.284 0 30 6.716 30 15C30 23.284 23.284 30 15 30C6.716 30 0 23.284 0 15Z" fill="#1A4A7F"/>
<path d="M36.6809 1.9229C37.5066 2.48744 38.0882 3.34337 38.3089 4.3189C38.5268 5.28132 38.3897 6.29006 37.9228 7.15938C37.4559 8.02871 36.6906 8.70008 35.7679 9.0499L35.1189 29.5819C34.4109 31.6909 25.8699 32.8479 23.7529 32.1669C23.2509 32.007 22.7858 31.7487 22.3847 31.407C21.9836 31.0653 21.6547 30.6471 21.4171 30.1769C21.1795 29.7066 21.038 29.1937 21.0009 28.6681C20.9638 28.1426 21.0318 27.6149 21.2009 27.1159L23.7559 19.5129L-11.7401 52.0899L-17.3881 45.9349L18.0849 13.3799L10.3529 15.2589C9.8413 15.3847 9.30973 15.4073 8.78927 15.3253C8.26881 15.2434 7.76991 15.0585 7.32171 14.7815C6.87351 14.5045 6.48501 14.141 6.17891 13.7122C5.87281 13.2833 5.65525 12.7978 5.53894 12.2839C5.30195 11.2383 5.48487 10.1415 6.04836 9.2294C6.61184 8.31732 7.51085 7.66288 8.55194 7.4069L29.5759 2.2979C30.0081 1.41679 30.7425 0.720254 31.6451 0.33517C32.5478 -0.0499143 33.5588 -0.097921 34.4939 0.199895C35.4075 0.491152 36.1844 1.10264 36.6809 1.9229Z" fill="url(#paint0_linear_187_64)"/>
</g>
<defs>
<linearGradient id="paint0_linear_187_64" x1="36.7969" y1="1.8969" x2="-14.5531" y2="49.0229" gradientUnits="userSpaceOnUse">
<stop stop-color="#FFB800"/>
<stop offset="1" stop-color="#FFF11D"/>
</linearGradient>
</defs>
</svg>
