<svg width="102" height="39" viewBox="0 0 102 39" fill="none" xmlns="http://www.w3.org/2000/svg">
<path d="M2 14.7999V36.4272H36.4272V2H2V8.62061" stroke="black" stroke-width="4"/>
<path d="M43.3821 21.2793V11.2642H47.5583C48.3082 11.2642 48.9357 11.3701 49.4411 11.582C49.9497 11.7939 50.3311 12.0906 50.5854 12.472C50.8429 12.8535 50.9717 13.2952 50.9717 13.7973C50.9717 14.1787 50.8918 14.5194 50.7321 14.8194C50.5723 15.116 50.3523 15.3622 50.0719 15.5578C49.7915 15.7534 49.4672 15.8903 49.0988 15.9686V16.0664C49.503 16.0859 49.8763 16.1951 50.2186 16.394C50.5642 16.5929 50.8413 16.87 51.05 17.2253C51.2586 17.5774 51.3629 17.9947 51.3629 18.4772C51.3629 19.0152 51.226 19.496 50.9522 19.9199C50.6783 20.3404 50.2822 20.673 49.7638 20.9175C49.2455 21.1587 48.6163 21.2793 47.8762 21.2793H43.3821ZM45.8027 19.3281H47.2992C47.824 19.3281 48.2104 19.2287 48.4581 19.0298C48.7092 18.831 48.8347 18.5539 48.8347 18.1985C48.8347 17.941 48.7744 17.7193 48.6537 17.5334C48.5331 17.3443 48.362 17.1993 48.1403 17.0982C47.9186 16.9939 47.6529 16.9417 47.3432 16.9417H45.8027V19.3281ZM45.8027 15.3817H47.1427C47.4067 15.3817 47.6415 15.3377 47.8469 15.2497C48.0522 15.1617 48.212 15.0345 48.3261 14.8683C48.4435 14.702 48.5021 14.5015 48.5021 14.2668C48.5021 13.931 48.3832 13.6669 48.1452 13.4745C47.9072 13.2822 47.586 13.186 47.1818 13.186H45.8027V15.3817Z" fill="black"/>
<path d="M54.6932 21.2793H52.0916L55.4707 11.2642H58.6934L62.0725 21.2793H59.4709L57.1187 13.7875H57.0405L54.6932 21.2793ZM54.346 17.3378H59.7839V19.1765H54.346V17.3378Z" fill="black"/>
<path d="M63.1508 21.2793V11.2642H67.288C68.0378 11.2642 68.6849 11.3995 69.2294 11.67C69.7771 11.9374 70.1993 12.3221 70.4959 12.8241C70.7926 13.3229 70.941 13.9147 70.941 14.5993C70.941 15.2937 70.7894 15.8838 70.4862 16.3696C70.183 16.8521 69.7526 17.2205 69.1951 17.4747C68.6377 17.7258 67.9775 17.8513 67.2146 17.8513H64.5983V15.9441H66.7647C67.1298 15.9441 67.4347 15.8968 67.6792 15.8023C67.9269 15.7045 68.1144 15.5578 68.2416 15.3622C68.3687 15.1633 68.4323 14.909 68.4323 14.5993C68.4323 14.2896 68.3687 14.0337 68.2416 13.8315C68.1144 13.6261 67.9269 13.4729 67.6792 13.3718C67.4314 13.2675 67.1266 13.2154 66.7647 13.2154H65.5715V21.2793H63.1508ZM68.7893 16.7021L71.2833 21.2793H68.6425L66.1974 16.7021H68.7893Z" fill="black"/>
<path d="M72.2687 11.2642H75.2664L77.8093 17.465H77.9266L80.4696 11.2642H83.4673V21.2793H81.1102V15.1274H81.0271L78.6211 21.2158H77.1149L74.7089 15.0932H74.6257V21.2793H72.2687V11.2642Z" fill="black"/>
<path d="M84.9771 21.2793V11.2642H91.9604V13.23H87.3978V15.2839H91.6034V17.2547H87.3978V19.3135H91.9604V21.2793H84.9771Z" fill="black"/>
<path d="M102 11.2642V21.2793H99.9461L95.9606 15.4991H95.897V21.2793H93.4763V11.2642H95.5596L99.5011 17.0346H99.5842V11.2642H102Z" fill="black"/>
<path d="M43.3821 37.8044V27.7892H47.5192C48.269 27.7892 48.9162 27.9245 49.4606 28.1951C50.0083 28.4624 50.4305 28.8471 50.7272 29.3492C51.0239 29.848 51.1722 30.4397 51.1722 31.1243C51.1722 31.8188 51.0206 32.4089 50.7174 32.8946C50.4142 33.3771 49.9839 33.7455 49.4264 33.9998C48.8689 34.2508 48.2087 34.3764 47.4459 34.3764H44.8296V32.4692H46.996C47.3611 32.4692 47.6659 32.4219 47.9104 32.3273C48.1582 32.2295 48.3457 32.0828 48.4728 31.8872C48.6 31.6884 48.6635 31.4341 48.6635 31.1243C48.6635 30.8146 48.6 30.5587 48.4728 30.3566C48.3457 30.1512 48.1582 29.998 47.9104 29.8969C47.6627 29.7926 47.3578 29.7404 46.996 29.7404H45.8027V37.8044H43.3821ZM49.0205 33.2271L51.5145 37.8044H48.8738L46.4287 33.2271H49.0205Z" fill="black"/>
<path d="M61.9527 32.7968C61.9527 33.8987 61.7408 34.8328 61.317 35.5989C60.8932 36.365 60.3194 36.947 59.5956 37.3447C58.8751 37.7425 58.0666 37.9413 57.1701 37.9413C56.2703 37.9413 55.4601 37.7408 54.7396 37.3398C54.0191 36.9388 53.447 36.3569 53.0232 35.594C52.6026 34.8279 52.3923 33.8955 52.3923 32.7968C52.3923 31.6949 52.6026 30.7608 53.0232 29.9947C53.447 29.2286 54.0191 28.6466 54.7396 28.2489C55.4601 27.8512 56.2703 27.6523 57.1701 27.6523C58.0666 27.6523 58.8751 27.8512 59.5956 28.2489C60.3194 28.6466 60.8932 29.2286 61.317 29.9947C61.7408 30.7608 61.9527 31.6949 61.9527 32.7968ZM59.4783 32.7968C59.4783 32.1448 59.3853 31.5938 59.1995 31.1439C59.017 30.694 58.7529 30.3533 58.4073 30.1219C58.065 29.8904 57.6526 29.7746 57.1701 29.7746C56.6908 29.7746 56.2784 29.8904 55.9328 30.1219C55.5873 30.3533 55.3216 30.694 55.1357 31.1439C54.9532 31.5938 54.8619 32.1448 54.8619 32.7968C54.8619 33.4488 54.9532 33.9998 55.1357 34.4497C55.3216 34.8996 55.5873 35.2403 55.9328 35.4718C56.2784 35.7032 56.6908 35.819 57.1701 35.819C57.6526 35.819 58.065 35.7032 58.4073 35.4718C58.7529 35.2403 59.017 34.8996 59.1995 34.4497C59.3853 33.9998 59.4783 33.4488 59.4783 32.7968Z" fill="black"/>
<path d="M72.8188 32.7968C72.8188 33.8987 72.6069 34.8328 72.1831 35.5989C71.7593 36.365 71.1855 36.947 70.4617 37.3447C69.7412 37.7425 68.9327 37.9413 68.0362 37.9413C67.1364 37.9413 66.3262 37.7408 65.6057 37.3398C64.8852 36.9388 64.3131 36.3569 63.8892 35.594C63.4687 34.8279 63.2584 33.8955 63.2584 32.7968C63.2584 31.6949 63.4687 30.7608 63.8892 29.9947C64.3131 29.2286 64.8852 28.6466 65.6057 28.2489C66.3262 27.8512 67.1364 27.6523 68.0362 27.6523C68.9327 27.6523 69.7412 27.8512 70.4617 28.2489C71.1855 28.6466 71.7593 29.2286 72.1831 29.9947C72.6069 30.7608 72.8188 31.6949 72.8188 32.7968ZM70.3443 32.7968C70.3443 32.1448 70.2514 31.5938 70.0656 31.1439C69.883 30.694 69.619 30.3533 69.2734 30.1219C68.9311 29.8904 68.5187 29.7746 68.0362 29.7746C67.5569 29.7746 67.1445 29.8904 66.7989 30.1219C66.4534 30.3533 66.1877 30.694 66.0018 31.1439C65.8193 31.5938 65.728 32.1448 65.728 32.7968C65.728 33.4488 65.8193 33.9998 66.0018 34.4497C66.1877 34.8996 66.4534 35.2403 66.7989 35.4718C67.1445 35.7032 67.5569 35.819 68.0362 35.819C68.5187 35.819 68.9311 35.7032 69.2734 35.4718C69.619 35.2403 69.883 34.8996 70.0656 34.4497C70.2514 33.9998 70.3443 33.4488 70.3443 32.7968Z" fill="black"/>
<path d="M74.2321 27.7892H77.2298L79.7727 33.99H79.8901L82.433 27.7892H85.4307V37.8044H83.0736V31.6525H82.9905L80.5845 37.7408H79.0783L76.6723 31.6183H76.5892V37.8044H74.2321V27.7892Z" fill="black"/>
</svg>
