<svg width="1251" height="861" viewBox="0 0 1251 861" fill="none" xmlns="http://www.w3.org/2000/svg">
<path fill-rule="evenodd" clip-rule="evenodd" d="M392.765 821.211L394.069 823.82H389.309L388.005 821.211H392.765ZM396.481 821.211L397.003 823.82H394.069L393.547 821.211H396.481ZM503.213 815.993L506.147 818.602H502.431L503.213 815.993ZM379.79 813.384H376.073H375.552H377.899H379.79ZM888.024 810.775H886.72L887.372 807.514L888.024 810.775ZM389.309 804.904L390.352 807.514H392.243H393.286L395.177 813.384L396.481 815.993L400.458 818.602H401.762L399.937 821.211H398.307L392.243 818.602L390.352 821.211H388.527H386.375L381.615 818.602L384.549 815.993H386.114L386.962 813.384H389.309V810.775H386.114L386.962 807.514L389.309 804.904ZM424.256 799.686L422.17 802.295H420.866L422.17 799.686H424.256ZM425.625 804.904H424.582H423.213L425.625 799.686H429.342L429.863 802.295L425.625 804.904ZM871.724 786.641H873.028L873.68 789.25L875.636 786.641H876.94L876.288 789.25H874.332V792.511L871.724 789.25H871.072L870.42 786.641H871.724ZM371.314 786.641L371.835 792.511H369.423V789.25L371.314 786.641ZM375.03 757.941H374.509H372.096H372.618V752.723H374.509L375.552 755.332H374.248L375.03 757.941ZM1137.09 746.852H1139.7H1144.26H1147.52V752.723L1145.56 757.941H1143.61L1142.96 760.55H1139.04L1137.09 755.332L1136.44 752.723L1134.48 746.852H1137.09ZM1231.63 746.852L1233.58 750.114L1236.19 746.852L1238.15 752.723L1234.24 757.941H1232.93V760.55L1227.72 763.159L1227.06 765.768L1225.11 770.986L1221.85 773.595L1219.24 776.204L1217.28 773.595H1211.42L1210.11 770.986L1213.37 765.768L1217.28 763.159L1221.85 760.55L1227.06 755.332L1227.72 752.723L1229.02 750.114L1230.32 746.852H1231.63ZM1239.45 728.589H1241.41H1243.36V733.807H1247.93L1250.54 731.198L1251.84 733.807V736.416L1250.54 739.025H1247.93L1246.62 744.243L1244.02 746.852L1241.41 750.114H1239.45L1241.41 744.243L1240.76 741.634H1236.19V739.025H1238.8L1240.1 733.807L1238.8 728.589L1236.84 725.979L1233.58 723.37L1234.89 720.761L1238.15 723.37L1239.45 725.979V728.589ZM1214.02 665.97V666.623H1212.72L1213.37 665.318L1214.02 665.97ZM825.432 666.623L824.78 667.275L823.476 666.623V665.97L824.128 665.318L824.78 665.97L825.432 666.623ZM1212.07 669.884V671.189L1210.11 669.884L1208.16 668.579L1206.85 667.927L1205.55 666.623H1204.9L1203.59 665.318L1202.94 664.014V663.361H1203.59L1205.55 664.666L1206.2 665.318L1207.5 666.623L1208.81 667.275L1211.42 669.232L1212.07 669.884ZM831.952 664.014H831.3H830.648L831.3 662.057H831.952V662.709V664.014ZM39.8827 658.795H39.4068L39.8827 658.143V658.795ZM1219.89 657.491L1220.54 658.143H1219.24L1219.89 657.491ZM110.905 652.925L111.883 654.229L110.449 653.577L110.905 652.925ZM1217.94 653.577H1217.28H1216.63L1217.28 652.925L1217.94 653.577ZM1251.19 655.534H1250.54H1248.58L1247.93 654.229L1249.23 653.577V652.925L1249.88 652.273H1251.19L1253.14 653.577V654.882V655.534H1251.19ZM1256.4 649.011L1255.1 650.316H1253.8H1253.14L1254.45 649.011H1255.75L1256.4 648.359H1257.71L1256.4 649.011ZM1215.33 648.359L1214.02 649.664V647.707L1215.33 648.359ZM1212.07 643.467V644.315H1212.72L1213.37 645.75L1212.07 646.402L1211.42 645.359V644.837L1210.76 643.467H1212.07ZM37.0205 641.38H36.5445L37.0205 641.119V641.38ZM10.8101 641.119L11.286 641.38H10.8101V641.119ZM32.7303 639.553L34.1582 640.597L32.7303 640.075V639.553ZM31.7719 638.705V639.553H30.344V638.705L31.2959 638.184L31.7719 638.705ZM806.524 643.793L807.176 644.315L806.524 645.75L805.872 647.054L805.22 646.402L804.568 645.359L803.916 645.75L804.568 648.359V649.664L803.916 650.968L803.264 652.273V653.577L802.612 655.534L801.308 660.752L800.656 662.057V663.361L799.352 666.623L798.7 668.579L798.048 671.189L797.396 673.145L796.744 676.407L796.092 678.364L795.44 680.973L793.484 681.625H792.18H790.876L789.572 682.929H788.268L786.964 681.625L784.356 680.973V679.668L783.052 678.364L782.4 673.798V672.493L781.748 670.536V668.579L782.4 667.927V666.623H783.704L784.356 665.318L786.312 662.057L785.66 660.752L786.312 660.1L785.008 658.795V658.143L784.356 656.186V653.577V652.273L785.66 650.316L786.312 649.011V648.359H787.616L788.268 647.054H789.572L790.876 646.402H792.18L792.832 645.75L795.44 644.315V643.467L796.744 643.793L797.396 642.423V641.119H798.048V639.553V638.705H799.352L800.656 638.184L801.308 635.835L800.656 634.726L802.612 633.944L803.916 634.205V635.248L804.568 635.835L805.22 638.966L805.872 641.38V642.423L806.524 643.793ZM782.4 631.856V632.9L781.748 632.378V631.009H782.4V631.856ZM1130.57 639.553L1131.87 641.38L1134.48 641.119L1137.09 643.467L1137.74 649.011L1139.7 653.577L1139.04 655.534L1140.35 657.491L1144.91 661.404L1148.82 662.709V665.318L1150.78 666.623L1152.08 671.189L1156 672.493L1156.65 675.102L1158.6 677.059L1161.86 680.32L1163.82 684.234L1164.47 690.757L1165.78 693.366L1164.47 704.454L1162.52 710.325L1159.26 712.934L1156.65 718.152L1155.34 720.761L1153.39 725.979V728.589V731.198L1151.43 733.807H1147.52H1144.26L1142.3 736.416L1139.04 739.025L1136.44 736.416L1135.78 733.807L1130.57 739.025L1127.31 736.416H1124.05L1120.14 733.807L1117.53 731.198V728.589L1115.57 723.37H1113.62L1112.96 720.761L1112.31 718.152L1109.7 720.761L1110.36 715.543H1111.01L1110.36 712.934L1108.4 715.543L1105.79 718.152L1103.84 720.761H1101.88V718.152L1098.62 712.934L1097.97 710.325L1092.75 707.716L1091.45 710.325L1087.54 707.716H1080.36L1074.5 710.325H1069.93L1062.76 712.934L1060.8 718.152L1055.59 715.543L1048.42 718.152H1045.81H1045.16L1041.9 720.761H1036.68L1033.42 718.152H1031.46V715.543H1034.07V707.716L1031.46 702.498V698.584L1028.86 693.366L1028.2 690.757L1026.9 687.495L1028.2 686.843V683.582L1025.6 678.364L1026.9 675.102V671.841L1029.51 671.189L1030.16 669.232L1032.77 667.927L1037.33 664.666L1039.94 665.318L1052.33 660.752L1054.28 658.795L1054.94 656.839L1056.89 655.534L1056.24 652.273L1058.2 650.316H1061.46L1064.06 646.402L1067.98 641.38L1071.89 641.119L1073.19 638.966L1076.45 642.423L1082.32 643.793L1081.67 641.38L1082.97 638.705L1084.28 637.662L1084.93 635.248L1087.54 634.205H1090.8L1092.75 633.422L1093.4 631.596L1100.58 632.9L1106.44 633.944V637.14L1103.84 638.705V640.597L1102.53 643.467L1107.75 647.054L1110.36 648.359L1112.31 650.316H1114.92L1116.22 652.273L1118.18 653.577L1121.44 652.925L1123.4 647.707L1124.05 643.793L1123.4 639.553L1124.7 637.662L1124.05 634.726L1124.7 633.422L1126 629.443H1127.96L1128.61 632.378L1129.92 632.9L1130.57 636.357V639.553ZM1195.77 628.66H1194.46L1193.16 627.617V626.769L1194.46 627.617H1195.77V628.66ZM1051.02 626.769H1049.07L1047.11 625.203H1045.81L1046.46 623.899L1048.42 623.377L1051.68 625.725L1051.02 626.769ZM1186.64 623.377L1187.94 623.899H1189.25L1190.55 624.421L1191.2 625.203L1190.55 625.725L1189.25 625.203H1187.29L1186.64 624.421V623.377ZM1064.06 626.769L1062.11 627.095H1060.8L1061.46 624.681L1062.76 623.899L1064.72 623.377L1066.02 622.268L1066.67 620.964L1069.28 620.442H1071.89L1071.24 622.268L1067.32 623.377L1066.67 623.899L1064.06 626.769ZM1255.1 620.442V620.964L1254.45 620.442H1255.1ZM1192.51 622.855V623.899L1191.2 622.855L1190.55 620.442V619.92L1191.2 620.964V622.007L1192.51 622.855ZM1054.28 620.964L1052.33 622.268L1048.42 621.485L1049.72 619.92H1052.33L1054.28 620.964ZM1036.68 621.485L1034.72 622.007L1035.38 620.442L1036.03 619.659L1037.33 620.442L1036.68 621.485ZM1045.81 620.964L1038.64 622.855L1037.98 620.964L1039.29 619.92L1041.24 621.485L1042.55 619.659L1045.81 619.92V620.964ZM1066.67 619.92L1064.06 620.442L1064.72 619.659L1066.67 619.92ZM1033.42 620.442L1032.12 621.485L1030.16 620.442L1032.12 619.137L1033.42 620.442ZM1180.77 620.442L1180.12 620.964L1179.47 619.92L1178.16 619.659L1178.82 619.137H1180.12L1180.77 620.442ZM1187.29 619.92V620.964L1184.68 619.137L1183.38 618.028L1184.03 617.506L1185.34 618.615L1185.99 619.137L1187.29 619.92ZM1112.96 619.92L1110.36 620.442L1111.66 617.506L1114.92 616.724V617.506V619.137L1112.96 619.92ZM883.46 616.724V617.246L882.808 616.724H883.46ZM1178.16 615.68L1179.47 617.246L1177.51 616.202L1176.86 615.158L1175.56 614.376L1176.21 613.789L1178.16 615.158V615.68ZM1000.17 611.44L1002.78 612.484L1004.73 611.962L1006.04 612.745H1007.99L1009.3 614.897L1015.16 615.158L1017.12 613.267L1018.42 614.376H1019.08L1021.68 615.158H1022.99L1024.29 617.506L1025.6 618.028L1028.2 617.506L1029.51 618.615V620.964H1026.9L1025.6 619.92L1022.99 620.442L1020.38 619.92L1016.47 619.659L1014.51 618.615L1011.9 617.506L1008.64 618.028L1005.38 617.246L1002.12 616.724V615.68L1000.17 614.897L999.516 613.267L1000.17 611.44ZM1173.6 613.267L1172.95 614.897L1171.64 614.376V612.745L1169.69 611.962L1170.99 610.397L1172.3 611.962L1173.6 613.267ZM1159.91 609.027V610.397L1155.34 612.745H1152.08L1147.52 610.919V610.136L1150.78 610.397L1154.69 610.136H1156.65L1157.3 608.505L1159.26 607.983L1158.6 605.57L1161.21 606.157L1161.86 607.722L1159.91 609.027ZM825.432 607.722H824.128L823.476 606.157L824.128 605.57L825.432 607.722ZM1164.47 605.57L1162.52 606.679L1161.86 604.265L1164.47 605.57ZM1073.84 603.222L1072.54 604.265L1069.93 602.961V601.917L1072.54 601.33L1073.84 602.439V603.222ZM1082.32 600.547L1086.23 601.917L1086.88 603.222L1086.23 604.265L1083.62 602.961H1080.36H1078.41L1077.1 600.808L1081.02 601.33L1082.32 600.547ZM1007.99 600.808L1007.34 602.439H1006.04V600.026L1007.99 600.808ZM1002.78 600.547L1002.12 601.33L999.516 600.547L998.864 598.46H997.56V596.569H1000.17L1000.82 598.982L1002.78 600.547ZM884.112 596.569H883.46L884.112 596.047V596.569ZM975.392 594.22L976.696 597.09L975.392 596.569L974.74 595.264L975.392 594.22ZM887.372 593.438L886.72 593.699V593.438H887.372ZM317.002 592.851L316.481 593.699L315.959 593.438L316.481 592.851H317.002ZM1094.71 592.851L1095.36 593.438H1097.32L1098.62 595.786L1097.97 596.569L1098.62 598.982L1099.92 600.026L1100.58 601.33L1101.23 602.961H1102.53L1105.79 600.026V598.46L1107.75 598.982L1108.4 597.09L1110.36 596.047L1113.62 597.09L1117.53 598.982H1118.83L1122.09 600.026L1129.26 602.961H1130.57L1132.52 604.265H1134.48L1135.78 606.157L1138.39 607.722V610.136L1141 610.397L1142.96 611.962H1144.26L1146.22 614.376H1142.96L1144.26 617.246L1146.22 619.137L1146.87 620.964L1153.39 626.247V627.617L1150.13 626.769H1146.22L1144.91 625.725L1144.26 624.421L1140.35 620.442L1139.7 619.137L1134.48 617.506L1133.18 618.028L1129.92 620.964L1130.57 622.268L1127.31 623.899L1126 622.855L1123.4 623.377L1122.09 622.855L1118.18 619.659H1114.92V618.615V617.246L1114.27 616.202L1114.92 614.897L1112.96 612.745L1111.66 610.136L1109.05 608.505L1107.75 607.983L1103.84 606.679H1101.88L1098.62 604.787L1096.01 603.222L1094.71 605.309H1093.4L1094.06 603.222L1092.75 601.917L1093.4 600.808L1094.71 599.504L1090.8 598.199L1090.14 597.09L1089.49 596.047L1086.88 595.786L1088.19 593.699L1090.14 593.438L1092.1 592.329L1094.71 592.851ZM885.416 591.807H884.764V591.285L885.416 591.807ZM460.051 591.285L462.724 591.807L462.463 593.699L460.833 596.047L455.291 597.09L454.248 596.047V593.438L455.291 591.285L457.899 591.807L460.051 591.285ZM314.59 594.22L312.504 594.742V593.699L313.547 592.851L313.025 591.807L312.504 591.024H312.243L313.025 590.502L313.547 591.024V591.807L314.59 592.329L314.851 593.438L314.59 594.22ZM17.0171 589.981V590.502H16.5411L17.0171 589.981ZM654.608 589.981L653.956 591.024L653.304 590.502L653.956 589.459L654.608 589.981ZM888.676 588.611L888.024 588.872L887.372 588.611L888.024 588.089L888.676 588.611ZM992.996 586.263L992.344 586.524H991.692V586.263H992.344H992.996ZM1066.02 587.567L1064.06 589.459L1061.46 589.981L1059.5 589.459L1054.94 588.872L1052.33 589.459L1051.02 588.872L1049.07 590.502L1048.42 591.807L1049.72 594.22L1051.02 595.786L1052.33 596.047L1054.28 594.22H1056.24V593.699H1058.85L1057.54 596.047L1055.59 596.569L1054.28 598.46L1055.59 598.982L1057.54 601.917L1056.89 603.744L1058.2 604.265V606.157L1056.24 606.679L1055.59 607.983L1054.28 607.201V605.309L1052.33 603.222V600.547L1051.02 600.026L1049.72 601.33L1050.37 602.439V607.201L1049.72 610.136L1048.42 610.919L1046.46 610.136L1047.11 606.679V604.787L1046.46 602.961L1045.16 603.222V600.547L1046.46 597.677V595.786L1047.76 593.699L1048.42 588.611L1051.02 588.089L1051.68 586.263L1058.2 587.567L1062.11 588.089L1064.06 587.567L1066.02 585.219L1066.67 585.741L1066.02 587.567ZM1077.1 585.741L1075.15 587.567L1077.1 586.524V588.611L1079.06 589.981L1075.15 588.872L1074.5 586.524L1075.15 584.632L1077.1 585.741ZM83.7167 584.632V585.219L82.8039 584.632H83.2603H83.7167ZM884.764 583.849L884.112 584.11V583.849H884.764ZM885.416 580.979V581.501H884.764V580.979H885.416ZM887.372 578.044V578.566H886.72V578.044H887.372ZM662.432 578.566L661.128 579.87L660.476 579.349L661.128 578.044H662.432V578.566ZM964.96 572.239L967.568 572.761H970.828L972.132 573.804L973.436 576.739L976.696 578.566L979.956 581.501L980.608 582.806H981.912L983.868 584.632L986.476 586.263V587.567L991.04 588.872L991.692 589.981L991.04 593.438L991.692 594.22L994.3 594.742L994.952 597.677L996.256 598.982L998.864 599.504L1000.17 602.439V604.265L998.864 611.44L997.56 610.136L994.952 611.44L991.692 607.983H991.04L987.128 604.787V603.744L984.52 602.439L981.912 598.46V597.677L980.608 593.699L978.652 591.807L978 591.024L976.044 589.981L974.74 585.741L974.088 584.11L970.828 582.806V580.979L968.22 578.044H967.568L963.656 574.587L962.352 571.913L963.656 571.391L964.96 572.239ZM1045.81 573.282L1042.55 574.326L1043.85 575.631L1040.59 576.739L1041.24 578.566H1039.29L1040.59 581.501L1041.9 582.806L1041.24 584.632L1043.85 586.263L1045.16 588.089H1042.55L1041.24 588.611L1039.94 590.502V592.851L1038.64 595.264L1036.68 596.047V600.026L1034.72 602.961L1034.07 603.744L1030.16 605.309L1029.51 603.222L1026.9 602.961L1024.94 601.33L1022.99 602.961H1020.38V601.33H1015.16L1014.51 598.982V595.786L1011.9 593.699L1010.6 591.807L1009.95 588.089L1010.6 585.741L1013.21 583.849L1013.86 585.219L1017.77 585.741L1018.42 582.284L1019.73 580.979L1024.29 579.87L1027.55 576.152L1028.2 575.109H1028.86H1029.51V574.587L1030.16 574.326L1031.46 573.804H1032.12L1033.42 572.761L1035.38 569.564L1036.68 568.521L1039.29 567.934L1040.59 568.521L1041.24 570.347L1043.85 570.869L1045.81 573.282ZM1182.08 566.629L1181.42 567.151V566.629H1182.08ZM886.72 567.151L886.068 567.934V567.412V566.629L886.72 567.151ZM1099.92 564.803L1099.27 565.064V564.281L1099.92 564.803ZM914.104 569.564L911.496 570.347L910.192 569.825L908.888 567.151V562.389L910.192 557.889L910.844 557.106L912.8 558.411L914.104 561.346L916.06 565.064L915.408 567.412L914.104 569.564ZM1070.58 559.454L1071.24 563.172L1071.89 565.586L1069.93 567.151L1067.98 565.586V567.151L1068.63 569.825L1067.98 571.391L1066.67 570.347L1064.06 569.564L1062.76 568.521V566.629L1063.41 565.064L1062.76 564.281L1060.8 563.694V565.064L1059.5 563.694L1058.2 564.803V563.694L1056.24 566.629L1055.59 566.107L1056.89 562.65L1059.5 562.389L1060.8 560.302L1063.41 562.389L1065.37 559.454L1066.67 560.041L1067.98 559.454V557.106L1070.58 559.454ZM1064.72 555.541L1064.06 557.628L1062.11 557.106L1063.41 555.541H1064.72ZM1062.76 554.693L1060.8 555.541L1062.11 553.127L1062.76 554.693ZM1047.76 554.171L1045.81 555.541H1045.16L1047.11 553.127L1047.76 554.171ZM418.975 553.127L418.453 553.649V554.171V554.693H418.975V555.541H418.453H417.932H417.41H417.149H416.106L416.628 555.214H417.149V553.649H416.628V553.127H417.149H417.41H417.932H418.453V552.866H418.975V553.127ZM1060.15 558.411L1059.5 559.454L1058.2 557.889L1057.54 556.062L1058.85 555.541L1059.5 552.866L1060.8 553.127L1059.5 556.062L1060.15 558.411ZM404.175 552.866H403.653V552.344L404.175 552.866ZM408.934 552.344L408.413 552.866H407.891H407.63H407.043V552.344H407.63H407.891H408.413V551.823H408.934V552.344ZM419.497 551.823V551.301H419.757H420.344L419.757 551.823H419.497ZM1066.67 553.127V554.171L1065.37 553.649L1064.06 551.823L1066.02 550.714L1066.67 553.127ZM1058.2 553.127L1055.59 554.171V549.931L1059.5 551.823L1058.2 553.127ZM416.106 548.887V548.366L416.628 548.105V548.366V548.887H416.106ZM393.547 548.105V548.366V548.887L393.286 548.366V548.105H393.547ZM390.939 548.105H390.352L390.939 547.583V548.105ZM1067.98 550.453L1068.63 552.344L1067.32 551.823L1066.67 549.931L1064.06 548.105L1063.41 547.061H1066.67L1067.98 548.105V550.453ZM388.005 547.061V547.583L386.962 547.061L387.483 546.474L388.005 547.061ZM818.26 546.474H819.564L820.216 547.061L819.564 547.583L818.26 548.105L816.956 547.061V546.474H818.26ZM424.256 545.169H423.735L423.213 544.648V544.126H423.735V544.648H424.256V545.169ZM418.453 544.648H417.932V544.126V543.604L418.453 544.126V544.648ZM1135.13 543.604V544.648L1134.48 543.604H1135.13ZM1054.28 546.474L1052.33 547.583L1050.37 543.343H1052.33L1054.28 544.648V546.474ZM418.975 542.821H418.453V542.234V541.712L418.975 541.191V541.712V542.234V542.821ZM419.497 539.886V540.408L418.975 539.886H418.453L417.932 539.364V538.842V538.516H418.453V538.842H418.975V539.364L419.497 539.886ZM1138.39 537.473V536.951H1139.04L1138.39 537.473ZM549.571 537.994L549.049 538.516L548.267 537.994L548.527 536.951L549.571 537.994ZM417.932 537.473H417.41V536.951L417.149 536.429V536.168H417.41H417.932V536.429V536.951V537.473ZM417.932 535.124H417.41V534.603H417.932V535.124ZM417.932 533.233V533.755H417.149H416.628L417.149 534.016H416.628V534.603L416.106 534.016V533.755V533.233H416.628V533.755H417.149V533.233V532.711H417.41V533.233H417.932ZM416.628 530.885H416.106H415.519V530.363H416.106H416.628V530.885ZM543.768 530.885L542.985 531.406V530.363H543.768V530.885ZM413.172 529.776V530.363L412.651 529.776H412.39V529.254H412.651V529.776H413.172ZM416.106 528.471V528.993H415.519V528.471H416.106ZM405.479 527.949H406V528.471H405.479H405.218V527.949H405.479ZM403.066 526.906H402.805L403.066 526.645H403.653V526.906H403.066ZM412.39 526.906H411.868V526.645H412.39V526.906ZM411.281 526.645L411.868 526.123V526.645H411.281ZM398.046 525.536H398.307H398.828H399.415H399.937H400.719H401.241H401.762H402.284L402.805 526.123V526.645H402.284L401.762 526.906V527.428H400.719H400.458H399.937H399.415H398.828H398.307H398.046H397.524H397.003V526.906L397.524 526.645L397.003 526.123L397.524 525.536V525.014L398.046 525.536ZM365.446 526.645L364.924 527.949L364.142 527.428H363.62H362.577L362.316 528.471L361.795 527.949H360.686L359.382 526.645H358.339L358.861 525.536L360.165 525.014L363.62 526.123L365.446 526.645ZM1054.94 541.191L1056.24 541.712L1057.54 540.408L1058.85 540.93L1059.5 542.821L1060.8 541.712L1062.11 544.648L1063.41 545.169L1062.76 547.061L1060.8 545.169L1060.15 543.604L1058.2 541.712L1056.24 542.821L1054.94 541.712L1053.63 543.343L1051.02 541.712V540.93L1052.33 539.886L1049.07 538.842L1048.42 535.124L1050.37 533.755V532.189V530.885V528.471L1051.02 525.536L1052.98 525.014L1055.59 526.123L1056.89 529.254L1058.2 530.363L1056.89 532.189L1053.63 536.951L1054.94 541.191ZM348.82 522.144L348.233 522.666L347.972 522.144H348.82ZM377.899 519.731L381.355 520.774L384.028 520.253L386.375 521.296H388.005L388.527 522.666L390.352 522.144L393.286 524.492L392.765 526.123L388.005 525.536L385.593 526.645H383.767L382.137 528.471L381.355 526.906L380.311 526.645H377.377L375.552 526.123L373.661 526.645L372.096 526.123L372.618 524.492L374.509 525.536H377.899L378.486 524.231L377.377 523.71L377.899 521.883L375.552 521.296L377.899 519.731ZM1015.82 524.231L1013.21 526.645L1009.95 525.536L1009.3 522.666L1011.9 520.253L1016.47 519.47L1017.77 521.296L1016.47 522.144L1015.82 524.231ZM90.4323 522.666L88.9979 523.71L88.5415 523.188V522.144L88.0199 520.774L88.5415 519.731V518.948L90.8887 519.731L91.4103 521.296L92.3231 521.883L91.4103 522.144L90.4323 522.666ZM87.5635 517.317H86.5855L86.1291 516.535H87.1071L88.0199 517.056L87.5635 517.317ZM376.856 515.491L376.595 516.013L376.073 516.535H375.552H375.03H374.509V516.013V515.491H375.03H375.552H376.073H376.595V514.969H376.856V515.491ZM81.3695 513.665L81.8259 514.969H80.9131L79.9351 514.186L81.3695 513.665ZM380.833 512.556V513.078L380.311 512.556H380.833ZM76.6099 511.773L76.0883 512.556H75.1755V511.773L76.0883 511.251L76.6099 511.773ZM377.377 510.729L377.899 511.251H377.377L376.856 510.729V511.251H376.595V510.729H376.856H377.377ZM374.248 509.947V510.208V510.729L373.661 511.251H373.139L372.618 511.773V511.251L373.139 510.729H373.661L374.248 510.208H373.661L373.139 509.947H373.661H374.248ZM373.139 509.947H372.618L372.096 509.425H372.618L373.139 509.947ZM352.732 508.838L355.144 510.729H356.97L361.208 513.078L362.316 514.186L367.337 515.491L368.38 517.056L369.749 517.317L371.835 518.426L372.096 519.47L369.749 520.253L365.446 519.731L363.099 520.253L360.686 519.731L362.577 517.904L361.795 517.056L359.382 517.317L357.817 516.013L356.97 513.665L355.405 514.186L352.732 513.665L350.645 512.295L346.407 511.773L345.886 509.947H343.474L340.866 511.773H338.714L336.888 513.078L337.41 511.251L338.453 509.947L341.126 508.316L344.582 507.794L350.385 508.316L352.732 508.838ZM370.792 509.425H370.271V508.838V508.316H369.749V507.794V507.533H369.423V507.011H368.901V505.968L369.749 507.533V507.794V508.316H370.271L370.792 509.425ZM367.337 506.49L367.076 507.011V506.49H366.554V505.968H367.076L367.337 506.49ZM371.835 504.598V504.076L372.096 504.598H371.835ZM360.165 504.076V504.598H360.686V504.076H361.208V504.598V505.185V505.446L360.686 505.968H360.165V505.446V505.185L359.904 504.598L360.165 504.076L360.686 503.554V504.076H360.165ZM368.901 504.076H368.38V503.554L367.858 503.033V502.772H367.337V502.25H367.858V502.772L368.38 503.033V503.554L368.901 504.076ZM361.795 500.619L361.208 501.206V500.619H361.795ZM360.165 502.25V502.772L360.686 503.033H360.165H359.904L359.382 503.554V503.033H358.861L358.339 502.772H357.817L358.339 502.25V502.772H358.861V502.25H358.339V501.728H358.861V501.206V500.619V500.358H359.382H359.904V501.206V501.728H360.165V502.25ZM1054.28 507.533L1052.33 511.251L1050.37 510.208L1049.07 507.794V506.49L1052.33 500.619L1054.28 499.836L1055.59 501.728L1054.28 507.533ZM364.663 499.315L364.924 499.836H365.446L366.033 500.358V500.619V501.728V502.25H365.446V501.728H366.033V500.619V500.358H365.446V499.836H364.924H364.663V499.315ZM807.828 497.488H806.524V496.379H807.176L807.828 497.488ZM359.904 494.031V494.553H359.382H358.861H358.339L357.557 495.075H356.97H356.448L355.927 494.553H356.448L356.97 495.075L357.557 494.553L357.817 494.031L358.339 494.553H358.861H359.382L359.904 494.031ZM360.686 493.509H361.208L361.795 494.031L362.316 494.553L362.577 495.075L363.099 495.597L362.577 495.858L362.316 496.379V496.967V497.488L361.795 496.967H362.316V496.379V495.597L362.577 495.075H362.316L361.795 494.553L361.208 494.031V493.509H360.686ZM568.674 490.313V490.835L567.631 490.313H568.153H568.674ZM577.15 490.313H576.889L576.368 489.792H575.846L576.368 489.27V488.748H577.15L577.672 489.27V489.792L577.15 490.313ZM571.608 489.27H571.021L570.5 488.748H571.021V488.487L571.608 488.748V489.27ZM574.477 487.378V487.9L573.955 488.748L573.434 489.27H572.912L572.391 488.487V487.9H572.912H573.955V487.378L574.477 486.856H574.738V487.378H574.477ZM581.649 488.748L581.127 489.27V488.748L581.649 488.487V487.9L581.91 487.378V486.856L582.431 486.334H582.953V486.856V487.9L582.431 488.487L581.649 488.748ZM569.196 487.378L568.674 486.334V486.074H569.196L569.717 486.334L569.196 486.856V487.378ZM240.653 485.03L240.132 486.334L239.219 486.074L239.675 484.508L240.653 485.03ZM583.475 486.074H582.953V485.552L583.475 485.03H583.996L584.322 484.508V485.552H583.996L583.475 486.074ZM405.479 472.311V471.789H406L405.479 472.311ZM571.021 469.897H571.608H572.391L572.912 470.158L572.391 470.68H572.13L571.608 470.158H571.021V469.897ZM1090.8 469.375L1089.49 471.202L1088.19 476.029L1086.88 477.072L1086.23 474.92L1084.28 473.093L1085.58 471.789V469.897L1082.32 470.68V468.332L1086.23 465.136L1087.54 466.44L1089.49 466.962L1090.8 469.375ZM1097.97 463.048L1100.58 465.396L1094.71 467.81L1092.75 470.158V467.81L1093.4 464.614L1096.01 465.136L1097.97 463.048ZM747.192 462.2H745.236L743.28 460.635L745.888 459.33L749.148 458.809L747.844 461.679L747.192 462.2ZM720.46 460.374L717.2 460.635L715.896 459.852H713.288V458.221H715.244V459.33H720.46V460.374ZM543.768 452.155V452.677L543.507 452.155H543.768ZM541.355 448.437H542.464H542.985H543.507V448.698H542.464H541.355L541.095 448.437H541.355ZM685.252 446.35L683.948 450.851L684.6 452.155L683.948 453.46L681.34 452.677L674.168 448.698L675.472 446.872H676.776L678.732 447.916L683.948 447.394L685.252 446.35ZM533.401 446.089H532.879H532.358H531.836V445.502H532.358H532.879L533.401 446.089ZM531.575 444.98V445.502H531.054L530.532 444.98H531.054H531.575ZM636.482 444.459L635.961 444.98V444.459H636.482ZM534.249 445.502L532.879 444.98L532.358 444.459L534.249 445.502ZM536.596 444.98L535.813 444.459L536.335 443.937L536.596 444.459H537.117L536.596 444.98ZM635.961 443.937L635.439 443.676V443.154H635.961L636.482 442.632L636.743 443.154L635.961 443.937ZM522.839 441.523H522.317V441.262V440.741L522.839 441.262V441.523ZM642.024 439.697H642.546H643.133V440.219V440.741H642.546V441.523L641.503 442.11V441.523H640.72V440.741H640.199H639.155L640.72 439.175H641.503L642.024 439.697ZM646.001 438.914V439.175V439.697L644.958 439.175H644.437V438.914V438.392H645.48L646.001 438.914ZM1121.44 457.439L1120.14 459.852L1117.53 460.635L1116.88 459.33L1115.57 460.374H1113.62L1112.31 462.722L1109.05 462.2L1105.79 464.614L1103.84 467.549L1101.23 465.396V464.092L1102.53 462.722L1099.92 461.679L1097.32 463.048L1094.71 463.57L1091.45 464.092L1088.19 465.136L1086.88 463.57L1089.49 462.2L1093.4 458.809H1095.36L1100.58 457.961L1102.53 458.809L1107.1 453.46L1112.96 451.112L1114.92 448.698L1116.22 446.872L1118.83 440.741L1117.53 435.979L1120.79 433.631L1123.4 435.457L1124.7 437.284L1125.35 440.741L1124.05 443.154L1123.4 446.089L1122.09 446.35V452.155L1120.79 453.982V455.873L1121.44 457.439ZM664.388 442.632L661.128 443.676L659.824 442.11L660.476 437.284L659.172 435.457L661.78 434.414L663.084 433.044L664.388 433.631L665.04 436.501V438.914L664.388 442.632ZM664.388 428.804L663.084 432.522L661.78 431.739L661.128 429.652V427.76L663.084 425.934L663.736 426.456L664.388 428.804ZM1137.09 423.521L1135.78 424.825L1131.87 425.412L1130.57 428.282L1129.92 429.652L1124.7 426.978H1123.4L1122.09 428.282L1120.14 426.978L1119.48 428.282L1122.09 429.652L1118.18 431.739L1118.83 429.652L1117.53 428.282V426.456L1121.44 424.042H1122.74L1123.4 421.694L1124.05 419.803L1124.7 416.346L1124.05 413.997L1125.35 412.693L1129.26 417.454L1131.87 419.803L1133.83 420.064H1135.13L1137.09 423.521ZM420.344 412.106H417.41L417.149 410.279L420.344 408.192V412.106ZM435.145 404.996V405.518V405.779V406.301H434.623V405.779H435.145V405.518L434.623 404.996V404.474H435.145V404.996ZM622.464 392.538H622.203V392.016L622.464 392.538ZM415.519 393.059L414.737 394.364L409.977 392.538V390.124L415.519 393.059ZM199.642 393.581L201.077 398.343L194.361 394.886L190.58 392.538L184.842 386.667L185.298 384.319L194.361 387.776L196.774 392.016L199.642 393.581ZM435.666 388.82L437.035 392.016H440.947L444.664 393.059L443.621 396.256V401.017L447.598 403.365L446.033 406.822L439.904 403.104L438.861 405.518L436.449 401.539H429.081L425.104 402.061V400.756L426.669 396.777L431.428 385.884L433.319 382.427L435.666 381.123L437.035 383.536L435.666 388.82ZM1233.58 372.382V373.948L1232.28 372.382H1233.58ZM1129.26 406.301L1124.7 407.344L1125.35 404.996V402.061L1126 400.234L1124.7 395.995L1126 392.016L1125.35 386.406L1126.66 383.014L1124.05 378.775L1124.7 372.382V370.556L1128.61 367.621L1129.92 371.6L1129.26 378.775L1130.57 381.123L1131.87 387.776L1133.18 392.016L1130.57 392.538L1129.26 393.842L1127.31 401.017L1129.26 403.887V406.301ZM52.2773 368.664L48.939 369.708L49.415 366.838L52.2773 368.664ZM171.932 370.556L170.041 371.6L168.151 369.186L168.607 365.729L172.91 366.838L171.932 370.556ZM615.814 365.207L614.51 366.316L615.292 364.425L615.814 365.207ZM62.2659 362.598L59.4297 362.859L58.4778 360.968L61.8095 360.446L62.2659 362.598ZM605.773 358.619V360.185L608.12 359.141H609.75L611.576 362.598V364.946L609.163 366.316L610.272 372.904L609.163 375.839L604.925 378.188L600.687 380.601L598.601 381.123L594.885 379.296L597.819 374.796L598.601 371.6L595.928 369.969L596.71 369.186L596.189 364.946L601.013 365.207V362.076L602.057 360.185L605.773 358.619ZM668.3 357.837V360.185H666.344L665.692 357.25L666.996 356.728L668.3 357.837ZM175.323 358.098L173.888 359.141L172.454 358.619L173.367 355.423L175.323 358.098ZM673.516 357.837L672.212 360.446L670.908 359.663H670.256L669.604 356.728L671.56 355.684L674.168 353.858L674.82 354.38V356.206L673.516 357.837ZM171.019 358.098L169.585 360.185L167.173 359.141L167.694 356.728V352.488L171.019 358.098ZM611.576 351.444L609.163 353.01L609.75 350.662L610.272 350.923L611.576 351.444ZM168.151 350.662L165.738 351.966L165.282 347.726L167.694 348.248L168.151 350.662ZM162.413 350.14L160.979 350.923L159.544 346.683H161.5L162.413 350.14ZM609.75 346.161L610.533 347.726L609.163 347.205L607.338 345.378L608.12 344.269H609.75V346.161ZM661.128 348.509L659.824 350.14V349.618L661.128 347.205H663.736L665.692 344.269H666.996L667.648 346.683L665.692 347.726L661.128 348.509ZM696.336 346.683L694.38 347.205L693.728 344.791L695.684 342.443H697.64L696.336 343.748V346.683ZM99.9515 342.443L100.93 345.378L94.2139 349.031L92.3231 346.161L94.2139 343.748L96.1699 344.269L99.9515 342.443ZM164.826 344.791L162.935 345.9L161.957 341.139L163.848 340.551L164.826 342.965V344.791ZM160.522 343.487L157.654 344.269L156.219 340.03H158.11L161.5 341.399L160.522 343.487ZM608.642 341.921L606.816 343.487V340.03L609.75 338.986L608.642 341.921ZM708.724 340.551L707.42 342.443L708.072 341.139L707.42 338.725L710.68 337.682L710.028 340.03L708.724 340.551ZM620.573 337.682L620.052 339.508L617.379 341.921L617.639 343.487L622.464 343.748H624.551L624.811 345.378L623.507 349.031L621.095 351.966L622.203 354.38L624.029 355.423L625.333 357.25L625.855 360.185L626.963 362.859L629.31 363.903L631.723 368.664L631.983 372.121L635.961 372.904L636.743 373.948L637.265 375.839L636.743 377.666L634.331 380.601V381.906L635.439 383.536L634.331 384.319L631.983 385.363L627.745 384.841L624.551 385.884L621.617 385.363L618.748 386.406L618.226 388.298L616.857 387.254L614.51 387.776L612.88 389.081L612.097 388.298L615.292 384.841L616.335 383.014L618.748 381.645L617.639 380.601L616.335 381.123L615.814 379.557L613.401 380.079L612.88 378.775L616.335 376.883L616.857 375.318L616.335 371.6L620.573 369.969V368.664L618.226 363.381L619.269 360.968L615.814 362.598L612.88 360.446L615.031 357.837L613.401 355.423H612.619L611.576 353.01L612.619 350.923H610.533L609.75 349.618L610.533 349.031L611.576 346.161L610.533 345.378L611.054 342.965L612.88 341.921V340.03L613.401 337.682L615.031 338.203L620.573 337.682ZM711.332 336.312L710.028 337.16V334.746L711.332 336.312ZM701.552 326.267L700.9 327.571L699.596 325.745L701.552 326.267ZM54.6636 328.68L51.3253 329.202L48.4631 326.789L52.7532 325.223L54.6636 328.68ZM607.859 313.808V314.33L606.816 312.765V312.504L607.859 313.808ZM355.144 311.982L354.101 315.113H351.689L352.732 310.873L355.144 311.982ZM343.213 311.46L339.757 312.765L340.344 307.742L345.103 306.633L345.886 308.525L343.213 311.46ZM43.221 305.329L40.8347 305.59L36.0685 302.915L37.4964 300.828L43.221 305.329ZM346.929 297.632L351.689 300.045L348.82 302.915L343.474 300.567L340.344 300.045L335.519 304.807L330.76 297.632L330.238 293.392L331.542 284.13L333.694 282.304L338.453 288.631L344.582 292.349L346.929 297.632ZM579.237 280.412L580.084 281.456L579.497 283.347L583.996 286.282L583.475 287.587L583.996 289.935L582.431 292.349L579.237 296.588L577.672 296.067L575.259 297.632L573.955 299.002L568.674 300.828V302.394L565.74 303.242L560.459 301.872L558.568 300.045L553.287 299.524L554.917 298.154L554.33 295.284L553.287 293.653L553.026 291.827H549.049L550.679 290.522L553.287 289.935L553.026 288.631L553.809 286.543L551.461 285.695L550.092 286.282H545.854L549.571 280.412L550.94 278.064H553.026L554.917 279.368L557.264 283.347L556.221 284.652L560.198 286.282L560.459 284.13L560.198 281.456L563.393 284.13V281.456L565.219 280.412L568.674 280.934L570.5 282.304L571.021 280.412L572.912 280.934L573.955 279.368L573.434 278.064L575.259 277.477L576.368 279.89L579.237 280.412ZM368.38 269.845L364.142 271.411L361.795 267.171L364.663 261.366L369.423 261.887L369.749 267.432L368.38 269.845ZM685.904 260.779L683.296 261.366L685.252 257.909V256.539L688.512 256.017V258.952L685.904 260.779ZM684.6 256.017L683.948 258.952L681.34 258.43L683.948 255.234L684.6 256.017ZM803.916 256.017L800.656 257.648L798.7 255.495L800.656 250.473L802.612 249.951L805.22 251.777L803.916 256.017ZM693.728 250.473L693.076 253.147L689.816 252.299L692.424 248.907L693.728 250.473ZM298.16 256.017L295.812 259.996L291.574 258.952L285.446 256.017L287.858 249.429L290.27 245.972L296.856 252.299L298.16 256.017ZM1220.54 247.016L1219.24 248.907L1215.33 246.494L1217.28 244.667L1220.54 247.016ZM448.119 250.734L444.664 252.299L442.838 249.429L439.383 248.059L439.904 243.298L441.795 241.21L446.555 243.298L450.01 246.494L450.532 248.907L448.119 250.734ZM841.732 246.494L839.124 248.059L836.516 245.972L833.908 242.254L836.516 239.841L841.732 246.494ZM540.051 238.797L533.988 240.428L536.596 235.601L539.53 235.079L541.355 233.253L542.985 238.014L540.051 238.797ZM1264.88 233.774L1259.66 235.079L1257.71 234.035L1253.14 236.449L1253.8 231.687L1257.71 228.491H1263.58L1266.18 231.361L1264.88 233.774ZM308.787 247.016L310.091 248.907L312.504 248.059L314.851 250.734L316.481 255.495L315.438 259.996L317.263 261.887L318.828 255.234L320.197 252.299L324.174 255.495L325.478 260.779L323.653 263.714L324.174 267.171L327.304 271.411L328.934 269.584L332.129 263.714L332.65 257.648L335.519 254.712L333.694 251.255L333.172 245.972H337.41L343.213 248.907L347.972 253.669L348.233 257.909L345.886 260.257L343.995 259.996L345.625 265.018L348.233 268.997L347.451 273.237L342.17 276.955L339.236 280.412L333.954 279.368L333.694 276.955L329.716 277.477L332.129 280.412L330.238 284.13L326.782 287.587H324.957L318.828 282.304V284.13L321.24 287.587L326 288.109L328.412 288.892L324.957 297.11L322.023 298.415H317.002L317.263 301.35L314.851 301.872L315.438 305.59L310.091 309.569L305.071 316.744L302.724 322.027L301.094 328.68V334.224L302.137 336.573H306.962L309.309 346.161L308.787 348.248L313.547 346.683L321.762 349.031L324.957 351.966L326.522 354.38L332.65 356.728L333.954 358.098L336.888 359.141L338.714 358.619L344.582 360.446L343.995 364.946L345.103 368.143L344.582 372.904L347.972 377.666L350.385 379.557L351.167 381.906L353.579 382.427L355.144 380.079L356.448 379.296L357.817 375.839L356.448 372.904L355.927 366.838L354.623 362.076L359.904 359.141L362.316 357.25L364.663 352.488V347.726L362.577 341.399L357.817 337.16L362.316 329.463L358.861 322.027L360.686 319.614L359.904 316.222L359.382 310.873L361.208 309.569L367.337 311.46L371.835 311.982L374.509 310.09L379.79 314.852L381.615 319.092L386.962 320.462L388.527 323.332V331.55L389.309 336.312L391.721 335.79L395.959 340.551L400.719 336.573L402.805 334.224L403.066 329.985L405.479 325.745L407.891 328.093V331.028L410.238 333.442L413.172 338.725L415.519 344.269V350.662L417.41 354.901L420.866 355.684V358.098L422.691 360.185L425.104 359.141L426.147 361.489L429.863 362.598L426.929 366.316L421.909 368.143V370.556L429.081 365.207H430.907L432.211 368.143L435.666 369.186L437.035 371.6L436.188 373.948L437.035 377.666L432.732 381.645L429.863 381.123L426.929 382.427L426.147 384.841L422.17 387.776L417.41 388.298L408.934 387.776H399.937L397.524 390.124L396.481 393.059L393.547 393.581L390.939 395.995L387.483 401.017L393.547 396.777L398.828 394.364L403.066 393.581L406 393.842L407.63 396.777L405.479 398.604L401.762 400.234L402.805 402.061L405.479 401.017L405.218 403.365L406.522 408.714L410.238 411.584L413.694 412.106L415.519 411.062L417.149 411.584L417.41 414.519L411.868 416.346L407.043 418.759L404.696 421.694L402.284 422.477L400.719 421.172V418.237L402.805 416.346L405.218 414.519L403.653 412.954L398.828 415.041L397.003 413.997V416.933L392.243 418.237L389.309 420.585L386.962 421.172L384.549 424.825V426.978L386.114 431.217L382.137 432.522L376.856 433.044L372.618 436.501L373.661 437.284L373.139 440.219L370.792 443.676L369.749 445.502L367.858 448.437H365.446L364.924 450.851L366.554 452.677L367.337 457.439L365.446 461.157L360.686 463.57L359.382 465.396H357.557L355.405 468.332L349.341 473.093L347.451 477.855L348.233 482.095L350.385 486.856L349.863 487.9L352.21 493.249V497.488L350.645 500.358L348.82 500.619L347.972 498.01L346.407 497.488L345.625 493.509H343.995L342.691 489.792L343.474 486.074L339.757 481.573L337.932 480.79L333.954 482.617L330.76 479.159H327.891L325.478 480.268L321.762 479.746L320.197 481.573L315.438 485.03L313.547 484.508L311.2 482.095L309.83 483.138L305.071 482.095L302.137 483.138L298.16 486.334L293.4 489.27L291.574 493.249L293.139 497.488L292.618 498.793L291.574 500.619L291.053 503.554L290.792 507.533V508.838L290.27 509.947L291.053 513.665L291.574 514.708L292.618 517.317L294.508 519.47L295.552 520.253L295.812 522.144L296.334 522.666L297.377 524.492H299.79L301.094 525.536L302.137 526.645L304.549 526.123L305.332 525.536H307.744L309.309 524.492H311.2L311.721 525.536H312.504L313.547 524.492L313.025 523.71L314.59 522.666L314.851 522.144L315.438 520.774L316.481 519.731L315.959 519.47L316.481 517.056V516.013L317.263 515.491L318.828 514.969L320.719 514.708L322.544 514.186L324.435 513.665L327.304 514.708L328.412 514.186L328.934 514.708V515.491L328.412 517.056L327.304 517.904L326.782 518.948L326.522 520.253L325.478 521.296H326.782L325.478 525.536H323.653L324.435 526.123V526.906L323.653 528.471L324.174 529.254L323.653 532.189L323.066 533.233L322.023 533.755L321.762 535.124L322.544 535.646L323.066 535.124L324.174 535.646L326 534.603L326.522 535.124H326.782L328.412 535.646L330.238 535.124L332.65 534.603L333.694 535.124L334.998 534.603L336.367 535.124H337.932L338.714 536.168L338.453 536.429L338.714 536.951L340.866 537.473L341.648 537.994L340.866 538.516L341.648 540.93L340.866 541.712L340.344 543.604V547.583L339.757 548.105V549.409V549.931L339.236 551.301V552.344L339.757 552.866L340.866 554.171L341.648 556.062L343.213 557.106L343.474 557.628L344.582 557.889V559.454L345.625 560.041L346.407 559.454L347.451 560.302H348.233L349.863 560.041L350.385 559.454L352.21 558.411L354.101 557.628H355.927V557.889H357.557L359.382 558.411L360.686 560.041L361.795 560.824L364.142 562.65V560.824L367.076 557.889H367.337L368.38 554.171L370.271 551.823L371.835 552.344L373.139 551.301H376.073L382.137 547.583L382.724 549.409L380.833 550.453L381.615 553.127L379.79 556.584L382.137 559.454L383.767 558.411V556.584L382.137 553.649L382.724 552.344L387.483 550.714L386.375 549.409L387.483 548.105L388.787 550.714H391.2L392.765 551.823L393.547 554.171L400.458 553.649L401.762 555.214L405.479 555.541L407.63 554.171L412.651 553.127L412.39 554.693L414.215 557.106L415.519 556.062L417.149 556.584L419.497 557.889L417.41 561.346L419.757 560.824L422.17 561.346L425.104 562.65L427.451 565.064V566.629L429.342 567.412L432.211 570.347H438.861L439.383 569.825L443.36 570.869L446.555 571.913L450.01 574.587L451.314 577L453.14 577.522V579.87L455.552 584.632L457.117 585.219V587.045L454.248 590.502L452.357 591.807L450.01 596.569L454.248 594.22V595.786V596.047L454.77 597.09L457.639 597.677H460.312L462.724 595.786L463.767 593.438L466.701 592.851L469.049 594.742L475.177 596.569L476.742 598.982L478.046 600.026L479.937 598.982L483.393 600.547L487.631 601.33L491.869 600.808L497.15 603.744L501.909 607.983L503.213 608.505H505.626L507.712 609.027L508.56 610.397L510.125 616.202V618.615L508.56 622.268L504.322 627.617L502.431 629.182L500.084 633.422L497.671 636.357L496.107 636.618L495.259 638.705L495.781 640.597L495.259 642.423L495.781 647.054L494.737 651.62L494.216 654.229L493.433 655.534L492.912 659.448L490.499 664.666L488.935 665.318L488.152 667.927L488.674 669.884L485.218 671.841L484.175 673.145H479.415H478.568H475.699L475.177 674.45L471.461 676.407L467.484 678.364L463.767 680.973L461.877 684.234V691.409L460.833 694.67L459.008 695.975L456.595 699.889L456.074 701.845L454.77 702.498L453.14 701.193L451.314 704.454H450.532L449.423 709.673L447.598 715.543H445.185L442.838 720.761H440.426H437.035H435.666L432.211 718.152H429.863H427.973L428.494 709.673L426.929 715.543L427.451 718.152L431.428 723.37L432.211 725.979L433.841 728.589L430.907 733.807L425.625 736.416L419.497 739.025H414.998V741.634L413.694 744.243L414.215 746.852H411.281H408.934H404.696H404.175L405.218 752.07H406.522H409.456V757.941H406L403.653 760.55L404.175 763.159L402.284 765.768L398.046 768.377L395.699 773.595L396.481 776.204H398.828L402.284 778.814L401.241 781.423L397.524 784.032L395.177 789.25V791.859L391.2 794.468L390.352 797.077L390.939 802.295L392.765 804.904H390.352H388.005L384.549 807.514L384.028 813.384H382.724H379.79L379.007 810.775H382.724V807.514L379.007 810.775H376.856V807.514L374.509 804.904H375.03L372.618 797.077H373.139L372.096 791.859V784.032H373.139L373.661 781.423H370.792L373.139 776.204H372.096H369.749L368.38 773.595L370.792 770.986H371.314H373.139L374.248 773.595L375.03 770.986L375.552 765.768H377.899L378.486 763.159H376.595L376.856 760.55L376.595 757.941H377.899L377.377 752.07H378.486L377.377 749.461L376.073 752.07H374.509L373.661 746.852L374.509 741.634H375.552L376.073 739.025L375.03 736.416L374.509 731.198H376.073L376.856 728.589L378.486 723.37L379.79 720.761L380.311 718.152L381.615 715.543L382.724 709.673L381.615 704.454V701.845L382.724 699.889L382.137 695.975L383.245 694.018L384.028 688.8H384.549L386.114 681.625L385.593 679.668V676.407V673.145L386.375 672.493L386.962 667.275L386.375 664.666L386.962 662.057L386.114 655.534L382.724 653.577L382.137 651.62L369.749 645.359L367.076 642.423L365.446 641.119L366.033 638.184L362.316 631.856L360.686 630.487L356.97 620.964L355.144 618.615L353.579 615.68L352.21 614.376L348.233 612.484L349.341 610.397L347.972 607.201L348.233 605.57L351.167 602.961L351.689 600.547L349.341 598.982L349.863 596.569L350.645 592.329L352.732 590.502L352.21 588.089L356.448 586.524L356.97 586.263L356.448 584.632L357.557 582.284L360.165 581.501L362.577 578.044L361.795 577V575.109L361.208 569.564L361.795 567.934L359.904 565.586L358.861 564.803L357.817 562.65H358.339L358.861 561.868L357.817 561.346V560.824L356.448 560.041L355.405 559.454H354.623L353.579 560.302L353.058 560.824L351.689 561.868H351.167L350.645 562.65L352.21 564.281L351.167 565.586H349.341V564.803L346.929 563.694L346.407 562.389H345.103L344.582 561.868H342.691V562.65L342.17 562.389L340.344 561.346L339.757 560.824L340.344 560.041L339.757 559.454L338.714 558.411L337.932 557.889L336.367 557.628L336.106 556.062L334.998 555.541L334.476 556.062L335.519 556.584V557.106L334.476 557.628L333.954 556.584L333.172 556.062L332.65 555.541L332.129 554.693L333.172 553.649L332.65 552.344L332.129 551.301L329.716 549.931L328.934 548.105L328.412 547.583L326 545.691V545.169H327.304L326 544.126L325.478 543.604L324.957 544.648H322.023L320.197 543.604L318.306 543.343L317.263 542.821L315.438 541.712L314.068 542.234L313.025 541.712L311.721 540.93L309.83 539.886L306.375 536.429L304.549 534.603L304.028 534.016L302.984 533.755H301.615L300.572 532.711L298.746 534.603L297.899 535.124L296.334 535.646H295.552H293.922L293.139 535.124L290.792 534.603L289.684 533.755L287.858 533.233L287.336 532.711L283.881 531.667L283.62 531.406L279.121 529.776L277.296 528.471L276.448 527.428H275.405L273.579 526.906L270.645 526.123L270.124 524.492L267.711 523.188L266.929 522.666L265.364 522.144L263.473 519.731L262.952 518.426L264.516 517.904V517.056H263.473L264.842 515.491V514.708L263.995 513.665L263.473 512.556V511.251L262.43 509.947L260.604 507.794L259.235 505.968L258.192 505.185L256.888 503.554L255.78 502.772L254.997 502.25L253.954 500.358L252.52 499.315H251.607L250.172 498.01V496.967L251.085 495.597L250.172 494.553L248.738 494.031L248.282 493.249L246.847 492.727L246.326 491.618L245.869 490.835L244.435 489.792L243 487.9L242.088 487.378L241.566 486.074L240.653 485.552V484.508L239.219 482.617L238.697 481.573V480.79L237.263 478.377V476.55L235.372 476.029V474.92H233.481L232.047 474.137H231.59L231.069 477.072L231.59 477.333L232.047 479.159V480.79L233.025 482.095H233.481L234.916 483.66L235.828 485.03L237.263 486.334V487.378L238.241 487.9L238.697 489.27V489.792L239.219 490.835L240.132 491.096L240.653 492.14L241.566 494.031L242.544 494.553L243.457 495.858V497.488L245.869 501.728V503.033L246.847 504.076L247.304 503.554L248.738 504.598L249.194 505.968L250.172 507.011V507.794L248.738 508.838H247.76V507.533L247.304 506.49L245.869 505.968L244.435 504.598L243 503.554L241.566 502.25L241.11 501.728L240.653 501.206L241.11 499.836L240.653 498.271L240.132 496.379L238.697 495.858L236.806 494.031H235.828L234.916 493.249L232.503 492.14V491.618L231.069 490.835L233.025 489.792L233.938 489.27V487.378L231.069 483.986L230.156 483.66L228.2 482.095L227.744 479.746L227.287 478.899V478.377L226.309 477.333V476.55L224.875 474.92L225.396 474.137L224.418 473.093L223.962 472.311L223.44 471.202L222.006 467.81L218.224 464.614L214.899 463.048H212.03L211.052 460.374L206.749 455.091V452.155L204.858 451.112L202.511 445.502L200.555 443.676L200.099 439.175L198.208 437.284L199.121 432.522L197.686 425.412L198.664 421.172L199.642 414.519V407.344V405.518L197.23 399.647L199.121 398.604L205.315 400.234L204.858 395.995L203.88 394.886L201.99 393.842L196.774 389.602L197.23 388.298L194.883 386.667H192.014V384.319L189.145 384.841L186.276 383.014L185.82 377.144L181.973 369.186L180.539 369.969L178.192 366.838L177.67 362.598L178.648 359.141L177.213 360.968L175.323 362.076V356.206L171.932 353.01L168.607 348.248L166.26 347.205L165.738 342.965L164.304 341.139L163.848 340.551L161.957 338.725H159.544L155.306 340.03L149.569 334.224L142.853 329.985H140.506L134.312 327.571L130.009 328.093L121.924 323.853L119.055 320.983L115.208 324.44L114.296 328.68H109.992L108.036 331.55L102.82 333.964L102.364 329.463L103.798 326.789V323.332L107.58 320.983L106.667 319.092L103.798 320.983L100.93 324.701L99.9515 327.571L94.7355 332.333L97.6043 336.312L94.7355 338.725L94.2139 341.139L87.1071 345.378L86.1291 348.248L82.8039 349.031L78.9571 354.38L74.1975 355.684L71.3287 357.837L68.0035 358.098L66.1127 360.446L63.7003 359.663L68.0035 355.423L70.4159 354.901L74.7191 350.923L77.5227 349.618L81.8259 343.748L82.8039 338.986L78.9571 336.312L77.5227 338.986L75.6319 335.79L72.3067 334.746L67.5471 337.16L68.0035 331.55L65.1347 328.093L61.3531 329.463L56.5674 325.745L55.6155 323.853L58.4778 322.288L52.7532 317.265V315.113L57.5259 309.047L58.0018 305.329L59.4297 304.285L62.2659 306.112L64.6783 304.285L66.1127 301.872L69.8943 302.394L71.3287 300.828L70.8723 296.588L68.9815 295.284L70.8723 291.827L66.5691 292.87L65.1347 294.175L60.8641 293.653L56.5674 294.762L52.7532 293.653L50.8494 290.522V287.587L47.9871 287.065L46.0767 285.174L54.6636 279.107L58.4778 276.955L60.8641 276.694L61.3531 281.456L67.5471 281.717L68.5251 278.064L73.2847 278.586V276.694L67.5471 275.65L65.6563 273.237L60.8641 272.193L59.9057 267.432L51.3253 260.779L52.2773 256.017L59.4297 255.234L63.2439 250.734L63.7003 247.016L67.5471 241.21L71.3287 240.949L75.1755 236.449L80.9131 236.188L85.1511 231.361L91.4103 232.731L92.7795 236.188L97.6043 235.079L100.408 235.601L99.9515 238.797L111.883 239.319L117.099 242.776L123.358 243.298L127.14 245.189L132.356 243.559L135.746 245.972L139.984 248.385L146.7 249.951L148.591 252.299L155.306 256.017L157.654 255.495V253.147L160.979 250.734H162.935L163.391 248.907L165.282 250.734H167.173L168.607 248.059L171.932 247.016L177.213 243.298L180.082 244.667L182.43 247.016L184.386 245.189L185.298 238.536L188.624 242.254L190.058 247.016L192.014 249.951L193.905 250.734L194.883 245.972L197.23 244.146L198.664 250.734H201.077L202.511 247.016L206.293 246.494L210.14 248.385L212.487 250.734L218.224 252.886L220.572 254.712L225.396 256.017L226.831 254.712L230.612 256.017L233.938 259.996L230.156 264.236L233.025 266.649L239.675 267.171L244.435 266.127L247.76 264.236L249.194 266.649L253.041 267.432L254.997 270.367L255.78 273.824L257.67 273.237L255.258 267.171L253.954 258.43L259.757 256.539L261.126 255.234L263.995 257.648V260.257L266.929 261.887L267.19 263.714H270.645L273.058 265.605L277.296 267.171L280.686 265.605L288.64 266.127L291.574 267.954L291.053 264.236L289.162 265.018L287.336 260.779L292.618 259.996L296.856 263.192L300.572 263.714L305.071 259.474L305.332 256.017L302.984 254.191V250.473L298.16 247.016L295.03 243.298L295.812 238.797L295.03 236.449V231.361L299.268 226.599L302.137 225.034L306.375 229.274L307.744 232.731L307.483 236.188L310.091 238.536L312.243 243.298L308.787 247.016ZM1082.32 220.272L1079.71 222.099L1075.15 218.381L1075.8 216.033L1082.32 220.272ZM553.287 217.337L553.026 221.838L546.115 216.554L545.854 213.619H550.679L553.287 217.337ZM234.459 210.162V215.511L237.784 211.793L243.978 214.989L244.435 218.968L248.282 216.554L249.194 213.097L252.52 216.554L254.476 223.729L256.366 226.078L253.954 209.901L259.235 208.336L263.473 212.576L265.364 221.838L267.711 227.969L266.929 233.774L269.341 236.971L279.643 243.298V248.059L276.448 247.016L276.709 254.712L270.645 256.539L264.842 255.495L260.604 252.886L253.498 255.234L252.063 257.126L243.978 259.474L236.806 259.996L235.372 252.886L229.634 252.299L225.396 250.734L222.984 247.016L223.44 243.559L232.503 241.21L238.697 242.776L240.653 239.841L234.459 237.492L230.156 238.536H222.006L219.659 227.969L216.334 224.251L218.681 217.337L222.528 212.576L232.047 207.031L234.459 210.162ZM550.092 208.336L546.115 211.271L541.355 209.379L543.507 207.031L546.115 206.509L550.092 208.336ZM823.476 223.729L826.084 231.361L829.996 235.601V238.797L826.736 238.536L824.128 236.971L823.476 238.797L820.868 236.449L819.564 236.971L816.304 229.013H811.088L809.784 226.078L811.088 222.621L815 219.49L814.348 213.619L816.304 209.901L822.172 206.509L827.388 208.858L826.736 214.141L824.128 218.381L823.476 223.729ZM880.2 209.379L874.332 211.271L875.636 205.922L878.244 205.401L880.2 209.379ZM1077.1 214.141L1070.58 217.337L1071.24 214.141V212.576L1072.54 210.749L1073.19 205.14L1076.45 205.922L1080.36 211.793L1077.1 214.141ZM349.863 202.792L354.623 204.096L358.861 203.574L362.316 205.401L365.446 210.162L362.577 213.619L358.339 213.097L355.405 214.728L352.732 213.097L351.689 208.858L349.341 207.553L349.863 202.792ZM267.19 205.14L264.842 212.576L260.604 207.031L260.018 203.052L264.842 202.792L267.19 205.14ZM1071.24 214.141L1069.93 219.751L1065.37 215.511L1059.5 213.097L1060.8 209.379L1060.15 205.14L1062.76 204.096L1064.06 201.683L1068.63 205.922L1071.24 207.031L1072.54 210.749L1070.58 212.576L1071.24 214.141ZM329.195 213.097L332.129 223.729L334.476 219.49L332.65 212.576L334.998 207.553L342.691 202.792L346.929 203.052L348.233 208.336L350.645 210.749L352.21 219.49L355.927 220.272L361.208 214.728L369.423 217.337L372.618 225.034L375.03 226.078L374.509 231.361L378.486 226.86L382.137 229.013L385.593 235.079L393.286 238.797L397.003 245.189L394.069 247.016L395.699 258.952L398.046 259.996L398.307 263.192L400.719 264.236L405.218 263.714L407.891 267.432L409.456 275.129L411.868 273.824H416.106L417.932 276.694L413.694 282.304L413.172 285.695L410.76 285.174L409.977 290.522L405.218 288.109L400.719 279.89L397.003 279.107L396.481 284.652L398.046 289.413L404.175 294.175L405.218 304.807L404.175 309.569L401.241 306.112L395.699 305.59L400.719 311.982L400.458 314.852L392.243 311.982L388.527 308.003H386.375L381.355 304.807L381.615 300.828L378.486 299.524L375.552 293.653L373.139 295.806L369.423 295.284L364.142 296.588L358.861 293.653L361.795 286.543L366.033 288.109L371.314 287.587L374.509 284.13L371.835 280.934L376.595 275.65L379.268 270.889L376.856 262.409L372.096 258.952L370.792 255.234L367.858 255.495V252.299L360.686 247.016V242.776L356.97 243.298V245.711L348.233 243.559L343.474 245.972L334.476 243.559L332.65 244.667L329.195 241.21H324.174L319.676 236.188L318.306 230.839L317.263 223.729L318.828 216.033L321.24 208.336L325.478 203.052L329.195 201.161L334.998 201.683L329.195 213.097ZM1130.57 205.401L1129.26 209.379L1124.05 207.814L1121.44 206.509L1122.74 200.639L1125.35 200.378L1130.57 205.401ZM283.098 200.378L285.446 202.792L292.618 201.161L290.27 211.271L295.03 214.728L295.812 218.381L293.922 225.034L290.27 226.86L287.858 231.361L285.446 230.317L283.881 226.078L280.686 221.316L276.709 219.751L273.579 214.989L275.926 210.749L278.339 214.989L281.534 214.728V207.031L279.121 202.27L283.098 200.378ZM303.506 221.838L299.79 223.729V217.859L298.16 214.989V202.792L299.79 199.334L305.332 197.443L309.83 199.856L317.002 200.639L313.547 207.553L311.2 213.619L306.375 214.141L303.506 221.838ZM1122.09 199.334L1120.14 200.639L1118.83 196.921L1122.09 195.877V199.334ZM209.162 192.681L213.921 196.399H222.006L224.418 198.813L229.634 205.922L216.334 216.033L215.812 219.49L212.943 221.838L211.052 229.013L202.511 234.035L201.533 231.361L199.121 226.86L194.883 223.729L192.47 224.251L194.361 218.381L195.796 217.076L196.252 210.749L198.664 205.922V201.161L196.774 195.095L209.162 192.681ZM1025.6 194.573L1024.29 198.291L1019.73 195.877L1021.03 192.159L1025.6 194.573ZM568.153 186.093L565.219 186.354V181.593L568.153 181.332V186.093ZM1147.52 180.745L1148.82 183.68L1153.39 183.158L1155.34 187.92L1152.08 189.289H1146.87L1139.7 183.158L1141.65 180.745H1147.52ZM305.071 191.116H302.137L295.03 186.354L297.899 179.179L302.724 178.397L305.332 182.636L305.853 187.92L305.071 191.116ZM1117.53 174.157L1120.14 175.983L1122.09 172.591L1124.7 171.222L1127.31 174.418L1131.87 174.939L1136.44 179.179L1133.83 186.093L1129.26 184.463L1126 186.354L1119.48 188.442L1117.53 186.354L1116.22 190.855L1112.31 189.224L1107.75 182.636L1109.05 173.635L1114.92 169.395L1117.53 174.157ZM289.684 179.701L290.27 186.093H281.534L281.208 180.745L273.579 179.179L276.709 169.395L282.055 163.003L290.792 164.894L291.574 170.7L292.096 176.831L289.684 179.701ZM253.498 170.178L258.192 174.157L262.43 172.591L263.995 177.353L261.126 186.093L257.67 187.398L252.063 185.572L249.716 188.442H246.847L242.544 193.203L237.784 194.573L232.503 190.855L238.241 186.876H228.2L222.006 183.68L224.875 170.7L231.069 164.894L233.938 169.395L237.784 168.873L240.653 174.939L243.457 177.875L252.063 179.179L249.716 175.461L250.629 171.222L246.847 168.352L250.629 160.655L253.498 161.698V170.178ZM869.116 168.352L863.9 171.743L845.644 181.332L841.08 186.354V189.289L837.82 190.855L835.864 196.399L831.952 198.813L832.604 201.683L828.692 208.858L822.172 206.509H819.564L818.26 202.27L822.824 197.443L824.128 191.116L827.388 190.333V187.398L829.344 181.332L833.908 178.397L836.516 174.418L839.776 172.591L845.644 167.764L848.252 169.656L854.12 167.764L862.596 159.872L865.856 157.459L869.768 158.241L871.072 160.655V164.634L869.116 168.352ZM305.071 158.763L307.483 163.525L313.025 162.22L314.59 170.7L314.068 174.418L317.263 173.113L324.174 179.179L327.304 177.875L330.238 180.745L338.714 174.939H344.582L351.689 177.875L354.623 181.332L354.101 186.093L351.689 192.159L346.407 193.464L340.866 191.638L337.932 193.203L326 193.464L320.719 191.638L317.785 192.681L312.504 191.116L309.309 183.68L310.613 178.397L307.744 169.395L301.094 168.352L297.377 166.46L293.922 158.763L297.899 156.415L305.071 158.763ZM226.309 164.112L221.55 168.352L217.768 165.938L214.899 173.635H204.858L202.968 171.222L204.858 166.982L207.727 165.938L212.943 157.459L218.224 152.175L224.418 152.697L227.744 162.22L226.309 164.112ZM1005.38 158.763L1001.47 164.894L1006.69 164.634V161.698L1017.77 161.177L1023.64 167.764L1025.6 168.873L1027.55 174.418L1026.25 177.353L1026.9 182.636L1024.29 186.354L1021.68 187.92L1020.38 190.855L1013.86 194.573L1013.21 196.921L1010.6 198.813L1007.99 203.574L1004.08 204.096L1000.82 210.162L1006.04 209.901L1014.51 205.401L1012.56 201.683L1015.16 199.334L1021.03 203.052L1023.64 202.792L1026.25 205.401L1032.12 203.052L1039.29 204.618H1043.85V209.379L1048.42 211.271L1055.59 213.097L1060.8 214.989L1065.37 216.033L1069.93 220.272L1075.15 219.49L1081.02 228.491L1082.97 233.253L1086.88 236.971L1088.84 235.601L1092.75 224.512L1094.71 227.969L1099.27 230.317L1103.84 227.447L1106.44 227.969L1109.7 230.839L1111.66 227.969L1114.27 227.447L1116.22 229.013L1118.18 228.491L1116.88 224.251L1118.18 220.794L1122.09 214.989L1124.05 214.728L1130.57 215.511L1135.78 218.381L1135.13 220.794L1143.61 219.49L1147.52 219.751L1152.08 221.838L1153.39 223.729L1152.08 227.447L1158.6 231.361L1162.52 236.188L1165.78 235.601L1173.6 233.253L1180.77 233.774L1186.64 238.014L1188.6 242.254L1186.64 245.711L1191.2 248.385L1193.16 250.734L1195.77 248.385L1202.29 247.016L1203.59 248.907L1212.07 249.951L1215.33 247.016L1217.28 249.429L1216.63 251.777L1220.54 254.191V256.539H1224.46L1226.41 254.191L1225.11 248.907L1224.46 243.559L1232.28 245.189L1233.58 245.972L1244.02 245.711L1253.14 251.777L1255.1 252.299L1257.71 254.712L1259.66 255.495L1261.62 257.126L1262.27 258.952L1263.58 259.996L1274.01 267.171L1275.96 275.129L1277.27 276.694L1278.57 275.129L1277.27 272.715L1279.22 271.932L1283.14 273.824H1285.09L1291.61 280.412L1293.57 280.934L1290.31 283.347V285.174L1289 285.695L1285.74 286.282L1284.44 288.109V289.935L1283.14 291.305L1282.48 293.653L1284.44 294.175L1281.83 296.067L1278.57 295.284L1276.62 292.87L1274.01 291.827L1272.05 290.522L1271.4 286.543L1268.14 285.174L1266.18 286.282L1263.58 286.543L1261.62 283.347L1262.92 280.412L1259.01 280.934L1258.36 282.825L1260.32 285.695L1259.01 288.631L1257.71 289.935L1255.75 291.827L1253.8 292.87H1249.23L1249.88 296.588L1251.84 295.806L1253.14 299.002V303.242L1255.75 305.329L1256.4 308.525L1254.45 311.46L1248.58 309.569L1247.93 308.003L1244.67 311.46L1238.8 315.113L1236.84 314.852L1229.67 322.027L1225.11 325.223L1224.46 328.68L1221.85 325.223L1217.28 323.853L1212.72 325.745L1210.11 329.202V324.701L1206.2 327.571L1200.98 328.093L1198.38 335.268L1195.77 338.725V342.965L1197.72 341.921L1199.68 343.487L1197.72 345.9L1198.38 349.618L1199.68 350.14V353.271L1197.07 353.01L1195.12 353.858L1193.81 356.728V363.381H1191.2L1187.94 365.729L1186.64 371.078L1183.38 373.948L1182.08 378.775L1176.86 384.058L1176.21 381.123L1175.56 377.144L1174.25 373.426L1172.95 358.619V354.38L1174.25 350.14L1176.86 347.726L1180.12 341.399H1181.42L1186.64 336.312L1187.94 333.964L1191.2 331.028L1194.46 325.223L1199.68 322.288L1202.29 315.113L1202.94 308.525L1199.68 309.569L1198.38 315.113L1190.55 322.81L1187.29 319.092L1185.99 314.852L1179.47 315.113L1176.86 317.265L1173.6 322.81L1170.99 325.745L1167.73 329.202L1168.38 334.224L1165.12 333.442L1163.17 335.79L1161.21 334.746L1157.95 331.028H1155.34L1152.08 329.985L1150.13 331.55L1144.91 333.442L1138.39 331.811L1129.92 332.333L1127.31 333.442L1124.7 337.16L1120.79 340.03L1120.14 342.965L1118.83 343.487L1111.66 350.923L1109.05 354.901L1101.88 361.489L1103.84 363.381H1107.75L1107.1 367.36L1109.05 369.708L1113.62 369.186L1114.27 366.316L1117.53 365.207L1123.4 371.6L1122.09 372.382L1123.4 377.144L1120.79 381.906L1120.14 386.406V391.494L1119.48 397.821L1116.22 401.017L1113.62 404.996L1112.96 407.344L1110.36 411.062L1103.84 418.237L1101.88 422.477L1097.32 425.412L1094.06 425.934L1092.1 424.042L1086.88 426.456L1086.23 428.282H1084.93L1082.32 431.739V434.935L1077.76 438.392L1075.15 440.219V442.632L1077.76 444.98L1079.06 447.394L1081.02 451.112L1081.67 453.46V458.221L1081.02 460.374L1078.41 461.157L1077.1 460.635L1073.84 462.2L1070.58 462.722L1071.89 455.873L1071.24 453.199L1072.54 452.155L1071.89 449.22L1072.54 448.437H1067.98L1065.37 446.872L1067.32 442.632V441.262L1064.06 439.697V438.392L1062.76 439.697L1059.5 440.219L1054.94 442.632L1054.28 441.262L1056.89 436.501L1055.59 435.457L1052.98 434.414L1050.37 437.871L1047.11 439.175L1045.81 442.632H1041.24L1040.59 446.089L1041.9 446.872H1045.16L1045.81 448.437V450.851L1047.11 451.634L1051.68 448.437L1054.28 450.329H1058.2L1056.89 453.199L1055.59 452.677L1052.98 453.46L1051.02 455.873L1049.72 456.395L1047.76 458.221L1045.81 461.679L1049.72 463.57L1052.33 469.375L1051.68 470.68L1054.28 473.093L1052.33 474.137L1054.28 476.029L1055.59 477.333L1052.33 478.899L1055.59 483.138V484.508L1051.02 490.313V492.14L1049.07 494.031L1047.11 494.553L1047.76 495.858L1045.81 501.206L1038.64 506.49L1036.68 508.838L1033.42 509.947H1029.51L1028.86 510.208L1028.2 511.251L1026.9 510.208L1026.25 511.773L1019.73 514.186H1017.12L1014.51 516.013L1015.82 518.426L1013.86 518.948L1013.21 516.535V514.186L1011.25 514.708L1009.3 512.556L1006.69 514.186L1004.73 516.013L1003.43 516.535L1002.12 518.948L1000.17 520.253L998.864 523.71L999.516 525.536L1002.12 527.428L1001.47 527.949L1004.73 531.406L1006.04 532.711L1009.95 536.951L1011.9 542.234V543.604V545.691V546.474L1011.25 549.931L1010.6 551.301L1004.73 554.171H1002.78L1003.43 555.541L1002.12 557.628L998.864 558.932L997.56 560.302L996.256 560.824V557.628L996.908 555.541L994.952 554.693L992.996 553.649L989.084 550.453V548.887L987.128 548.105L985.172 546.474H981.912L982.564 543.604H979.304V548.105L976.044 554.693V557.106L977.348 558.932L978.652 558.411L979.304 560.824L979.956 561.346V563.694L979.304 564.803L983.216 567.151H984.52L986.476 569.043L990.388 572.239L991.04 574.326L991.692 576.152L991.04 578.044V580.392L992.344 581.762L994.3 586.263L991.04 585.741L986.476 583.327L983.868 581.501V579.349L981.912 577.522V574.326L980.608 573.282V569.825L979.304 568.521L978 567.151L976.696 564.281L974.74 562.65V561.868L972.784 560.824L973.436 558.932L974.74 554.693L974.088 553.649L974.74 552.866V549.931V547.583V544.648L973.436 542.821L971.48 538.516V536.429L969.524 530.363L968.22 531.667L964.308 534.016L963.656 535.646H961.7L959.092 534.603L960.396 528.993L957.788 522.144L956.484 519.731L955.18 519.47L954.528 517.904L953.224 517.317L952.572 516.013L950.616 510.729L949.312 509.425L948.008 510.208L945.4 513.078L944.096 512.556L941.488 513.665L938.88 514.186L936.924 513.078L934.316 514.186L933.664 515.491V517.317L931.708 519.731L929.1 520.774L926.492 522.666L923.884 526.123L921.276 528.993L918.016 530.363L917.364 532.189L915.408 533.233H914.104L912.8 535.124L910.192 535.646L909.54 537.994L910.192 540.93L910.844 544.126L910.192 547.061L908.888 548.887V555.214L907.584 554.693L905.628 557.628L906.28 558.411L903.02 560.041V561.868L901.064 562.65L899.108 561.868L897.804 560.041L896.5 555.541L894.544 550.714L891.284 545.691V542.234L889.328 539.364L886.72 534.016L886.068 530.363L884.764 524.492L884.112 520.253L885.416 517.056L884.112 515.491L883.46 512.556L881.504 515.491L878.244 517.317L876.94 517.056L871.724 512.556L872.376 511.251L874.984 510.208L871.724 509.425L869.768 507.794L868.464 505.446L865.856 505.185L864.552 502.772L863.248 501.728V500.358L861.944 499.315L856.076 499.836L852.816 499.315L852.164 500.358L848.252 499.836L846.296 500.619L845.644 500.358L844.992 500.619L837.82 499.315L833.908 498.793L830.648 498.01L829.344 493.509L826.736 492.727L824.78 493.249L821.52 495.075L818.26 494.553L814.348 491.618L813.696 490.835L809.784 489.27L808.48 485.03L805.22 481.573H800.004L798.048 481.312V483.66L800.004 486.856L800.656 489.27L803.264 492.727L805.22 494.031V496.967L807.828 501.728V498.793L809.132 496.967L811.088 497.488V500.619L809.784 502.772L811.088 503.554L812.392 505.185L815 504.076L818.26 504.598L820.216 503.554L826.084 496.967L826.736 498.271L827.388 501.206L828.04 503.033L829.996 505.185L835.212 505.968L839.124 511.773L837.82 514.708L836.516 515.491L834.56 518.426L833.256 517.904L831.952 520.774V523.71L829.344 524.231L828.692 525.014L826.736 527.428H824.78L823.476 528.471L822.824 530.885H819.564L816.304 532.189L814.348 532.711L812.392 534.603V536.168L809.784 537.473L806.524 537.994L801.96 539.886L800.656 541.712L798.048 541.191L796.092 543.343L793.484 543.604L789.572 544.126L786.964 545.952L784.356 546.474L782.4 545.952L779.792 535.646V533.233L778.488 529.254L775.88 527.428L774.576 524.492V523.188L771.968 519.731L769.36 518.426L767.404 515.491V513.078V510.208L764.796 505.446L762.188 504.076L760.232 501.728L760.884 500.358L758.928 497.488L756.972 494.553L754.364 489.792L751.756 488.487L753.06 483.986V483.138V483.66L749.8 490.313L747.192 486.856L746.54 485.552H744.584L747.844 489.792L749.148 494.553L754.364 504.076V507.011L755.668 509.425L757.624 510.208L759.58 512.295L760.232 515.491L761.536 523.188L764.144 526.645L765.448 526.906L766.752 529.254L768.708 536.168L770.012 536.429L771.968 537.994L774.576 539.364L775.88 541.712L778.488 543.343V544.648L781.096 546.474L782.4 548.887L781.748 550.714L785.008 554.171H788.268L790.224 552.866L793.484 553.127L796.092 551.823H798.048L805.22 550.453L807.828 548.887L809.784 549.409L809.132 551.823L809.784 554.693H808.48L807.828 557.889L805.872 561.346L804.568 563.172L802.612 567.412L801.96 569.564L798.048 575.109L793.484 579.87L790.876 582.806L786.312 585.741L782.4 588.611L777.184 594.742L775.88 596.569L773.924 598.199L773.272 599.504L770.664 600.547V602.439L768.708 607.201H767.404L766.1 611.962L766.752 613.267L768.708 615.68L768.056 621.485L768.708 623.377L770.012 625.725L771.968 627.617V629.182V630.487L772.62 635.835L771.968 638.705L773.272 642.945L771.968 645.75L769.36 649.664L767.404 650.316L762.84 652.273L760.884 653.577L757.624 658.143L755.016 658.795L753.06 661.404L752.408 664.666L753.06 665.97L755.016 673.145L754.364 675.754V677.711L753.712 679.016L748.496 681.625L745.888 682.929L744.584 684.886L745.888 688.148L743.28 694.67L740.02 698.584L736.76 703.802L731.544 709.673L728.284 712.934L725.676 715.543H723.068H720.46L717.2 718.152H713.288H710.028H706.768H704.812L698.944 720.761L695.684 715.543L693.076 712.934H694.38L695.032 709.673L694.38 707.064L691.12 701.845L689.816 696.627L688.512 694.67L685.904 692.714L684.6 690.104L682.644 684.234V680.32L681.34 677.711V673.798V671.841L678.08 665.318L674.82 658.795L672.212 654.229V651.62V647.054L672.864 645.75L674.168 642.945V638.184L677.428 635.248L679.384 632.378V629.443L677.428 625.725L676.776 622.855L678.08 620.442L674.168 612.484L676.776 611.44L674.168 611.962L673.516 610.919L672.864 608.505L672.212 606.679L669.604 604.787L667.648 602.439L665.04 600.026L663.736 597.677L661.78 593.699L663.736 592.329V588.872L665.04 587.567L663.736 587.045L665.04 584.11V582.806L665.692 580.392L664.388 577.522L662.432 576.739L661.128 574.326L659.824 575.109H655.912L655.26 575.631L652.652 576.152L650.044 574.326V572.239L646.262 569.043L643.654 568.521L640.72 569.043L636.743 569.564H635.439L634.331 570.347L631.983 570.869L628.267 572.761L625.333 573.282L624.551 574.326L621.095 573.282L615.292 572.239L610.533 573.282L604.925 575.631L599.123 573.282L594.885 569.564L591.429 567.412L591.168 566.629L587.713 565.064L586.409 562.65L584.844 561.346V559.454L583.996 556.584L581.649 555.541L578.715 552.866L577.15 551.823V549.931H575.259L572.912 547.583V545.169L573.434 543.343L571.608 538.516L573.434 535.646V534.016L573.955 532.189L575.259 527.949V525.536L574.477 523.188L574.738 518.948L573.955 517.317L571.608 517.056L572.13 513.078L573.955 511.251L576.368 505.185L579.237 502.25L579.497 499.315L580.606 496.379L583.996 494.031L585.365 490.835L586.409 489.27L591.168 487.9L595.928 483.66L597.297 480.79L596.71 478.899V475.507L598.601 472.571V471.202L601.535 467.81L604.925 466.44L607.338 464.614L609.163 461.679L610.533 457.439L612.619 456.917L612.88 458.221L615.031 459.852H618.226L623.507 460.374H624.811L627.224 457.961L630.679 457.439L631.723 455.873L635.439 453.982H639.677L641.242 453.199L647.892 452.677L650.044 453.46L653.304 451.634L655.26 452.677L656.564 451.634L661.128 452.155L665.04 450.851L666.344 451.112L667.648 456.917L669.604 457.961V459.852L667.648 462.722L665.692 464.092L666.344 465.396L670.256 468.332H670.908L674.168 469.897L677.428 469.375L683.948 471.789L685.252 475.507L686.556 476.029L691.772 477.072L694.38 478.377L696.988 480.268L698.944 479.746L700.9 476.55V473.615L702.856 470.68L706.116 469.375L708.724 469.897L711.984 470.68V472.311L714.592 473.093L717.852 473.615L719.156 474.659L726.328 476.029L728.284 477.072H730.24L732.196 477.855L733.5 477.333L736.76 475.507H741.324L742.628 477.072H748.496L750.452 476.029L751.104 474.92L753.06 468.854L756.32 462.2L755.668 457.439V455.091L756.972 453.982L756.32 452.677L754.364 453.982L751.104 453.199L749.148 455.612L745.236 456.395L742.628 453.982L740.02 453.199H737.412V455.091L734.804 455.873L732.848 455.091L732.196 453.46L730.24 452.677L726.98 452.155L726.328 450.851V447.916L723.068 446.872L724.372 442.632V440.741L721.764 441.262V439.175L724.372 436.762L727.632 436.501L730.892 436.762L732.196 435.979L732.848 433.044L740.02 433.631L743.28 430.696L747.192 429.391L751.756 429.652L754.364 430.696H756.32L757.624 433.044L759.58 432.522L761.536 434.153L764.796 434.414L768.708 433.631L770.664 434.414L775.228 432.522L775.88 431.739L776.532 429.652L775.228 425.934L770.012 422.999L766.752 419.281L761.536 416.933L758.928 413.997L761.536 412.954L762.84 410.279V407.866L764.796 405.779L764.144 404.474L761.536 404.996L758.928 406.301L755.668 406.822L754.364 408.192L751.756 409.236V411.062L754.364 413.476L756.972 412.954H758.276L757.624 415.041L754.364 414.519L753.712 415.302L750.452 416.346L749.148 418.237L747.844 417.715V414.519L744.584 412.954L748.496 410.54L747.192 409.758H743.28L741.976 406.822H740.02L738.716 408.192L736.108 410.54L734.152 411.584L734.804 413.997L734.152 415.824L731.544 416.346L730.892 421.172L730.24 422.999H728.936L727.632 426.456V427.239L728.936 429.652V434.153L726.98 434.414L725.676 435.979L724.372 436.501L722.416 438.392L721.764 435.457L718.504 434.153L715.896 434.414L713.94 436.762L711.984 437.871L710.028 436.762V438.392L710.68 439.697L711.332 444.459L714.592 446.35V449.22L713.288 447.916L711.984 448.437V450.329L710.028 449.742L711.984 453.199L708.724 453.46L708.072 452.155L706.116 453.199V450.329L704.812 448.698L705.464 446.872L707.42 446.35L710.68 447.916L710.028 446.35L707.42 446.089H704.812L702.856 443.937V443.154L700.9 440.219L700.248 438.914L698.944 437.871L698.292 435.979L698.944 430.174H698.292L696.988 428.282L695.684 427.239L692.424 425.412V424.825L689.816 422.999L686.556 421.694L683.948 419.281V418.237L683.296 416.933L682.644 414.519L681.34 413.476L680.036 415.041L679.384 415.824L678.08 412.693L678.732 412.106L676.776 411.062L673.516 413.997L674.82 415.302L673.516 416.933L674.168 418.759L677.428 421.694L678.08 422.216L679.384 426.456L682.644 429.391L683.948 429.652H686.556V432L690.468 434.153L693.728 435.979L695.684 438.392L695.032 439.697L693.728 437.871L690.468 436.501L689.816 437.284L688.512 439.697L690.468 441.523V443.676L688.512 444.459V446.089L686.556 447.916H685.252L687.208 443.154L685.252 438.914H684.6L683.296 437.284L682.644 435.457L680.036 434.935L678.732 433.044H676.776L672.212 429.391L671.56 428.282L667.648 424.825L666.996 420.585L663.084 418.237L661.78 417.715L659.172 420.585L657.216 421.172L653.956 424.042L652 424.564L647.371 422.999L645.48 422.216L642.024 424.042L641.503 425.412L642.024 427.239V430.174L639.155 432L638.308 433.044L634.331 434.153L631.201 438.914L630.093 441.262L631.201 443.676L631.983 444.459L629.31 446.35L627.745 449.742H626.963L625.333 450.851L623.507 453.199H615.814L615.031 453.982L612.88 454.569L612.619 455.873L611.576 456.395L610.272 455.612L608.12 452.155L605.512 451.112L603.882 452.155L601.013 451.634L600.687 450.329V446.089L598.34 444.459L598.601 441.523L599.644 440.741L601.013 434.153L600.166 430.174L600.687 429.652L600.166 428.804L599.123 424.042L602.057 422.999L603.361 421.172L605.773 422.216H611.576L616.335 422.999L618.748 422.477L623.507 423.521L624.811 422.999L625.855 421.694L626.963 416.933L627.224 410.279L626.963 408.714L624.811 407.866L624.029 405.779V404.996L622.203 403.365L621.617 402.061H620.052L618.748 401.017H616.335L615.814 398.604L614.51 398.343L615.292 396.777L620.052 395.408L621.617 397.299L622.986 396.256L625.333 396.777V393.581L624.811 391.168H626.441L627.224 392.538L631.723 393.059V391.168L634.917 389.602L636.482 388.298L636.743 384.319L640.199 383.536L643.133 381.645L646.001 381.906V381.645H644.437L644.958 379.557L646.784 375.839L650.044 376.883L651.348 375.318L650.044 373.426L648.74 374.796L648.088 372.904L651.348 369.969L654.608 369.708L656.564 371.078V368.664L659.172 368.143L659.824 369.186L662.432 365.729V363.903L661.128 360.968V358.098L659.172 357.25L659.824 355.423L659.172 353.858V350.923H660.476L663.736 348.248L665.692 347.726L666.996 348.509V350.662L669.604 351.966L668.3 353.271L666.996 354.38L664.388 358.098L663.736 361.489L665.692 362.076L666.344 363.903L668.952 364.946L670.908 367.36L671.56 365.729L673.516 365.207L674.168 363.903H676.124L678.08 365.729H678.732L679.384 368.143L680.688 368.664V367.36L686.556 365.207L687.208 364.946L688.512 363.381L691.12 362.598L695.032 361.489L695.684 363.903L696.988 364.425L700.248 363.903L700.9 360.968H704.812V359.141V353.858L704.16 352.488L704.812 349.031L705.464 347.726L706.768 344.269L709.376 343.487L711.984 345.9V347.726L713.288 348.248L715.896 346.683V342.443L716.548 340.03L713.288 338.986V337.682L712.636 333.964L714.592 332.92L715.896 331.811L721.764 330.507L725.024 331.811L727.632 332.333L728.936 331.811L732.848 328.093L731.544 324.701L727.632 324.44L721.112 325.745L719.156 326.789L711.984 329.463L710.028 325.745L708.724 325.223L705.464 323.853V322.027L706.116 319.092V315.113L704.812 313.808L705.464 312.504L704.812 310.351V308.003L705.464 307.22L706.116 304.807L708.724 304.285L710.028 300.828L711.984 299.524L714.592 295.284L715.896 294.175L716.548 291.827L719.808 291.044L719.156 288.892V286.543L714.592 283.869H713.288L711.332 284.652L708.724 283.347L707.42 287.065H706.116V289.935L704.812 291.044V293.392L706.116 294.762L704.16 297.11L703.508 299.524L701.552 300.828L698.944 301.872L697.64 303.763L695.032 306.112L693.728 309.569L692.424 310.351L691.12 318.048L690.468 321.505L691.12 323.332L693.728 323.853L695.684 327.049L696.988 328.68V329.985L695.032 331.811L690.468 332.333L695.032 334.224L690.468 337.682L689.164 338.986V345.378L688.512 347.726L686.556 353.271L684.6 353.858L681.992 353.271L681.34 354.901L680.688 358.098H676.776V356.206L674.168 352.488L676.124 350.923L674.168 348.509L672.864 345.378L671.56 343.748L672.212 340.551L670.256 338.986L669.604 335.268H670.908V334.224L666.996 333.442V334.746H665.04L659.824 341.139L657.868 341.399L655.26 341.139L650.696 338.203V334.746L649.392 331.55L650.044 329.985H651.348L650.696 327.049L649.392 325.745V324.44L648.74 319.092L650.696 312.504L652.652 310.873V309.047L655.26 308.525V306.633H658.52L661.128 304.807V302.915L665.04 301.35L666.344 297.11L667.648 295.284L670.908 293.653V291.305L674.168 288.892L674.82 286.282L674.168 285.174L676.124 280.934L678.08 279.89L676.776 276.172L680.688 273.237L682.644 267.432L683.948 265.605L688.512 262.409V257.909L691.12 257.126L692.424 253.669L693.728 253.147L694.38 250.473L696.988 249.429L698.292 247.016L700.9 246.494L701.552 248.059L704.812 247.016V242.776L707.42 241.21L711.984 242.254L715.244 238.014L716.548 235.079L719.808 234.557L721.112 235.601L718.504 239.319L719.808 241.21L723.72 235.079L724.372 235.601L723.72 240.428L725.024 239.841L726.98 234.035L728.936 233.253L731.544 235.601L734.804 236.971L738.716 239.841L739.368 241.732L734.152 245.189L734.804 246.494H738.716L741.324 248.059L742.628 245.189L746.54 248.385L747.192 251.255L754.364 251.777L756.32 252.886L762.84 257.909L768.708 263.714L773.924 266.649L774.576 274.607L771.968 278.586L765.448 281.456L760.232 279.368L754.364 278.586L752.408 276.694L747.192 275.65V276.955L753.06 282.825L751.756 288.631L753.06 291.827L752.408 294.175L755.016 295.284L757.624 298.415L761.536 300.045L763.492 298.154L762.188 295.284H760.232L757.624 291.305L760.232 288.631L763.492 291.305L768.708 293.653L771.968 291.827L769.36 287.065L770.012 285.174L772.62 282.304L775.228 281.456L777.836 277.477L781.748 278.064L784.356 281.456L786.312 276.172V273.824L783.052 270.889L784.356 267.171L785.008 258.952H788.268L790.876 259.474L793.484 262.67V265.605L788.92 266.649L787.616 269.845L789.572 271.932L790.876 274.607H794.788L796.744 273.237L798.048 267.432L801.308 266.649L807.176 261.887L818.26 255.234V257.909L819.564 262.409L823.476 259.474L828.692 257.909L830.648 258.952L832.604 256.017L836.516 254.712L839.124 257.909L843.688 255.495L840.428 248.385L843.688 245.972L852.164 248.059L854.12 249.429L859.988 253.669L864.552 256.017L868.464 260.779H869.768L871.724 256.017L869.768 254.712L867.812 250.734L863.9 247.016L865.856 236.971L863.248 236.449L863.9 231.361L867.16 228.491L869.768 225.034L871.724 214.989L873.68 213.097L880.2 212.576L884.764 214.989V219.751L882.156 227.969L884.764 236.188L884.112 240.428L883.46 241.732L884.112 245.972L883.46 252.886L884.112 256.017L887.372 259.474L886.068 262.409V265.605L884.112 267.954L883.46 270.367L880.2 276.694L876.94 277.477L874.332 274.607L871.724 276.694L876.288 279.107L882.808 279.368V277.477L887.372 274.607L888.676 270.367L891.284 267.171V262.67L889.98 260.779L890.632 257.648L896.5 254.712L900.412 259.474L901.064 263.192L903.02 261.887L901.064 256.017L897.804 253.147L893.892 252.299L891.284 253.669L887.372 252.886L888.024 249.951L887.372 247.537V243.298L889.98 239.319L887.372 231.687L885.416 229.796L887.372 225.556L891.936 221.838L893.892 214.728L894.544 220.272L892.588 225.556L893.24 230.317L897.152 232.209L899.76 230.839L896.5 227.447L895.848 224.512L899.108 222.621L901.064 225.034L901.716 220.794L904.976 218.968H907.584L915.408 226.599L919.32 225.556L919.972 229.796L917.364 231.361V234.035L920.624 235.601L919.972 241.21L922.58 239.841L920.624 231.687L922.58 227.447L919.32 224.512L917.364 220.272L914.104 219.49L912.148 217.076L912.8 212.315L911.496 204.618L914.756 204.096L921.276 203.574L933.012 200.639L931.708 193.464L932.36 190.333L936.272 186.876L940.836 180.223L957.136 174.157L956.484 172.004L963.004 170.178L968.22 173.635L976.044 167.243L977.348 165.416H980.608L983.216 163.525L981.912 159.285L983.216 155.893L990.388 147.414L994.3 146.827L1000.17 151.066L998.864 155.893L1004.73 157.459L1005.38 158.763ZM809.784 404.474L802.612 408.192L798.7 411.584H796.744L796.092 413.997L794.136 416.933L796.744 421.694V424.825L800.656 430.174L804.568 437.284L803.916 437.871L801.308 444.459V446.089V448.437L803.264 449.742L805.22 450.329L807.176 452.155L809.132 453.199L811.74 453.982L817.608 452.677L818.912 453.199V450.851L818.26 445.502L818.912 443.676L818.26 442.632L816.304 438.914L815 437.284L816.304 435.457L818.26 435.979L821.52 434.935L822.172 433.631L819.564 432L818.912 429.391H816.304L815 431.217L813.696 430.696V429.391L815 426.456L811.088 425.412L809.784 422.477L807.828 419.281L805.872 418.237V416.933H807.828L808.48 415.302L809.784 413.476L813.696 412.954L816.304 410.279L815.652 405.779L813.696 404.996L812.392 405.779L809.784 404.474ZM706.116 428.282L703.508 429.391L707.42 427.76L706.116 428.282ZM306.962 146.305L305.332 150.544L297.377 150.284L298.16 145.522L306.962 146.305ZM247.76 148.718L241.11 152.697L236.806 149.24V143.174L243.457 140.239H249.194L247.76 148.718ZM715.244 146.827L714.592 149.762L710.028 153.48L708.072 149.762L704.16 150.544L706.116 143.174L704.16 139.195L710.68 137.303L711.984 141.543L715.244 146.827ZM708.072 136.782L704.812 138.347L700.9 133.585L707.42 131.498L708.072 136.782ZM243 136.782L237.784 137.303L237.263 135.477L246.847 128.302L250.629 133.064L250.172 136.26L243 136.782ZM299.268 142.065L293.4 145L290.792 141.021L288.64 133.846V128.302L291.053 127.258L300.572 134.368L299.268 142.065ZM989.736 117.735L989.084 123.019L992.996 121.649L997.56 127.258V133.064L992.344 136.782L983.216 138.608L979.304 142.065L978 138.608L984.52 117.735H989.736ZM284.402 131.498L283.62 136.26L286.815 140.76L283.098 145L280.686 143.435L279.121 138.347L271.949 134.955L267.19 136.782L266.407 131.498L269.602 128.824L268.82 124.323L263.473 123.019L263.995 118.257L269.341 117.148L281.534 127.258L284.402 131.498ZM692.424 106.842L696.988 115.322V121.127L706.116 126.737L705.464 129.607L699.596 130.715L697.64 133.585V139.717L695.032 141.021V149.24L693.076 149.762L691.12 162.22L688.512 164.112L681.34 155.045L679.384 149.24L681.34 145.522V142.065L685.904 135.999L683.948 131.237L681.34 136.26L676.124 137.303L672.212 130.715L670.908 124.323L668.3 114.539L670.256 109.19L676.776 111.082L678.08 114.8L681.34 108.669L685.252 108.147L688.512 103.907L692.424 106.842ZM957.136 107.625L953.224 111.604L948.008 108.147V103.907L954.528 104.429L957.136 107.625ZM970.828 101.559L972.132 106.842L976.696 103.907L979.304 109.19L978 118.779L979.304 124.323L974.74 127.78L969.524 126.737L967.568 124.062L962.352 123.019L959.744 119.301V115.322L957.136 112.387L962.352 102.863L970.828 101.559ZM829.996 97.8408V102.863L824.78 102.602L826.084 98.1017L829.996 97.8408ZM726.328 102.863L725.676 108.147L720.46 112.387L721.764 114.539L713.288 120.605L710.028 116.365L703.508 116.887L696.336 110.56L694.38 106.842L695.032 101.559L706.768 101.037L708.724 104.951V97.8408L716.548 98.1017L720.46 101.037L726.328 102.863ZM800.004 88.3177L790.876 95.6883L788.268 91.4486L800.004 88.3177ZM848.252 88.5786L843.688 96.7972L837.82 93.3402L839.124 87.7306L846.296 86.1652L848.252 88.5786ZM802.612 101.037L798.7 102.081V98.1017L803.916 91.4486L802.612 88.3177L808.48 85.9042L811.088 89.6222L808.48 93.862L803.916 94.9056L802.612 101.037ZM855.424 89.6222L851.512 90.6658L848.904 87.2088L858.032 80.6208L858.684 85.3824L855.424 89.6222ZM333.172 112.387L335.519 119.301L330.76 122.497L324.957 133.064L316.481 138.608L310.091 137.825L307.483 133.846L302.984 124.062L305.853 121.127L310.091 120.083L307.483 116.887L304.549 118.779H299.79L293.922 102.863L298.16 96.7972L296.856 93.0792L299.79 83.4908L306.375 81.9254L310.091 78.7292L314.851 93.3402L326 96.2102L326.522 101.037L329.716 111.604L333.172 112.387ZM964.96 100.45L957.136 104.951L955.832 99.6672L949.312 99.1454L953.876 94.3838L953.224 88.5786L955.18 83.7517L961.048 81.1427L964.308 77.1638L967.568 84.8606L969.524 90.9267V100.189L964.96 100.45ZM474.33 54.9213V58.574L467.484 50.0945L464.811 43.7674L469.831 42.9847L476.742 50.0945L474.33 54.9213ZM393.547 34.7661L409.456 38.2231L411.868 45.3329L417.149 48.0072L418.453 53.2906L414.215 59.6829L406.522 67.0536L406 74.2286L395.959 85.3824L389.831 96.2102L384.549 102.081L383.767 109.19L376.595 114.017L371.835 119.562L370.792 131.237L367.858 139.195L359.904 145L358.861 151.653L355.144 154.002L356.448 158.763L359.904 158.241L360.165 162.481L350.385 170.178L348.233 164.634L343.213 166.982L337.932 165.938L334.476 168.352L326.782 166.46L320.719 165.938L319.415 159.872L326 152.175L324.435 144.478L327.304 143.174L330.76 145L332.65 150.284L336.888 152.958L334.476 145L331.281 140.76L326.522 139.195V134.368L329.716 127.258L336.106 126.476L337.41 124.323L336.888 116.365L333.694 110.56L329.716 109.19V98.6236L339.236 99.6672L350.385 95.4274L349.341 91.4486L344.582 93.3402L339.757 89.1004L337.41 94.3838L331.281 93.862L324.174 90.6658L320.197 87.2088L316.481 80.099L318.306 76.642L311.2 69.2061L316.481 62.8138L322.544 58.574H328.934L336.367 48.529L342.17 54.3342L345.103 42.9847L354.623 34.2442L358.861 37.6361L366.554 31.8308L374.509 35.2879L379.79 30.5263L393.547 34.7661ZM540.051 22.3077L545.333 36.0706L556.743 43.7674L553.026 51.4642L543.768 56.2258L534.77 55.1822L530.011 59.9438L543.507 60.4656L542.464 66.2708L546.702 67.0536L547.223 59.9438L553.287 58.0522L554.917 65.749L558.568 70.5106L565.74 71.5542L572.912 62.0311H579.497L589.082 70.5106L580.084 84.8606L572.912 90.144L574.738 93.862L568.153 108.669L564.436 109.19L562.024 115.322L562.806 121.649L558.047 130.715L554.33 146.305L557.786 142.065L561.502 146.305L560.198 149.762L562.806 152.175H567.37L568.153 158.241L567.37 160.655L562.024 158.241L557.786 159.872L555.699 163.003V165.938L562.545 170.7L563.393 182.636L559.677 183.68L558.568 188.442L560.981 190.855L564.436 193.203L562.806 195.877H560.981L560.198 193.529H555.699L553.809 198.03L558.568 200.639L559.155 205.922H555.699L553.809 208.858L549.571 207.031L547.745 204.618L542.985 205.922L540.573 209.379L544.289 211.271L546.115 218.968L553.026 224.512L553.287 229.274L555.439 231.361L556.221 237.492L553.287 240.428H550.092L546.702 236.449V233.253L544.811 230.839L542.464 230.317L541.877 232.209L539.008 234.557L534.249 235.079L532.879 240.949L537.639 239.841L539.53 242.776L541.877 240.949H544.289L549.049 243.559L550.679 245.972L548.267 249.429L539.008 257.909L529.424 260.779L528.641 262.409L522.839 263.714L519.644 263.192L515.145 268.475L514.884 270.889L512.798 273.237L512.472 275.65L510.125 279.368L507.191 279.89L501.388 283.869L498.193 282.304V285.174L492.39 285.695L492.912 288.631L489.978 293.392L488.935 301.35L485.74 307.742H483.393L484.175 313.808L481.763 319.614V324.44L480.98 327.571L477.525 326.789L475.699 328.093L473.808 326.789L470.939 322.027L466.115 321.505L461.877 319.614L457.899 313.808L456.074 308.525L453.14 304.807L451.836 300.828L452.357 297.11L450.01 295.284V288.631L446.033 283.869L445.185 279.368L446.033 276.172L444.142 270.889L445.772 267.171L446.033 262.409H448.38L449.423 258.952L453.14 258.43V253.147L454.248 247.537L452.879 244.146L450.532 244.667L446.033 241.21L443.36 240.949L441.273 238.014L443.36 236.188L448.38 237.492L450.793 239.841L455.291 241.21L452.879 236.188L450.532 234.035L447.598 228.491L443.621 226.599L443.36 229.274L440.426 230.317L436.449 227.447L437.557 222.621L439.904 220.794L439.383 217.859L440.947 213.619L438.079 210.749L438.6 207.031L436.188 203.574L435.145 198.813V193.203L432.732 189.811V187.398L429.863 187.92L429.342 184.463L427.973 183.68L428.494 179.179L425.625 175.983L423.213 173.113L419.497 170.178H408.934L406.522 169.395L405.218 171.743L402.805 172.004L402.284 169.656L400.719 168.352L398.828 173.113L393.286 171.222L388.787 167.243L391.2 164.112L385.071 160.655L382.724 157.459L384.028 154.523L389.831 154.002L392.765 152.175H398.307L397.524 146.827L395.959 149.24L390.352 150.544L386.375 148.718L385.071 145L380.833 143.435L377.377 138.608L378.486 132.542L389.309 127.258L390.939 124.323L395.959 121.649H399.937L405.218 114.539V103.385H398.046L395.959 98.1017L398.828 93.3402L404.175 88.5786L405.479 83.7517L411.868 78.7292L416.628 81.9254L418.975 80.099L419.497 72.924L417.932 64.7054L426.929 57.5304L441.273 50.9424L447.076 63.4008L459.008 62.0311L454.77 55.704L453.14 47.2245H458.486L465.593 55.704L474.591 60.4656L475.699 53.8124L478.568 51.4642L469.57 31.8308L480.459 25.7647L484.697 27.0692L489.456 33.6572L494.737 34.2442L496.107 20.4161L517.557 14.6108L527.077 16.1763L540.051 22.3077Z" fill="#DFDFDF"/>
</svg>
