<svg width="985" height="621" viewBox="0 0 985 621" fill="none" xmlns="http://www.w3.org/2000/svg">
<path opacity="0.5" fill-rule="evenodd" clip-rule="evenodd" d="M293.294 618.998L294.295 621H290.64L289.639 618.998H293.294ZM296.147 618.998L296.548 621H294.295L293.894 618.998H296.147ZM378.104 614.993L380.357 616.996H377.504L378.104 614.993ZM283.331 612.991H280.476H280.076H281.879H283.331ZM673.591 610.989H672.59L673.091 608.487L673.591 610.989ZM290.64 606.484L291.441 608.487H292.893H293.694L295.146 612.991L296.147 614.993L299.201 616.996H300.202L298.801 618.998H297.549L292.893 616.996L291.441 618.998H290.04H288.387L284.732 616.996L286.985 614.993H288.187L288.838 612.991H290.64V610.989H288.187L288.838 608.487L290.64 606.484ZM317.475 602.479L315.873 604.481H314.872L315.873 602.479H317.475ZM318.526 606.484H317.725H316.674L318.526 602.479H321.38L321.781 604.481L318.526 606.484ZM661.075 592.468H662.076L662.577 594.47L664.079 592.468H665.08L664.579 594.47H663.077V596.973L661.075 594.47H660.574L660.073 592.468H661.075ZM276.822 592.468L277.222 596.973H275.37V594.47L276.822 592.468ZM279.676 570.443H279.276H277.423H277.823V566.439H279.276L280.076 568.441H279.075L279.676 570.443ZM864.843 561.934H866.847H870.349H872.852V566.439L871.347 570.443H869.849L869.35 572.446H866.34L864.843 568.441L864.344 566.439L862.839 561.934H864.843ZM937.438 561.934L938.935 564.437L940.939 561.934L942.444 566.439L939.442 570.443H938.436V572.446L934.435 574.448L933.929 576.45L932.431 580.454L929.928 582.457L927.924 584.459L926.419 582.457H921.919L920.913 580.454L923.416 576.45L926.419 574.448L929.928 572.446L933.929 568.441L934.435 566.439L935.434 564.437L936.432 561.934H937.438ZM943.443 547.918H944.948H946.445V551.923H949.954L951.958 549.92L952.957 551.923V553.925L951.958 555.927H949.954L948.948 559.931L946.952 561.934L944.948 564.437H943.443L944.948 559.931L944.449 557.929H940.939V555.927H942.944L943.942 551.923L942.944 547.918L941.438 545.915L938.935 543.913L939.941 541.911L942.444 543.913L943.443 545.915V547.918ZM923.916 499.863V500.365H922.917L923.416 499.363L923.916 499.863ZM625.528 500.365L625.028 500.865L624.026 500.365V499.863L624.527 499.363L625.028 499.863L625.528 500.365ZM922.418 502.867V503.869L920.913 502.867L919.416 501.866L918.41 501.365L917.412 500.365H916.913L915.907 499.363L915.407 498.362V497.861H915.907L917.412 498.863L917.911 499.363L918.909 500.365L919.915 500.865L921.919 502.367L922.418 502.867ZM630.535 498.362H630.034H629.534L630.034 496.861H630.535V497.361V498.362ZM22.3241 494.357H21.9587L22.3241 493.857V494.357ZM928.423 493.357L928.922 493.857H927.924L928.423 493.357ZM76.8604 489.852L77.6114 490.853L76.5103 490.353L76.8604 489.852ZM926.926 490.353H926.419H925.92L926.419 489.852L926.926 490.353ZM952.457 491.855H951.958H950.453L949.954 490.853L950.952 490.353V489.852L951.452 489.352H952.457L953.955 490.353V491.354V491.855H952.457ZM956.458 486.849L955.46 487.85H954.462H953.955L954.961 486.849H955.959L956.458 486.348H957.464L956.458 486.849ZM924.921 486.348L923.916 487.35V485.848L924.921 486.348ZM922.418 482.594V483.245H922.917L923.416 484.346L922.418 484.847L921.919 484.046V483.646L921.412 482.594H922.418ZM20.1263 480.993H19.7608L20.1263 480.792V480.993ZM0 480.792L0.365433 480.993H0V480.792ZM16.832 479.591L17.9284 480.392L16.832 479.991V479.591ZM16.0961 478.94V479.591H14.9996V478.94L15.7305 478.54L16.0961 478.94ZM611.009 482.844L611.51 483.245L611.009 484.346L610.509 485.347L610.008 484.847L609.507 484.046L609.007 484.346L609.507 486.348V487.35L609.007 488.351L608.506 489.352V490.353L608.005 491.855L607.004 495.859L606.503 496.861V497.861L605.502 500.365L605.001 501.866L604.501 503.869L604 505.37L603.499 507.873L602.999 509.375L602.498 511.377L600.996 511.877H599.995H598.994L597.992 512.878H596.991L595.99 511.877L593.987 511.377V510.375L592.986 509.375L592.485 505.871V504.869L591.984 503.367V501.866L592.485 501.365V500.365H593.486L593.987 499.363L595.489 496.861L594.988 495.859L595.489 495.359L594.488 494.357V493.857L593.987 492.355V490.353V489.352L594.988 487.85L595.489 486.849V486.348H596.49L596.991 485.347H597.992L598.994 484.847H599.995L600.495 484.346L602.498 483.245V482.594L603.499 482.844L604 481.793V480.792H604.501V479.591V478.94H605.502L606.503 478.54L607.004 476.737L606.503 475.886L608.005 475.286L609.007 475.486V476.287L609.507 476.737L610.008 479.14L610.509 480.993V481.793L611.009 482.844ZM592.485 473.684V474.485L591.984 474.084V473.034H592.485V473.684ZM859.836 479.591L860.835 480.993L862.839 480.792L864.843 482.594L865.342 486.849L866.847 490.353L866.34 491.855L867.346 493.357L870.848 496.359L873.85 497.361V499.363L875.355 500.365L876.353 503.869L879.363 504.869L879.863 506.871L881.36 508.373L883.863 510.876L885.368 513.88L885.867 518.885L886.873 520.888L885.867 529.397L884.37 533.902L881.867 535.904L879.863 539.909L878.857 541.911L877.359 545.915V547.918V549.92L875.854 551.923H872.852H870.349L868.844 553.925L866.34 555.927L864.344 553.925L863.837 551.923L859.836 555.927L857.333 553.925H854.83L851.827 551.923L849.823 549.92V547.918L848.318 543.913H846.821L846.314 541.911L845.815 539.909L843.811 541.911L844.318 537.907H844.817L844.318 535.904L842.813 537.907L840.808 539.909L839.311 541.911H837.806V539.909L835.303 535.904L834.804 533.902L830.795 531.9L829.797 533.902L826.795 531.9H821.281L816.782 533.902H813.272L807.767 535.904L806.262 539.909L802.261 537.907L796.755 539.909H794.751H794.252L791.749 541.911H787.741L785.237 539.909H783.732V537.907H785.736V531.9L783.732 527.896V524.892L781.736 520.888L781.229 518.885L780.231 516.382L781.229 515.882V513.379L779.232 509.375L780.231 506.871V504.369L782.235 503.869L782.734 502.367L784.738 501.365L788.24 498.863L790.244 499.363L799.758 495.859L801.255 494.357L801.762 492.856L803.259 491.855L802.76 489.352L804.265 487.85H806.768L808.765 484.847L811.775 480.993L814.777 480.792L815.776 479.14L818.279 481.793L822.786 482.844L822.287 480.993L823.285 478.94L824.291 478.139L824.791 476.287L826.795 475.486H829.298L830.795 474.886L831.294 473.484L836.808 474.485L841.307 475.286V477.739L839.311 478.94V480.392L838.305 482.594L842.313 485.347L844.318 486.348L845.815 487.85H847.819L848.817 489.352L850.322 490.353L852.826 489.852L854.331 485.848L854.83 482.844L854.331 479.591L855.329 478.139L854.83 475.886L855.329 474.886L856.327 471.832H857.832L858.331 474.084L859.337 474.485L859.836 477.138V479.591ZM909.902 471.231H908.896L907.898 470.431V469.78L908.896 470.431H909.902V471.231ZM798.752 469.78H797.254L795.749 468.578H794.751L795.25 467.577L796.755 467.177L799.259 468.979L798.752 469.78ZM902.891 467.177L903.889 467.577H904.895L905.894 467.978L906.393 468.578L905.894 468.979L904.895 468.578H903.39L902.891 467.978V467.177ZM808.765 469.78L807.268 470.03H806.262L806.768 468.178L807.767 467.577L809.272 467.177L810.27 466.326L810.769 465.325L812.773 464.924H814.777L814.278 466.326L811.268 467.177L810.769 467.577L808.765 469.78ZM955.46 464.924V465.325L954.961 464.924H955.46ZM907.399 466.776V467.577L906.393 466.776L905.894 464.924V464.524L906.393 465.325V466.126L907.399 466.776ZM801.255 465.325L799.758 466.326L796.755 465.725L797.754 464.524H799.758L801.255 465.325ZM787.741 465.725L786.235 466.126L786.742 464.924L787.241 464.324L788.24 464.924L787.741 465.725ZM794.751 465.325L789.246 466.776L788.739 465.325L789.745 464.524L791.242 465.725L792.248 464.324L794.751 464.524V465.325ZM810.769 464.524L808.765 464.924L809.272 464.324L810.769 464.524ZM785.237 464.924L784.239 465.725L782.734 464.924L784.239 463.923L785.237 464.924ZM898.384 464.924L897.885 465.325L897.385 464.524L896.38 464.324L896.886 463.923H897.885L898.384 464.924ZM903.39 464.524V465.325L901.386 463.923L900.388 463.072L900.887 462.671L901.893 463.522L902.392 463.923L903.39 464.524ZM846.314 464.524L844.318 464.924L845.316 462.671L847.819 462.071V462.671V463.923L846.314 464.524ZM670.087 462.071V462.472L669.586 462.071H670.087ZM896.38 461.27L897.385 462.472L895.88 461.671L895.381 460.869L894.383 460.269L894.882 459.819L896.38 460.869V461.27ZM759.705 458.016L761.709 458.817L763.207 458.417L764.213 459.018H765.71L766.716 460.669L771.216 460.869L772.721 459.418L773.719 460.269H774.226L776.222 460.869H777.228L778.227 462.671L779.232 463.072L781.229 462.671L782.235 463.522V465.325H780.231L779.232 464.524L777.228 464.924L775.224 464.524L772.222 464.324L770.717 463.522L768.713 462.671L766.209 463.072L763.706 462.472L761.203 462.071V461.27L759.705 460.669L759.203 459.418L759.705 458.016ZM892.878 459.418L892.379 460.669L891.373 460.269V459.018L889.876 458.417L890.874 457.216L891.88 458.417L892.878 459.418ZM882.366 456.164V457.216L878.857 459.018H876.353L872.852 457.616V457.016L875.355 457.216L878.357 457.016H879.863L880.362 455.764L881.867 455.363L881.36 453.512L883.364 453.962L883.863 455.163L882.366 456.164ZM625.528 455.163H624.527L624.026 453.962L624.527 453.512L625.528 455.163ZM885.867 453.512L884.37 454.363L883.863 452.51L885.867 453.512ZM816.275 451.71L815.277 452.51L813.272 451.509V450.708L815.277 450.258L816.275 451.109V451.71ZM822.786 449.657L825.789 450.708L826.288 451.71L825.789 452.51L823.785 451.509H821.281H819.784L818.778 449.857L821.788 450.258L822.786 449.657ZM765.71 449.857L765.211 451.109H764.213V449.257L765.71 449.857ZM761.709 449.657L761.203 450.258L759.203 449.657L758.703 448.055H757.701V446.604H759.705L760.204 448.456L761.709 449.657ZM670.587 446.604H670.087L670.587 446.203V446.604ZM740.679 444.801L741.68 447.004L740.679 446.604L740.178 445.602L740.679 444.801ZM673.091 444.201L672.59 444.401V444.201H673.091ZM235.117 443.751L234.717 444.401L234.316 444.201L234.717 443.751H235.117ZM832.3 443.751L832.799 444.201H834.304L835.303 446.003L834.804 446.604L835.303 448.456L836.301 449.257L836.808 450.258L837.307 451.509H838.305L840.808 449.257V448.055L842.313 448.456L842.813 447.004L844.318 446.203L846.821 447.004L849.823 448.456H850.821L853.325 449.257L858.83 451.509H859.836L861.334 452.51H862.839L863.837 453.962L865.841 455.163V457.016L867.845 457.216L869.35 458.417H870.349L871.854 460.269H869.35L870.349 462.472L871.854 463.923L872.353 465.325L877.359 469.379V470.431L874.856 469.78H871.854L870.848 468.979L870.349 467.978L867.346 464.924L866.847 463.923L862.839 462.671L861.841 463.072L859.337 465.325L859.836 466.326L857.333 467.577L856.327 466.776L854.331 467.177L853.325 466.776L850.322 464.324H847.819V463.522V462.472L847.32 461.671L847.819 460.669L846.314 459.018L845.316 457.016L843.312 455.764L842.313 455.363L839.311 454.363H837.806L835.303 452.911L833.299 451.71L832.3 453.311H831.294L831.801 451.71L830.795 450.708L831.294 449.857L832.3 448.856L829.298 447.855L828.791 447.004L828.292 446.203L826.288 446.003L827.294 444.401L828.791 444.201L830.296 443.35L832.3 443.751ZM671.589 442.95H671.088V442.549L671.589 442.95ZM344.961 442.549L347.014 442.95L346.813 444.401L345.562 446.203L341.306 447.004L340.505 446.203V444.201L341.306 442.549L343.309 442.95L344.961 442.549ZM233.265 444.801L231.663 445.202V444.401L232.464 443.751L232.063 442.95L231.663 442.349H231.463L232.063 441.948L232.464 442.349V442.95L233.265 443.35L233.466 444.201L233.265 444.801ZM4.7662 441.548V441.948H4.4007L4.7662 441.548ZM494.357 441.548L493.856 442.349L493.355 441.948L493.856 441.148L494.357 441.548ZM674.092 440.497L673.591 440.697L673.091 440.497L673.591 440.096L674.092 440.497ZM754.197 438.695L753.696 438.895H753.195V438.695H753.696H754.197ZM810.27 439.696L808.765 441.148L806.768 441.548L805.263 441.148L801.762 440.697L799.758 441.148L798.752 440.697L797.254 441.948L796.755 442.95L797.754 444.801L798.752 446.003L799.758 446.203L801.255 444.801H802.76V444.401H804.764L803.758 446.203L802.261 446.604L801.255 448.055L802.261 448.456L803.758 450.708L803.259 452.11L804.265 452.51V453.962L802.76 454.363L802.261 455.363L801.255 454.763V453.311L799.758 451.71V449.657L798.752 449.257L797.754 450.258L798.253 451.109V454.763L797.754 457.016L796.755 457.616L795.25 457.016L795.749 454.363V452.911L795.25 451.509L794.252 451.71V449.657L795.25 447.454V446.003L796.249 444.401L796.755 440.497L798.752 440.096L799.259 438.695L804.265 439.696L807.268 440.096L808.765 439.696L810.27 437.894L810.769 438.294L810.27 439.696ZM818.778 438.294L817.281 439.696L818.778 438.895V440.497L820.283 441.548L817.281 440.697L816.782 438.895L817.281 437.443L818.778 438.294ZM55.9832 437.443V437.894L55.2823 437.443H55.6327H55.9832ZM671.088 436.842L670.587 437.043V436.842H671.088ZM671.589 434.64V435.041H671.088V434.64H671.589ZM673.091 432.388V432.788H672.59V432.388H673.091ZM500.365 432.788L499.363 433.789L498.863 433.389L499.363 432.388H500.365V432.788ZM732.668 427.933L734.671 428.333H737.174L738.176 429.134L739.177 431.386L741.68 432.788L744.183 435.041L744.684 436.042H745.685L747.187 437.443L749.19 438.695V439.696L752.695 440.697L753.195 441.548L752.695 444.201L753.195 444.801L755.198 445.202L755.699 447.454L756.7 448.456L758.703 448.856L759.705 451.109V452.51L758.703 458.016L757.701 457.016L755.699 458.016L753.195 455.363H752.695L749.691 452.911V452.11L747.688 451.109L745.685 448.055V447.454L744.684 444.401L743.182 442.95L742.682 442.349L741.18 441.548L740.178 438.294L739.678 437.043L737.174 436.042V434.64L735.172 432.388H734.671L731.667 429.735L730.666 427.683L731.667 427.282L732.668 427.933ZM794.751 428.733L792.248 429.534L793.246 430.536L790.743 431.386L791.242 432.788H789.745L790.743 435.041L791.749 436.042L791.242 437.443L793.246 438.695L794.252 440.096H792.248L791.242 440.497L790.244 441.948V443.751L789.246 445.602L787.741 446.203V449.257L786.235 451.509L785.736 452.11L782.734 453.311L782.235 451.71L780.231 451.509L778.726 450.258L777.228 451.509H775.224V450.258H771.216L770.717 448.456V446.003L768.713 444.401L767.714 442.95L767.215 440.096L767.714 438.294L769.718 436.842L770.218 437.894L773.22 438.294L773.719 435.641L774.725 434.64L778.227 433.789L780.73 430.936L781.229 430.135H781.736H782.235V429.735L782.734 429.534L783.732 429.134H784.239L785.237 428.333L786.742 425.88L787.741 425.079L789.745 424.629L790.743 425.079L791.242 426.481L793.246 426.881L794.751 428.733ZM899.39 423.628L898.883 424.028V423.628H899.39ZM672.59 424.028L672.089 424.629V424.228V423.628L672.59 424.028ZM836.301 422.226L835.802 422.427V421.826L836.301 422.226ZM693.617 425.88L691.615 426.481L690.613 426.08L689.612 424.028V420.374L690.613 416.92L691.114 416.319L692.616 417.321L693.617 419.573L695.119 422.427L694.619 424.228L693.617 425.88ZM813.771 418.121L814.278 420.975L814.777 422.827L813.272 424.028L811.775 422.827V424.028L812.274 426.08L811.775 427.282L810.769 426.481L808.765 425.88L807.767 425.079V423.628L808.266 422.427L807.767 421.826L806.262 421.375V422.427L805.263 421.375L804.265 422.226V421.375L802.76 423.628L802.261 423.227L803.259 420.574L805.263 420.374L806.262 418.772L808.266 420.374L809.771 418.121L810.769 418.572L811.775 418.121V416.319L813.771 418.121ZM809.272 415.118L808.765 416.72L807.268 416.319L808.266 415.118H809.272ZM807.767 414.468L806.262 415.118L807.268 413.266L807.767 414.468ZM796.249 414.067L794.751 415.118H794.252L795.749 413.266L796.249 414.067ZM313.42 413.266L313.019 413.666V414.067V414.468H313.42V415.118H313.019H312.619H312.218H312.018H311.217L311.618 414.867H312.018V413.666H311.618V413.266H312.018H312.218H312.619H313.019V413.066H313.42V413.266ZM805.763 417.321L805.263 418.121L804.265 416.92L803.758 415.518L804.764 415.118L805.263 413.066L806.262 413.266L805.263 415.518L805.763 417.321ZM302.055 413.066H301.655V412.665L302.055 413.066ZM305.71 412.665L305.31 413.066H304.909H304.708H304.258V412.665H304.708H304.909H305.31V412.265H305.71V412.665ZM313.821 412.265V411.865H314.02H314.471L314.02 412.265H313.821ZM810.769 413.266V414.067L809.771 413.666L808.765 412.265L810.27 411.414L810.769 413.266ZM804.265 413.266L802.261 414.067V410.813L805.263 412.265L804.265 413.266ZM311.217 410.012V409.612L311.618 409.412V409.612V410.012H311.217ZM293.894 409.412V409.612V410.012L293.694 409.612V409.412H293.894ZM291.892 409.412H291.441L291.892 409.011V409.412ZM811.775 411.214L812.274 412.665L811.268 412.265L810.769 410.813L808.765 409.412L808.266 408.611H810.769L811.775 409.412V411.214ZM289.639 408.611V409.011L288.838 408.611L289.238 408.16L289.639 408.611ZM620.021 408.16H621.022L621.523 408.611L621.022 409.011L620.021 409.412L619.02 408.611V408.16H620.021ZM317.475 407.159H317.075L316.674 406.759V406.358H317.075V406.759H317.475V407.159ZM313.019 406.759H312.619V406.358V405.958L313.019 406.358V406.759ZM863.338 405.958V406.759L862.839 405.958H863.338ZM801.255 408.16L799.758 409.011L798.253 405.758H799.758L801.255 406.759V408.16ZM313.42 405.357H313.019V404.906V404.506L313.42 404.106V404.506V404.906V405.357ZM313.821 403.105V403.505L313.42 403.105H313.019L312.619 402.704V402.303V402.053H313.019V402.303H313.42V402.704L313.821 403.105ZM865.841 401.253V400.852H866.34L865.841 401.253ZM413.701 401.653L413.301 402.053L412.7 401.653L412.9 400.852L413.701 401.653ZM312.619 401.253H312.218V400.852L312.018 400.452V400.251H312.218H312.619V400.452V400.852V401.253ZM312.619 399.45H312.218V399.05H312.619V399.45ZM312.619 397.999V398.4H312.018H311.618L312.018 398.6H311.618V399.05L311.217 398.6V398.4V397.999H311.618V398.4H312.018V397.999V397.598H312.218V397.999H312.619ZM311.618 396.197H311.217H310.766V395.796H311.217H311.618V396.197ZM409.245 396.197L408.644 396.597V395.796H409.245V396.197ZM308.964 395.346V395.796L308.564 395.346H308.363V394.945H308.564V395.346H308.964ZM311.217 394.345V394.745H310.766V394.345H311.217ZM303.057 393.944H303.457V394.345H303.057H302.856V393.944H303.057ZM301.204 393.143H301.003L301.204 392.943H301.655V393.143H301.204ZM308.363 393.143H307.963V392.943H308.363V393.143ZM307.512 392.943L307.963 392.543V392.943H307.512ZM297.349 392.092H297.549H297.949H298.4H298.801H299.402H299.802H300.202H300.603L301.003 392.543V392.943H300.603L300.202 393.143V393.544H299.402H299.201H298.801H298.4H297.949H297.549H297.349H296.948H296.548V393.143L296.948 392.943L296.548 392.543L296.948 392.092V391.691L297.349 392.092ZM272.316 392.943L271.915 393.944L271.315 393.544H270.914H270.113L269.913 394.345L269.513 393.944H268.661L267.66 392.943H266.859L267.26 392.092L268.261 391.691L270.914 392.543L272.316 392.943ZM801.762 404.106L802.76 404.506L803.758 403.505L804.764 403.906L805.263 405.357L806.262 404.506L807.268 406.759L808.266 407.159L807.767 408.611L806.262 407.159L805.763 405.958L804.265 404.506L802.76 405.357L801.762 404.506L800.756 405.758L798.752 404.506V403.906L799.758 403.105L797.254 402.303L796.755 399.45L798.253 398.4V397.198V396.197V394.345L798.752 392.092L800.257 391.691L802.261 392.543L803.259 394.945L804.265 395.796L803.259 397.198L800.756 400.852L801.762 404.106ZM259.55 389.489L259.099 389.89L258.898 389.489H259.55ZM281.879 387.637L284.532 388.438L286.585 388.038L288.387 388.838H289.639L290.04 389.89L291.441 389.489L293.694 391.291L293.294 392.543L289.639 392.092L287.787 392.943H286.385L285.133 394.345L284.532 393.143L283.731 392.943H281.478L280.076 392.543L278.624 392.943L277.423 392.543L277.823 391.291L279.276 392.092H281.879L282.329 391.091L281.478 390.691L281.879 389.289L280.076 388.838L281.879 387.637ZM771.723 391.091L769.718 392.943L767.215 392.092L766.716 389.89L768.713 388.038L772.222 387.437L773.22 388.838L772.222 389.489L771.723 391.091ZM61.1399 389.89L60.0385 390.691L59.688 390.29V389.489L59.2875 388.438L59.688 387.637V387.036L61.4904 387.637L61.8909 388.838L62.5918 389.289L61.8909 389.489L61.1399 389.89ZM58.9371 385.785H58.1861L57.8356 385.185H58.5866L59.2875 385.584L58.9371 385.785ZM281.078 384.383L280.877 384.784L280.476 385.185H280.076H279.676H279.276V384.784V384.383H279.676H280.076H280.476H280.877V383.983H281.078V384.383ZM54.1808 382.982L54.5313 383.983H53.8304L53.0794 383.382L54.1808 382.982ZM284.132 382.131V382.532L283.731 382.131H284.132ZM50.5261 381.53L50.1255 382.131H49.4246V381.53L50.1255 381.13L50.5261 381.53ZM281.478 380.729L281.879 381.13H281.478L281.078 380.729V381.13H280.877V380.729H281.078H281.478ZM279.075 380.129V380.329V380.729L278.624 381.13H278.224L277.823 381.53V381.13L278.224 380.729H278.624L279.075 380.329H278.624L278.224 380.129H278.624H279.075ZM278.224 380.129H277.823L277.423 379.728H277.823L278.224 380.129ZM262.553 379.278L264.406 380.729H265.808L269.062 382.532L269.913 383.382L273.768 384.383L274.569 385.584L275.62 385.785L277.222 386.636L277.423 387.437L275.62 388.038L272.316 387.637L270.514 388.038L268.661 387.637L270.113 386.235L269.513 385.584L267.66 385.785L266.458 384.784L265.808 382.982L264.606 383.382L262.553 382.982L260.951 381.931L257.697 381.53L257.297 380.129H255.445L253.442 381.53H251.789L250.387 382.532L250.788 381.13L251.589 380.129L253.642 378.877L256.295 378.477L260.751 378.877L262.553 379.278ZM276.421 379.728H276.021V379.278V378.877H275.62V378.477V378.276H275.37V377.876H274.969V377.075L275.62 378.276V378.477V378.877H276.021L276.421 379.728ZM273.768 377.476L273.568 377.876V377.476H273.167V377.075H273.568L273.768 377.476ZM277.222 376.024V375.623L277.423 376.024H277.222ZM268.261 375.623V376.024H268.661V375.623H269.062V376.024V376.474V376.675L268.661 377.075H268.261V376.675V376.474L268.061 376.024L268.261 375.623L268.661 375.223V375.623H268.261ZM274.969 375.623H274.569V375.223L274.168 374.823V374.623H273.768V374.222H274.168V374.623L274.569 374.823V375.223L274.969 375.623ZM269.513 372.97L269.062 373.421V372.97H269.513ZM268.261 374.222V374.623L268.661 374.823H268.261H268.061L267.66 375.223V374.823H267.26L266.859 374.623H266.458L266.859 374.222V374.623H267.26V374.222H266.859V373.821H267.26V373.421V372.97V372.77H267.66H268.061V373.421V373.821H268.261V374.222ZM801.255 378.276L799.758 381.13L798.253 380.329L797.254 378.477V377.476L799.758 372.97L801.255 372.37L802.261 373.821L801.255 378.276ZM271.715 371.97L271.915 372.37H272.316L272.767 372.77V372.97V373.821V374.222H272.316V373.821H272.767V372.97V372.77H272.316V372.37H271.915H271.715V371.97ZM612.011 370.568H611.009V369.717H611.51L612.011 370.568ZM268.061 367.915V368.315H267.66H267.26H266.859L266.259 368.716H265.808H265.407L265.007 368.315H265.407L265.808 368.716L266.259 368.315L266.458 367.915L266.859 368.315H267.26H267.66L268.061 367.915ZM269.062 367.514L269.513 367.915L269.913 368.315L270.113 368.716L270.514 369.116L270.113 369.317L269.913 369.717V370.168V370.568L269.513 370.168H269.913V369.717V369.116L270.113 368.716H269.913L269.513 368.315L269.062 367.915V367.514ZM428.37 365.061V365.462L427.569 365.061H427.97H428.37ZM434.879 365.061H434.678L434.278 364.662H433.877L434.278 364.261V363.86H434.879L435.279 364.261V364.662L434.879 365.061ZM430.623 364.261H430.172L429.772 363.86H430.172V363.66L430.623 363.86V364.261ZM432.826 362.809V363.21L432.425 363.86L432.025 364.261H431.624L431.224 363.66V363.21H431.624H432.425V362.809L432.826 362.408H433.026V362.809H432.826ZM438.333 363.86L437.932 364.261V363.86L438.333 363.66V363.21L438.534 362.809V362.408L438.934 362.008H439.335V362.408V363.21L438.934 363.66L438.333 363.86ZM428.771 362.809L428.37 362.008V361.808H428.771L429.171 362.008L428.771 362.408V362.809ZM176.491 361.007L176.091 362.008L175.39 361.808L175.74 360.607L176.491 361.007ZM439.735 361.808H439.335V361.408L439.735 361.007H440.135L440.386 360.607V361.408H440.135L439.735 361.808ZM303.057 351.246V350.846H303.457L303.057 351.246ZM430.172 349.394H430.623H431.224L431.624 349.594L431.224 349.995H431.024L430.623 349.594H430.172V349.394ZM829.298 348.993L828.292 350.395L827.294 354.1L826.288 354.9L825.789 353.249L824.291 351.846L825.29 350.846V349.394L822.786 349.995V348.193L825.789 345.74L826.795 346.741L828.292 347.141L829.298 348.993ZM834.804 344.138L836.808 345.94L832.3 347.792L830.795 349.594V347.792L831.294 345.34L833.299 345.74L834.804 344.138ZM565.45 343.487H563.948L562.446 342.286L564.448 341.285L566.952 340.885L565.95 343.087L565.45 343.487ZM544.923 342.086L542.42 342.286L541.418 341.685H539.416V340.434H540.918V341.285H544.923V342.086ZM409.245 335.778V336.179L409.045 335.778H409.245ZM407.392 332.925H408.244H408.644H409.045V333.125H408.244H407.392L407.193 332.925H407.392ZM517.888 331.324L516.886 334.778L517.387 335.778L516.886 336.78L514.884 336.179L509.376 333.125L510.378 331.724H511.379L512.881 332.525L516.886 332.125L517.888 331.324ZM401.285 331.123H400.884H400.484H400.083V330.673H400.484H400.884L401.285 331.123ZM399.883 330.272V330.673H399.483L399.082 330.272H399.483H399.883ZM480.438 329.872L480.038 330.272V329.872H480.438ZM401.936 330.673L400.884 330.272L400.484 329.872L401.936 330.673ZM403.738 330.272L403.137 329.872L403.538 329.472L403.738 329.872H404.138L403.738 330.272ZM480.038 329.472L479.637 329.271V328.871H480.038L480.438 328.47L480.639 328.871L480.038 329.472ZM393.174 327.619H392.774V327.419V327.019L393.174 327.419V327.619ZM484.694 326.218H485.095H485.545V326.618V327.019H485.095V327.619L484.294 328.07V327.619H483.692V327.019H483.292H482.491L483.692 325.817H484.294L484.694 326.218ZM487.748 325.617V325.817V326.218L486.947 325.817H486.547V325.617V325.216H487.348L487.748 325.617ZM852.826 339.833L851.827 341.685L849.823 342.286L849.324 341.285L848.318 342.086H846.821L845.815 343.888L843.312 343.487L840.808 345.34L839.311 347.592L837.307 345.94V344.939L838.305 343.888L836.301 343.087L834.304 344.138L832.3 344.538L829.797 344.939L827.294 345.74L826.288 344.538L828.292 343.487L831.294 340.885H832.799L836.808 340.234L838.305 340.885L841.814 336.78L846.314 334.978L847.819 333.125L848.817 331.724L850.821 327.019L849.823 323.365L852.327 321.563L854.331 322.964L855.329 324.366L855.828 327.019L854.83 328.871L854.331 331.123L853.325 331.324V335.778L852.327 337.18V338.632L852.826 339.833ZM501.867 328.47L499.363 329.271L498.362 328.07L498.863 324.366L497.861 322.964L499.864 322.164L500.865 321.112L501.867 321.563L502.367 323.765V325.617L501.867 328.47ZM501.867 317.858L500.865 320.712L499.864 320.111L499.363 318.509V317.057L500.865 315.656L501.366 316.057L501.867 317.858ZM864.843 313.804L863.837 314.805L860.835 315.255L859.836 317.458L859.337 318.509L855.329 316.457H854.331L853.325 317.458L851.827 316.457L851.321 317.458L853.325 318.509L850.322 320.111L850.821 318.509L849.823 317.458V316.057L852.826 314.204H853.824L854.331 312.402L854.83 310.951L855.329 308.298L854.83 306.495L855.828 305.495L858.83 309.148L860.835 310.951L862.34 311.151H863.338L864.843 313.804ZM314.471 305.044H312.218L312.018 303.642L314.471 302.04V305.044ZM325.836 299.588V299.988V300.189V300.589H325.436V300.189H325.836V299.988L325.436 299.588V299.187H325.836V299.588ZM469.674 290.027H469.474V289.627L469.674 290.027ZM310.766 290.427L310.166 291.429L306.511 290.027V288.175L310.766 290.427ZM144.999 290.828L146.101 294.482L140.944 291.829L138.041 290.027L133.635 285.522L133.985 283.72L140.944 286.373L142.797 289.627L144.999 290.828ZM326.236 287.174L327.288 289.627H330.292L333.146 290.427L332.345 292.881V296.534L335.399 298.336L334.197 300.989L329.491 298.136L328.69 299.988L326.838 296.935H321.18L318.126 297.335V296.334L319.328 293.28L322.982 284.921L324.434 282.268L326.236 281.267L327.288 283.119L326.236 287.174ZM938.935 274.559V275.761L937.937 274.559H938.935ZM858.83 300.589L855.329 301.39L855.828 299.588V297.335L856.327 295.933L855.329 292.68L856.327 289.627L855.828 285.322L856.834 282.718L854.83 279.465L855.329 274.559V273.158L858.331 270.906L859.337 273.959L858.83 279.465L859.836 281.267L860.835 286.373L861.841 289.627L859.836 290.027L858.83 291.028L857.333 296.534L858.83 298.737V300.589ZM31.8417 271.706L29.2783 272.507L29.6438 270.305L31.8417 271.706ZM123.722 273.158L122.27 273.959L120.818 272.107L121.168 269.454L124.473 270.305L123.722 273.158ZM464.568 269.053L463.566 269.904L464.167 268.453L464.568 269.053ZM39.5117 267.051L37.3338 267.251L36.6029 265.8L39.1612 265.399L39.5117 267.051ZM456.857 263.997V265.199L458.66 264.398H459.911L461.313 267.051V268.853L459.461 269.904L460.312 274.96L459.461 277.212L456.206 279.015L452.952 280.867L451.35 281.267L448.497 279.865L450.75 276.412L451.35 273.959L449.298 272.708L449.898 272.107L449.498 268.853L453.202 269.053V266.65L454.004 265.199L456.857 263.997ZM504.87 263.397V265.199H503.368L502.868 262.947L503.869 262.546L504.87 263.397ZM126.325 263.598L125.224 264.398L124.122 263.997L124.823 261.545L126.325 263.598ZM508.876 263.397L507.874 265.399L506.873 264.799H506.372L505.872 262.546L507.374 261.745L509.376 260.344L509.877 260.744V262.146L508.876 263.397ZM123.021 263.598L121.919 265.199L120.067 264.398L120.467 262.546V259.292L123.021 263.598ZM461.313 258.491L459.461 259.693L459.911 257.891L460.312 258.091L461.313 258.491ZM120.818 257.891L118.965 258.892L118.615 255.638L120.467 256.038L120.818 257.891ZM116.412 257.49L115.311 258.091L114.209 254.837H115.711L116.412 257.49ZM459.911 254.437L460.513 255.638L459.461 255.238L458.059 253.836L458.66 252.985H459.911V254.437ZM499.363 256.239L498.362 257.49V257.09L499.363 255.238H501.366L502.868 252.985H503.869L504.37 254.837L502.868 255.638L499.363 256.239ZM526.399 254.837L524.897 255.238L524.396 253.386L525.898 251.584H527.4L526.399 252.585V254.837ZM68.4495 251.584L69.2009 253.836L64.0437 256.639L62.5918 254.437L64.0437 252.585L65.5457 252.985L68.4495 251.584ZM118.265 253.386L116.813 254.237L116.062 250.583L117.514 250.132L118.265 251.984V253.386ZM114.96 252.385L112.758 252.985L111.656 249.732H113.108L115.711 250.782L114.96 252.385ZM459.061 251.183L457.658 252.385V249.732L459.911 248.931L459.061 251.183ZM535.911 250.132L534.91 251.584L535.41 250.583L534.91 248.73L537.413 247.93L536.912 249.732L535.911 250.132ZM468.222 247.93L467.822 249.331L465.769 251.183L465.969 252.385L469.674 252.585H471.277L471.476 253.836L470.475 256.639L468.623 258.892L469.474 260.744L470.876 261.545L471.877 262.947L472.278 265.199L473.129 267.251L474.931 268.052L476.784 271.706L476.983 274.359L480.038 274.96L480.639 275.761L481.039 277.212L480.639 278.614L478.786 280.867V281.868L479.637 283.119L478.786 283.72L476.983 284.521L473.729 284.121L471.277 284.921L469.024 284.521L466.821 285.322L466.42 286.773L465.369 285.972L463.566 286.373L462.315 287.374L461.714 286.773L464.167 284.121L464.968 282.718L466.821 281.668L465.969 280.867L464.968 281.267L464.568 280.066L462.715 280.466L462.315 279.465L464.968 278.013L465.369 276.812L464.968 273.959L468.222 272.708V271.706L466.42 267.652L467.221 265.8L464.568 267.051L462.315 265.399L463.966 263.397L462.715 261.545H462.114L461.313 259.693L462.114 258.091H460.513L459.911 257.09L460.513 256.639L461.313 254.437L460.513 253.836L460.913 251.984L462.315 251.183V249.732L462.715 247.93L463.966 248.33L468.222 247.93ZM537.914 246.879L536.912 247.529V245.677L537.914 246.879ZM530.404 239.17L529.903 240.171L528.902 238.769L530.404 239.17ZM33.674 241.022L31.1106 241.422L28.9128 239.57L32.2071 238.369L33.674 241.022ZM458.459 229.609V230.009L457.658 228.808V228.608L458.459 229.609ZM264.406 228.207L263.605 230.61H261.753L262.553 227.356L264.406 228.207ZM255.244 227.807L252.59 228.808L253.041 224.954L256.695 224.102L257.297 225.554L255.244 227.807ZM24.8875 223.102L23.0552 223.302L19.3953 221.249L20.4918 219.648L24.8875 223.102ZM258.098 217.195L261.753 219.047L259.55 221.249L255.445 219.447L253.041 219.047L249.336 222.701L245.682 217.195L245.281 213.941L246.282 206.833L247.935 205.432L251.589 210.287L256.295 213.141L258.098 217.195ZM436.481 203.98L437.132 204.781L436.681 206.232L440.135 208.485L439.735 209.486L440.135 211.288L438.934 213.141L436.481 216.394L435.279 215.994L433.427 217.195L432.425 218.246L428.37 219.648V220.849L426.117 221.5L422.062 220.449L420.61 219.047L416.555 218.647L417.806 217.596L417.356 215.393L416.555 214.141L416.354 212.74H413.301L414.552 211.739L416.555 211.288L416.354 210.287L416.956 208.685L415.153 208.034L414.101 208.485H410.847L413.701 203.98L414.753 202.178H416.354L417.806 203.179L419.609 206.232L418.808 207.234L421.862 208.485L422.062 206.833L421.862 204.781L424.315 206.833V204.781L425.717 203.98L428.37 204.381L429.772 205.432L430.172 203.98L431.624 204.381L432.425 203.179L432.025 202.178L433.427 201.728L434.278 203.579L436.481 203.98ZM274.569 195.871L271.315 197.073L269.513 193.819L271.715 189.364L275.37 189.764L275.62 194.019L274.569 195.871ZM518.388 188.913L516.385 189.364L517.888 186.711V185.66L520.391 185.259V187.511L518.388 188.913ZM517.387 185.259L516.886 187.511L514.884 187.111L516.886 184.658L517.387 185.259ZM609.007 185.259L606.503 186.511L605.001 184.858L606.503 181.004L608.005 180.604L610.008 182.005L609.007 185.259ZM524.396 181.004L523.895 183.056L521.392 182.406L523.395 179.803L524.396 181.004ZM220.649 185.259L218.846 188.312L215.592 187.511L210.886 185.259L212.738 180.203L214.59 177.55L219.648 182.406L220.649 185.259ZM928.922 178.351L927.924 179.803L924.921 177.951L926.419 176.549L928.922 178.351ZM335.799 181.205L333.146 182.406L331.744 180.203L329.091 179.152L329.491 175.498L330.943 173.896L334.598 175.498L337.251 177.951L337.652 179.803L335.799 181.205ZM638.045 177.951L636.042 179.152L634.039 177.55L632.037 174.697L634.039 172.845L638.045 177.951ZM406.391 172.044L401.736 173.296L403.738 169.591L405.991 169.191L407.392 167.79L408.644 171.443L406.391 172.044ZM962.97 168.189L958.961 169.191L957.464 168.39L953.955 170.242L954.462 166.588L957.464 164.135H961.971L963.968 166.338L962.97 168.189ZM228.809 178.351L229.811 179.803L231.663 179.152L233.466 181.205L234.717 184.858L233.916 188.312L235.318 189.764L236.519 184.658L237.571 182.406L240.625 184.858L241.626 188.913L240.224 191.166L240.625 193.819L243.028 197.073L244.28 195.671L246.733 191.166L247.133 186.511L249.336 184.257L247.935 181.605L247.534 177.55H250.788L255.244 179.803L258.898 183.457L259.099 186.711L257.297 188.513L255.845 188.312L257.096 192.166L259.099 195.22L258.498 198.474L254.443 201.327L252.19 203.98L248.134 203.179L247.935 201.327L244.88 201.728L246.733 203.98L245.281 206.833L242.627 209.486H241.226L236.519 205.432V206.833L238.372 209.486L242.027 209.887L243.879 210.488L241.226 216.794L238.973 217.796H235.117L235.318 220.048L233.466 220.449L233.916 223.302L229.811 226.356L225.956 231.862L224.154 235.916L222.902 241.022V245.276L223.703 247.079H227.408L229.21 254.437L228.809 256.038L232.464 254.837L238.772 256.639L241.226 258.892L242.427 260.744L247.133 262.546L248.134 263.598L250.387 264.398L251.789 263.997L256.295 265.399L255.845 268.853L256.695 271.306L256.295 274.96L258.898 278.614L260.751 280.066L261.352 281.868L263.204 282.268L264.406 280.466L265.407 279.865L266.458 277.212L265.407 274.96L265.007 270.305L264.006 266.65L268.061 264.398L269.913 262.947L271.715 259.292V255.638L270.113 250.782L266.458 247.529L269.913 241.623L267.26 235.916L268.661 234.064L268.061 231.461L267.66 227.356L269.062 226.356L273.768 227.807L277.222 228.207L279.276 226.755L283.331 230.41L284.732 233.664L288.838 234.715L290.04 236.918V243.224L290.64 246.879L292.492 246.478L295.746 250.132L299.402 247.079L301.003 245.276L301.204 242.023L303.057 238.769L304.909 240.571V242.824L306.711 244.676L308.964 248.73L310.766 252.985V257.891L312.218 261.144L314.872 261.745V263.598L316.273 265.199L318.126 264.398L318.927 266.2L321.781 267.051L319.528 269.904L315.673 271.306V273.158L321.18 269.053H322.582L323.583 271.306L326.236 272.107L327.288 273.959L326.637 275.761L327.288 278.614L323.984 281.668L321.781 281.267L319.528 282.268L318.927 284.121L315.873 286.373L312.218 286.773L305.71 286.373H298.801L296.948 288.175L296.147 290.427L293.894 290.828L291.892 292.68L289.238 296.534L293.894 293.28L297.949 291.429L301.204 290.828L303.457 291.028L304.708 293.28L303.057 294.682L300.202 295.933L301.003 297.335L303.057 296.534L302.856 298.336L303.858 302.441L306.711 304.644L309.365 305.044L310.766 304.243L312.018 304.644L312.218 306.896L307.963 308.298L304.258 310.15L302.455 312.402L300.603 313.003L299.402 312.002V309.749L301.003 308.298L302.856 306.896L301.655 305.695L297.949 307.296L296.548 306.495V308.748L292.893 309.749L290.64 311.551L288.838 312.002L286.985 314.805V316.457L288.187 319.71L285.133 320.712L281.078 321.112L277.823 323.765L278.624 324.366L278.224 326.618L276.421 329.271L275.62 330.673L274.168 332.925H272.316L271.915 334.778L273.167 336.179L273.768 339.833L272.316 342.687L268.661 344.538L267.66 345.94H266.259L264.606 348.193L259.95 351.846L258.498 355.501L259.099 358.755L260.751 362.408L260.35 363.21L262.153 367.315V370.568L260.951 372.77L259.55 372.97L258.898 370.968L257.697 370.568L257.096 367.514H255.845L254.843 364.662L255.445 361.808L252.59 358.354L251.189 357.753L248.134 359.155L245.682 356.502H243.479L241.626 357.353L238.772 356.952L237.571 358.354L233.916 361.007L232.464 360.607L230.662 358.755L229.61 359.555L225.956 358.755L223.703 359.555L220.649 362.008L216.994 364.261L215.592 367.315L216.793 370.568L216.393 371.569L215.592 372.97L215.192 375.223L214.991 378.276V379.278L214.59 380.129L215.192 382.982L215.592 383.783L216.393 385.785L217.845 387.437L218.646 388.038L218.846 389.489L219.247 389.89L220.048 391.291H221.901L222.902 392.092L223.703 392.943L225.555 392.543L226.156 392.092H228.008L229.21 391.291H230.662L231.062 392.092H231.663L232.464 391.291L232.063 390.691L233.265 389.89L233.466 389.489L233.916 388.438L234.717 387.637L234.316 387.437L234.717 385.584V384.784L235.318 384.383L236.519 383.983L237.971 383.783L239.373 383.382L240.825 382.982L243.028 383.783L243.879 383.382L244.28 383.783V384.383L243.879 385.584L243.028 386.235L242.627 387.036L242.427 388.038L241.626 388.838H242.627L241.626 392.092H240.224L240.825 392.543V393.143L240.224 394.345L240.625 394.945L240.224 397.198L239.774 397.999L238.973 398.4L238.772 399.45L239.373 399.851L239.774 399.45L240.625 399.851L242.027 399.05L242.427 399.45H242.627L243.879 399.851L245.281 399.45L247.133 399.05L247.935 399.45L248.936 399.05L249.987 399.45H251.189L251.789 400.251L251.589 400.452L251.789 400.852L253.442 401.253L254.042 401.653L253.442 402.053L254.042 403.906L253.442 404.506L253.041 405.958V409.011L252.59 409.412V410.413V410.813L252.19 411.865V412.665L252.59 413.066L253.442 414.067L254.042 415.518L255.244 416.319L255.445 416.72L256.295 416.92V418.121L257.096 418.572L257.697 418.121L258.498 418.772H259.099L260.35 418.572L260.751 418.121L262.153 417.321L263.605 416.72H265.007V416.92H266.259L267.66 417.321L268.661 418.572L269.513 419.173L271.315 420.574V419.173L273.568 416.92H273.768L274.569 414.067L276.021 412.265L277.222 412.665L278.224 411.865H280.476L285.133 409.011L285.584 410.413L284.132 411.214L284.732 413.266L283.331 415.919L285.133 418.121L286.385 417.321V415.919L285.133 413.666L285.584 412.665L289.238 411.414L288.387 410.413L289.238 409.412L290.239 411.414H292.092L293.294 412.265L293.894 414.067L299.201 413.666L300.202 414.867L303.057 415.118L304.708 414.067L308.564 413.266L308.363 414.468L309.765 416.319L310.766 415.518L312.018 415.919L313.821 416.92L312.218 419.573L314.02 419.173L315.873 419.573L318.126 420.574L319.928 422.427V423.628L321.38 424.228L323.583 426.481H328.69L329.091 426.08L332.145 426.881L334.598 427.683L337.251 429.735L338.252 431.586L339.654 431.987V433.789L341.506 437.443L342.708 437.894V439.295L340.505 441.948L339.053 442.95L337.251 446.604L340.505 444.801V446.003V446.203L340.906 447.004L343.109 447.454H345.162L347.014 446.003L347.815 444.201L350.068 443.751L351.87 445.202L356.576 446.604L357.778 448.456L358.779 449.257L360.231 448.456L362.885 449.657L366.139 450.258L369.393 449.857L373.449 452.11L377.103 455.363L378.104 455.764H379.957L381.559 456.164L382.21 457.216L383.412 461.671V463.522L382.21 466.326L378.956 470.431L377.504 471.632L375.702 474.886L373.849 477.138L372.648 477.338L371.997 478.94L372.397 480.392L371.997 481.793L372.397 485.347L371.596 488.851L371.196 490.853L370.594 491.855L370.194 494.858L368.341 498.863L367.14 499.363L366.539 501.365L366.94 502.867L364.286 504.369L363.485 505.37H359.83H359.18H356.977L356.576 506.371L353.723 507.873L350.669 509.375L347.815 511.377L346.363 513.88V519.386L345.562 521.888L344.16 522.89L342.307 525.893L341.907 527.394L340.906 527.896L339.654 526.894L338.252 529.397H337.652L336.8 533.402L335.399 537.907H333.546L331.744 541.911H329.892H327.288H326.236L323.583 539.909H321.781H320.329L320.729 533.402L319.528 537.907L319.928 539.909L322.982 543.913L323.583 545.915L324.835 547.918L322.582 551.923L318.526 553.925L313.821 555.927H310.366V557.929L309.365 559.931L309.765 561.934H307.512H305.71H302.455H302.055L302.856 565.938H303.858H306.11V570.443H303.457L301.655 572.446L302.055 574.448L300.603 576.45L297.349 578.452L295.547 582.457L296.147 584.459H297.949L300.603 586.462L299.802 588.464L296.948 590.466L295.146 594.47V596.473L292.092 598.475L291.441 600.477L291.892 604.481L293.294 606.484H291.441H289.639L286.985 608.487L286.585 612.991H285.584H283.331L282.729 610.989H285.584V608.487L282.729 610.989H281.078V608.487L279.276 606.484H279.676L277.823 600.477H278.224L277.423 596.473V590.466H278.224L278.624 588.464H276.421L278.224 584.459H277.423H275.62L274.569 582.457L276.421 580.454H276.822H278.224L279.075 582.457L279.676 580.454L280.076 576.45H281.879L282.329 574.448H280.877L281.078 572.446L280.877 570.443H281.879L281.478 565.938H282.329L281.478 563.936L280.476 565.938H279.276L278.624 561.934L279.276 557.929H280.076L280.476 555.927L279.676 553.925L279.276 549.92H280.476L281.078 547.918L282.329 543.913L283.331 541.911L283.731 539.909L284.732 537.907L285.584 533.402L284.732 529.397V527.394L285.584 525.893L285.133 522.89L285.984 521.388L286.585 517.383H286.985L288.187 511.877L287.787 510.375V507.873V505.37L288.387 504.869L288.838 500.865L288.387 498.863L288.838 496.861L288.187 491.855L285.584 490.353L285.133 488.851L275.62 484.046L273.568 481.793L272.316 480.792L272.767 478.54L269.913 473.684L268.661 472.633L265.808 465.325L264.406 463.522L263.204 461.27L262.153 460.269L259.099 458.817L259.95 457.216L258.898 454.763L259.099 453.512L261.352 451.509L261.753 449.657L259.95 448.456L260.35 446.604L260.951 443.35L262.553 441.948L262.153 440.096L265.407 438.895L265.808 438.695L265.407 437.443L266.259 435.641L268.261 435.041L270.113 432.388L269.513 431.586V430.135L269.062 425.88L269.513 424.629L268.061 422.827L267.26 422.226L266.458 420.574H266.859L267.26 419.974L266.458 419.573V419.173L265.407 418.572L264.606 418.121H264.006L263.204 418.772L262.804 419.173L261.753 419.974H261.352L260.951 420.574L262.153 421.826L261.352 422.827H259.95V422.226L258.098 421.375L257.697 420.374H256.695L256.295 419.974H254.843V420.574L254.443 420.374L253.041 419.573L252.59 419.173L253.041 418.572L252.59 418.121L251.789 417.321L251.189 416.92L249.987 416.72L249.787 415.518L248.936 415.118L248.535 415.518L249.336 415.919V416.319L248.535 416.72L248.134 415.919L247.534 415.518L247.133 415.118L246.733 414.468L247.534 413.666L247.133 412.665L246.733 411.865L244.88 410.813L244.28 409.412L243.879 409.011L242.027 407.559V407.159H243.028L242.027 406.358L241.626 405.958L241.226 406.759H238.973L237.571 405.958L236.119 405.758L235.318 405.357L233.916 404.506L232.864 404.906L232.063 404.506L231.062 403.906L229.61 403.105L226.957 400.452L225.555 399.05L225.155 398.6L224.353 398.4H223.302L222.501 397.598L221.099 399.05L220.449 399.45L219.247 399.851H218.646H217.395L216.793 399.45L214.991 399.05L214.14 398.4L212.738 397.999L212.338 397.598L209.685 396.797L209.484 396.597L206.029 395.346L204.628 394.345L203.977 393.544H203.176L201.774 393.143L199.521 392.543L199.121 391.291L197.268 390.29L196.667 389.89L195.466 389.489L194.014 387.637L193.614 386.636L194.815 386.235V385.584H194.014L195.065 384.383V383.783L194.415 382.982L194.014 382.131V381.13L193.213 380.129L191.811 378.477L190.759 377.075L189.959 376.474L188.957 375.223L188.106 374.623L187.505 374.222L186.704 372.77L185.603 371.97H184.902L183.8 370.968V370.168L184.501 369.116L183.8 368.315L182.699 367.915L182.349 367.315L181.247 366.914L180.847 366.063L180.496 365.462L179.395 364.662L178.293 363.21L177.593 362.809L177.192 361.808L176.491 361.408V360.607L175.39 359.155L174.989 358.354V357.753L173.888 355.902V354.499L172.436 354.1V353.249H170.984L169.882 352.648H169.531L169.131 354.9L169.531 355.1L169.882 356.502V357.753L170.633 358.755H170.984L172.085 359.956L172.786 361.007L173.888 362.008V362.809L174.639 363.21L174.989 364.261V364.662L175.39 365.462L176.091 365.662L176.491 366.464L177.192 367.915L177.943 368.315L178.644 369.317V370.568L180.496 373.821V374.823L181.247 375.623L181.598 375.223L182.699 376.024L183.049 377.075L183.8 377.876V378.477L182.699 379.278H181.948V378.276L181.598 377.476L180.496 377.075L179.395 376.024L178.293 375.223L177.192 374.222L176.842 373.821L176.491 373.421L176.842 372.37L176.491 371.169L176.091 369.717L174.989 369.317L173.537 367.915H172.786L172.085 367.315L170.233 366.464V366.063L169.131 365.462L170.633 364.662L171.334 364.261V362.809L169.131 360.206L168.43 359.956L166.928 358.755L166.578 356.952L166.227 356.302V355.902L165.476 355.1V354.499L164.375 353.249L164.775 352.648L164.024 351.846L163.674 351.246L163.273 350.395L162.172 347.792L159.268 345.34L156.715 344.138H154.512L153.761 342.086L150.457 338.031V335.778L149.005 334.978L147.202 330.673L145.7 329.271L145.35 325.817L143.898 324.366L144.599 320.712L143.497 315.255L144.248 312.002L144.999 306.896V301.39V299.988L143.147 295.483L144.599 294.682L149.356 295.933L149.005 292.68L148.254 291.829L146.802 291.028L142.797 287.774L143.147 286.773L141.345 285.522H139.142V283.72L136.939 284.121L134.736 282.718L134.386 278.214L131.432 272.107L130.331 272.708L128.528 270.305L128.128 267.051L128.879 264.398L127.777 265.8L126.325 266.65V262.146L123.722 259.693L121.168 256.038L119.366 255.238L118.965 251.984L117.864 250.583L117.514 250.132L116.062 248.73H114.209L110.955 249.732L106.55 245.276L101.393 242.023H99.5903L94.8341 240.171L91.5299 240.571L85.3217 237.317L83.1186 235.115L80.1646 237.768L79.4643 241.022H76.1594L74.6574 243.224L70.6522 245.077L70.302 241.623L71.4031 239.57V236.918L74.3073 235.115L73.6062 233.664L71.4031 235.115L69.2009 237.968L68.4495 240.171L64.4443 243.825L66.6472 246.879L64.4443 248.73L64.0437 250.583L58.5866 253.836L57.8356 256.038L55.2823 256.639L52.3284 260.744L48.6736 261.745L46.4708 263.397L43.9174 263.598L42.4655 265.399L40.6131 264.799L43.9174 261.545L45.7698 261.144L49.0742 258.091L51.227 257.09L54.5313 252.585L55.2823 248.931L52.3284 246.879L51.227 248.931L49.7751 246.478L47.2217 245.677L43.567 247.529L43.9174 243.224L41.7145 240.571L38.8107 241.623L35.1359 238.769L34.405 237.317L36.6029 236.116L32.2071 232.262V230.61L35.8719 225.955L36.2374 223.102L37.3338 222.301L39.5117 223.703L41.3641 222.301L42.4655 220.449L45.3693 220.849L46.4708 219.648L46.1203 216.394L44.6684 215.393L46.1203 212.74L42.816 213.541L41.7145 214.542L38.4352 214.141L35.1359 214.992L32.2071 214.141L30.7452 211.739V209.486L28.5473 209.086L27.0804 207.634L33.674 202.979L36.6029 201.327L38.4352 201.127L38.8107 204.781L43.567 204.982L44.3179 202.178L47.9727 202.579V201.127L43.567 200.326L42.1151 198.474L38.4352 197.673L37.6993 194.019L31.1106 188.913L31.8417 185.259L37.3338 184.658L40.2626 181.205L40.6131 178.351L43.567 173.896L46.4708 173.696L49.4246 170.242L53.8304 170.042L57.0846 166.338L61.8909 167.389L62.9423 170.042L66.6472 169.191L68.8 169.591L68.4495 172.044L77.6114 172.445L81.6167 175.098L86.4228 175.498L89.3269 176.949L93.3321 175.698L95.9352 177.55L99.1895 179.402L104.347 180.604L105.799 182.406L110.955 185.259L112.758 184.858V183.056L115.311 181.205H116.813L117.163 179.803L118.615 181.205H120.067L121.168 179.152L123.722 178.351L127.777 175.498L129.98 176.549L131.783 178.351L133.285 176.949L133.985 171.844L136.539 174.697L137.64 178.351L139.142 180.604L140.594 181.205L141.345 177.55L143.147 176.149L144.248 181.205H146.101L147.202 178.351L150.107 177.951L153.061 179.402L154.863 181.205L159.268 182.856L161.071 184.257L164.775 185.259L165.877 184.257L168.781 185.259L171.334 188.312L168.43 191.566L170.633 193.418L175.74 193.819L179.395 193.018L181.948 191.566L183.049 193.418L186.003 194.019L187.505 196.271L188.106 198.924L189.558 198.474L187.706 193.819L186.704 187.111L191.16 185.66L192.211 184.658L194.415 186.511V188.513L196.667 189.764L196.868 191.166H199.521L201.374 192.617L204.628 193.819L207.231 192.617L213.339 193.018L215.592 194.42L215.192 191.566L213.74 192.166L212.338 188.913L216.393 188.312L219.648 190.765L222.501 191.166L225.956 187.912L226.156 185.259L224.353 183.858V181.004L220.649 178.351L218.246 175.498L218.846 172.044L218.246 170.242V166.338L221.5 162.683L223.703 161.482L226.957 164.736L228.008 167.389L227.808 170.042L229.811 171.844L231.463 175.498L228.809 178.351ZM822.786 157.828L820.782 159.23L817.281 156.376L817.78 154.575L822.786 157.828ZM416.555 155.575L416.354 159.029L411.048 154.974L410.847 152.722H414.552L416.555 155.575ZM171.735 150.069V154.174L174.288 151.321L179.044 153.773L179.395 156.827L182.349 154.974L183.049 152.321L185.603 154.974L187.105 160.481L188.556 162.283L186.704 149.869L190.759 148.668L194.014 151.922L195.466 159.029L197.268 163.734L196.667 168.189L198.52 170.643L206.43 175.498V179.152L203.977 178.351L204.177 184.257L199.521 185.66L195.065 184.858L191.811 182.856L186.354 184.658L185.252 186.11L179.044 187.912L173.537 188.312L172.436 182.856L168.03 182.406L164.775 181.205L162.923 178.351L163.273 175.698L170.233 173.896L174.989 175.098L176.491 172.845L171.735 171.043L168.43 171.844H162.172L160.37 163.734L157.817 160.881L159.619 155.575L162.573 151.922L169.882 147.666L171.735 150.069ZM414.101 148.668L411.048 150.92L407.392 149.468L409.045 147.666L411.048 147.266L414.101 148.668ZM624.026 160.481L626.029 166.338L629.033 169.591V172.044L626.53 171.844L624.527 170.643L624.026 172.044L622.024 170.242L621.022 170.643L618.519 164.536H614.514L613.513 162.283L614.514 159.63L617.518 157.228L617.017 152.722L618.519 149.869L623.025 147.266L627.03 149.068L626.53 153.123L624.527 156.376L624.026 160.481ZM667.583 149.468L663.077 150.92L664.079 146.815L666.081 146.415L667.583 149.468ZM818.778 153.123L813.771 155.575L814.278 153.123V151.922L815.277 150.52L815.776 146.215L818.279 146.815L821.281 151.321L818.778 153.123ZM260.35 144.413L264.006 145.414L267.26 145.013L269.913 146.415L272.316 150.069L270.113 152.722L266.859 152.321L264.606 153.573L262.553 152.321L261.753 149.068L259.95 148.067L260.35 144.413ZM196.868 146.215L195.065 151.922L191.811 147.666L191.361 144.613L195.065 144.413L196.868 146.215ZM814.278 153.123L813.272 157.428L809.771 154.174L805.263 152.321L806.262 149.468L805.763 146.215L807.767 145.414L808.765 143.562L812.274 146.815L814.278 147.666L815.277 150.52L813.771 151.922L814.278 153.123ZM244.48 152.321L246.733 160.481L248.535 157.228L247.133 151.922L248.936 148.067L254.843 144.413L258.098 144.613L259.099 148.668L260.951 150.52L262.153 157.228L265.007 157.828L269.062 153.573L275.37 155.575L277.823 161.482L279.676 162.283L279.276 166.338L282.329 162.883L285.133 164.536L287.787 169.191L293.694 172.044L296.548 176.949L294.295 178.351L295.547 187.511L297.349 188.312L297.549 190.765L299.402 191.566L302.856 191.166L304.909 194.019L306.11 199.926L307.963 198.924H311.217L312.619 201.127L309.365 205.432L308.964 208.034L307.112 207.634L306.511 211.739L302.856 209.887L299.402 203.579L296.548 202.979L296.147 207.234L297.349 210.888L302.055 214.542L302.856 222.701L302.055 226.356L299.802 223.703L295.547 223.302L299.402 228.207L299.201 230.41L292.893 228.207L290.04 225.154H288.387L284.532 222.701L284.732 219.648L282.329 218.647L280.076 214.141L278.224 215.794L275.37 215.393L271.315 216.394L267.26 214.141L269.513 208.685L272.767 209.887L276.822 209.486L279.276 206.833L277.222 204.381L280.877 200.326L282.93 196.672L281.078 190.164L277.423 187.511L276.421 184.658L274.168 184.858V182.406L268.661 178.351V175.098L265.808 175.498V177.35L259.099 175.698L255.445 177.55L248.535 175.698L247.133 176.549L244.48 173.896H240.625L237.171 170.042L236.119 165.937L235.318 160.481L236.519 154.575L238.372 148.668L241.626 144.613L244.48 143.162L248.936 143.562L244.48 152.321ZM859.836 146.415L858.83 149.468L854.83 148.267L852.826 147.266L853.824 142.761L855.828 142.561L859.836 146.415ZM209.083 142.561L210.886 144.413L216.393 143.162L214.59 150.92L218.246 153.573L218.846 156.376L217.395 161.482L214.59 162.883L212.738 166.338L210.886 165.536L209.685 162.283L207.231 158.629L204.177 157.428L201.774 153.773L203.576 150.52L205.429 153.773L207.882 153.573V147.666L206.029 144.013L209.083 142.561ZM224.754 159.029L221.901 160.481V155.976L220.649 153.773V144.413L221.901 141.76L226.156 140.308L229.61 142.16L235.117 142.761L232.464 148.067L230.662 152.722L226.957 153.123L224.754 159.029ZM853.325 141.76L851.827 142.761L850.821 139.908L853.325 139.107V141.76ZM152.31 136.654L155.964 139.507H162.172L164.024 141.36L168.03 146.815L157.817 154.575L157.416 157.228L155.213 159.029L153.761 164.536L147.202 168.39L146.451 166.338L144.599 162.883L141.345 160.481L139.492 160.881L140.944 156.376L142.046 155.375L142.396 150.52L144.248 146.815V143.162L142.797 138.506L152.31 136.654ZM779.232 138.106L778.227 140.959L774.725 139.107L775.723 136.253L779.232 138.106ZM427.97 131.598L425.717 131.798V128.145L427.97 127.945V131.598ZM872.852 127.494L873.85 129.746L877.359 129.346L878.857 133L876.353 134.051H872.353L866.847 129.346L868.344 127.494H872.852ZM225.956 135.453H223.703L218.246 131.798L220.449 126.292L224.154 125.692L226.156 128.945L226.556 133L225.956 135.453ZM849.823 122.438L851.827 123.84L853.325 121.237L855.329 120.186L857.333 122.639L860.835 123.038L864.344 126.292L862.34 131.598L858.83 130.347L856.327 131.798L851.321 133.401L849.823 131.798L848.817 135.253L845.815 134.001L842.313 128.945L843.312 122.038L847.819 118.784L849.823 122.438ZM214.14 126.693L214.59 131.598H207.882L207.632 127.494L201.774 126.292L204.177 118.784L208.282 113.879L214.991 115.33L215.592 119.785L215.993 124.49L214.14 126.693ZM186.354 119.385L189.959 122.438L193.213 121.237L194.415 124.891L192.211 131.598L189.558 132.6L185.252 131.198L183.45 133.401H181.247L177.943 137.055L174.288 138.106L170.233 135.253L174.639 132.199H166.928L162.172 129.746L164.375 119.785L169.131 115.33L171.334 118.784L174.288 118.383L176.491 123.038L178.644 125.292L185.252 126.292L183.45 123.439L184.151 120.186L181.247 117.983L184.151 112.077L186.354 112.877V119.385ZM659.072 117.983L655.067 120.586L641.049 127.945L637.544 131.798V134.051L635.041 135.253L633.539 139.507L630.535 141.36L631.035 143.562L628.032 149.068L623.025 147.266H621.022L620.021 144.013L623.526 140.308L624.527 135.453L627.03 134.852V132.6L628.532 127.945L632.037 125.692L634.039 122.639L636.543 121.237L641.049 117.532L643.051 118.984L647.557 117.532L654.066 111.476L656.569 109.624L659.573 110.224L660.574 112.077V115.13L659.072 117.983ZM225.956 110.625L227.808 114.279L232.063 113.278L233.265 119.785L232.864 122.639L235.318 121.637L240.625 126.292L243.028 125.292L245.281 127.494L251.789 123.038H256.295L261.753 125.292L264.006 127.945L263.605 131.598L261.753 136.253L257.697 137.255L253.442 135.853L251.189 137.055L242.027 137.255L237.971 135.853L235.719 136.654L231.663 135.453L229.21 129.746L230.211 125.692L228.008 118.784L222.902 117.983L220.048 116.531L217.395 110.625L220.449 108.823L225.956 110.625ZM165.476 114.73L161.822 117.983L158.918 116.131L156.715 122.038H149.005L147.553 120.186L149.005 116.932L151.208 116.131L155.213 109.624L159.268 105.569L164.024 105.97L166.578 113.278L165.476 114.73ZM763.706 110.625L760.704 115.33L764.712 115.13V112.877L773.22 112.477L777.727 117.532L779.232 118.383L780.73 122.639L779.732 124.891L780.231 128.945L778.227 131.798L776.222 133L775.224 135.253L770.218 138.106L769.718 139.908L767.714 141.36L765.71 145.013L762.708 145.414L760.204 150.069L764.213 149.869L770.717 146.415L769.219 143.562L771.216 141.76L775.723 144.613L777.727 144.413L779.732 146.415L784.239 144.613L789.745 145.815H793.246V149.468L796.755 150.92L802.261 152.321L806.262 153.773L809.771 154.575L813.272 157.828L817.281 157.228L821.788 164.135L823.285 167.79L826.288 170.643L827.793 169.591L830.795 161.082L832.3 163.734L835.802 165.536L839.311 163.334L841.307 163.734L843.811 165.937L845.316 163.734L847.32 163.334L848.817 164.536L850.322 164.135L849.324 160.881L850.322 158.228L853.325 153.773L854.83 153.573L859.836 154.174L863.837 156.376L863.338 158.228L869.849 157.228L872.852 157.428L876.353 159.029L877.359 160.481L876.353 163.334L881.36 166.338L884.37 170.042L886.873 169.591L892.878 167.79L898.384 168.189L902.891 171.443L904.396 174.697L902.891 177.35L906.393 179.402L907.898 181.205L909.902 179.402L914.908 178.351L915.907 179.803L922.418 180.604L924.921 178.351L926.419 180.203L925.92 182.005L928.922 183.858V185.66H931.932L933.43 183.858L932.431 179.803L931.932 175.698L937.937 176.949L938.935 177.55L946.952 177.35L953.955 182.005L955.46 182.406L957.464 184.257L958.961 184.858L960.466 186.11L960.966 187.511L961.971 188.312L969.98 193.819L971.478 199.926L972.484 201.127L973.482 199.926L972.484 198.073L973.981 197.472L976.991 198.924H978.488L983.495 203.98L985 204.381L982.497 206.232V207.634L981.491 208.034L978.988 208.485L977.989 209.887V211.288L976.991 212.34L976.484 214.141L977.989 214.542L975.985 215.994L973.482 215.393L971.985 213.541L969.98 212.74L968.475 211.739L967.976 208.685L965.473 207.634L963.968 208.485L961.971 208.685L960.466 206.232L961.465 203.98L958.462 204.381L957.963 205.832L959.468 208.034L958.462 210.287L957.464 211.288L955.959 212.74L954.462 213.541H950.952L951.452 216.394L952.957 215.794L953.955 218.246V221.5L955.959 223.102L956.458 225.554L954.961 227.807L950.453 226.356L949.954 225.154L947.451 227.807L942.944 230.61L941.438 230.41L935.933 235.916L932.431 238.369L931.932 241.022L929.928 238.369L926.419 237.317L922.917 238.769L920.913 241.422V237.968L917.911 240.171L913.902 240.571L911.906 246.077L909.902 248.73V251.984L911.399 251.183L912.904 252.385L911.399 254.237L911.906 257.09L912.904 257.49V259.893L910.9 259.693L909.403 260.344L908.397 262.546V267.652H906.393L903.889 269.454L902.891 273.559L900.388 275.761L899.39 279.465L895.381 283.52L894.882 281.267L894.383 278.214L893.377 275.36L892.379 263.997V260.744L893.377 257.49L895.381 255.638L897.885 250.782H898.883L902.891 246.879L903.889 245.077L906.393 242.824L908.896 238.369L912.904 236.116L914.908 230.61L915.407 225.554L912.904 226.356L911.906 230.61L905.894 236.517L903.39 233.664L902.392 230.41L897.385 230.61L895.381 232.262L892.878 236.517L890.874 238.769L888.371 241.422L888.87 245.276L886.366 244.676L884.869 246.478L883.364 245.677L880.861 242.824H878.857L876.353 242.023L874.856 243.224L870.848 244.676L865.841 243.424L859.337 243.825L857.333 244.676L855.329 247.529L852.327 249.732L851.827 251.984L850.821 252.385L845.316 258.091L843.312 261.144L837.806 266.2L839.311 267.652H842.313L841.814 270.705L843.312 272.507L846.821 272.107L847.32 269.904L849.823 269.053L854.331 273.959L853.325 274.559L854.331 278.214L852.327 281.868L851.827 285.322V289.226L851.321 294.082L848.817 296.534L846.821 299.588L846.314 301.39L844.318 304.243L839.311 309.749L837.806 313.003L834.304 315.255L831.801 315.656L830.296 314.204L826.288 316.057L825.789 317.458H824.791L822.786 320.111V322.563L819.285 325.216L817.281 326.618V328.47L819.285 330.272L820.283 332.125L821.788 334.978L822.287 336.78V340.434L821.788 342.086L819.784 342.687L818.778 342.286L816.275 343.487L813.771 343.888L814.777 338.632L814.278 336.58L815.277 335.778L814.777 333.526L815.277 332.925H811.775L809.771 331.724L811.268 328.47V327.419L808.765 326.218V325.216L807.767 326.218L805.263 326.618L801.762 328.47L801.255 327.419L803.259 323.765L802.261 322.964L800.257 322.164L798.253 324.817L795.749 325.817L794.751 328.47H791.242L790.743 331.123L791.749 331.724H794.252L794.751 332.925V334.778L795.749 335.379L799.259 332.925L801.255 334.377H804.265L803.259 336.58L802.261 336.179L800.257 336.78L798.752 338.632L797.754 339.032L796.249 340.434L794.751 343.087L797.754 344.538L799.758 348.993L799.259 349.995L801.255 351.846L799.758 352.648L801.255 354.1L802.261 355.1L799.758 356.302L802.261 359.555V360.607L798.752 365.061V366.464L797.254 367.915L795.749 368.315L796.249 369.317L794.751 373.421L789.246 377.476L787.741 379.278L785.237 380.129H782.235L781.736 380.329L781.229 381.13L780.231 380.329L779.732 381.53L774.725 383.382H772.721L770.717 384.784L771.723 386.636L770.218 387.036L769.718 385.185V383.382L768.213 383.783L766.716 382.131L764.712 383.382L763.207 384.784L762.209 385.185L761.203 387.036L759.705 388.038L758.703 390.691L759.203 392.092L761.203 393.544L760.704 393.944L763.207 396.597L764.213 397.598L767.215 400.852L768.713 404.906V405.958V407.559V408.16L768.213 410.813L767.714 411.865L763.207 414.067H761.709L762.209 415.118L761.203 416.72L758.703 417.721L757.701 418.772L756.7 419.173V416.72L757.201 415.118L755.699 414.468L754.197 413.666L751.193 411.214V410.012L749.691 409.412L748.189 408.16H745.685L746.186 405.958H743.683V409.412L741.18 414.468V416.319L742.181 417.721L743.182 417.321L743.683 419.173L744.183 419.573V421.375L743.683 422.226L746.687 424.028H747.688L749.19 425.48L752.194 427.933L752.695 429.534L753.195 430.936L752.695 432.388V434.19L753.696 435.241L755.198 438.695L752.695 438.294L749.19 436.442L747.187 435.041V433.389L745.685 431.987V429.534L744.684 428.733V426.08L743.683 425.079L742.682 424.028L741.68 421.826L740.178 420.574V419.974L738.676 419.173L739.177 417.721L740.178 414.468L739.678 413.666L740.178 413.066V410.813V409.011V406.759L739.177 405.357L737.675 402.053V400.452L736.173 395.796L735.172 396.797L732.168 398.6L731.667 399.851H730.165L728.163 399.05L729.164 394.745L727.161 389.489L726.16 387.637L725.159 387.437L724.658 386.235L723.657 385.785L723.156 384.784L721.654 380.729L720.653 379.728L719.651 380.329L717.649 382.532L716.647 382.131L714.645 382.982L712.642 383.382L711.14 382.532L709.138 383.382L708.637 384.383V385.785L707.135 387.637L705.132 388.438L703.13 389.89L701.127 392.543L699.125 394.745L696.621 395.796L696.121 397.198L694.619 397.999H693.617L692.616 399.45L690.613 399.851L690.113 401.653L690.613 403.906L691.114 406.358L690.613 408.611L689.612 410.012V414.867L688.611 414.468L687.109 416.72L687.609 417.321L685.106 418.572V419.974L683.604 420.574L682.102 419.974L681.101 418.572L680.1 415.118L678.598 411.414L676.094 407.559V404.906L674.592 402.704L672.59 398.6L672.089 395.796L671.088 391.291L670.587 388.038L671.589 385.584L670.587 384.383L670.087 382.131L668.585 384.383L666.081 385.785L665.08 385.584L661.075 382.131L661.575 381.13L663.578 380.329L661.075 379.728L659.573 378.477L658.571 376.675L656.569 376.474L655.568 374.623L654.566 373.821V372.77L653.565 371.97L649.059 372.37L646.556 371.97L646.055 372.77L643.051 372.37L641.549 372.97L641.049 372.77L640.548 372.97L635.041 371.97L632.037 371.569L629.534 370.968L628.532 367.514L626.53 366.914L625.028 367.315L622.524 368.716L620.021 368.315L617.017 366.063L616.516 365.462L613.513 364.261L612.511 361.007L610.008 358.354H606.003L604.501 358.154V359.956L606.003 362.408L606.503 364.261L608.506 366.914L610.008 367.915V370.168L612.011 373.821V371.569L613.012 370.168L614.514 370.568V372.97L613.513 374.623L614.514 375.223L615.515 376.474L617.518 375.623L620.021 376.024L621.523 375.223L626.029 370.168L626.53 371.169L627.03 373.421L627.531 374.823L629.033 376.474L633.038 377.075L636.042 381.53L635.041 383.783L634.039 384.383L632.537 386.636L631.536 386.235L630.535 388.438V390.691L628.532 391.091L628.032 391.691L626.53 393.544H625.028L624.026 394.345L623.526 396.197H621.022L618.519 397.198L617.017 397.598L615.515 399.05V400.251L613.513 401.253L611.009 401.653L607.505 403.105L606.503 404.506L604.501 404.106L602.999 405.758L600.996 405.958L597.992 406.358L595.99 407.76L593.987 408.16L592.485 407.76L590.482 399.851V397.999L589.481 394.945L587.479 393.544L586.477 391.291V390.29L584.475 387.637L582.472 386.636L580.97 384.383V382.532V380.329L578.967 376.675L576.965 375.623L575.463 373.821L575.963 372.77L574.461 370.568L572.959 368.315L570.957 364.662L568.954 363.66L569.956 360.206V359.555V359.956L567.452 365.061L565.45 362.408L564.949 361.408H563.447L565.95 364.662L566.952 368.315L570.957 375.623V377.876L571.958 379.728L573.46 380.329L574.962 381.931L575.463 384.383L576.464 390.29L578.467 392.943L579.468 393.143L580.469 394.945L581.971 400.251L582.973 400.452L584.475 401.653L586.477 402.704L587.479 404.506L589.481 405.758V406.759L591.484 408.16L592.485 410.012L591.984 411.414L594.488 414.067H596.991L598.493 413.066L600.996 413.266L602.999 412.265H604.501L610.008 411.214L612.011 410.012L613.513 410.413L613.012 412.265L613.513 414.468H612.511L612.011 416.92L610.509 419.573L609.507 420.975L608.005 424.228L607.505 425.88L604.501 430.135L600.996 433.789L598.994 436.042L595.489 438.294L592.485 440.497L588.48 445.202L587.479 446.604L585.977 447.855L585.476 448.856L583.473 449.657V451.109L581.971 454.763H580.97L579.969 458.417L580.469 459.418L581.971 461.27L581.471 465.725L581.971 467.177L582.973 468.979L584.475 470.431V471.632V472.633L584.975 476.737L584.475 478.94L585.476 482.194L584.475 484.346L582.472 487.35L580.97 487.85L577.465 489.352L575.963 490.353L573.46 493.857L571.458 494.357L569.956 496.359L569.455 498.863L569.956 499.863L571.458 505.37L570.957 507.372V508.874L570.456 509.875L566.451 511.877L564.448 512.878L563.447 514.38L564.448 516.883L562.446 521.888L559.943 524.892L557.439 528.896L553.434 533.402L550.931 535.904L548.928 537.907H546.925H544.923L542.42 539.909H539.416H536.912H534.409H532.907L528.401 541.911L525.898 537.907L523.895 535.904H524.897L525.397 533.402L524.897 531.4L522.393 527.394L521.392 523.39L520.391 521.888L518.388 520.387L517.387 518.384L515.885 513.88V510.876L514.884 508.874V505.871V504.369L512.38 499.363L509.877 494.357L507.874 490.853V488.851V485.347L508.375 484.346L509.376 482.194V478.54L511.88 476.287L513.382 474.084V471.832L511.88 468.979L511.379 466.776L512.38 464.924L509.376 458.817L511.379 458.016L509.376 458.417L508.876 457.616L508.375 455.764L507.874 454.363L505.872 452.911L504.37 451.109L502.367 449.257L501.366 447.454L499.864 444.401L501.366 443.35V440.697L502.367 439.696L501.366 439.295L502.367 437.043V436.042L502.868 434.19L501.867 431.987L500.365 431.386L499.363 429.534L498.362 430.135H495.358L494.857 430.536L492.855 430.936L490.852 429.534V427.933L487.948 425.48L485.945 425.079L483.692 425.48L480.639 425.88H479.637L478.786 426.481L476.983 426.881L474.13 428.333L471.877 428.733L471.277 429.534L468.623 428.733L464.167 427.933L460.513 428.733L456.206 430.536L451.751 428.733L448.497 425.88L445.843 424.228L445.643 423.628L442.99 422.427L441.988 420.574L440.787 419.573V418.121L440.135 415.919L438.333 415.118L436.08 413.066L434.879 412.265V410.813H433.427L431.624 409.011V407.159L432.025 405.758L430.623 402.053L432.025 399.851V398.6L432.425 397.198L433.427 393.944V392.092L432.826 390.29L433.026 387.036L432.425 385.785L430.623 385.584L431.024 382.532L432.425 381.13L434.278 376.474L436.481 374.222L436.681 371.97L437.532 369.717L440.135 367.915L441.187 365.462L441.988 364.261L445.643 363.21L449.298 359.956L450.349 357.753L449.898 356.302V353.699L451.35 351.446V350.395L453.603 347.792L456.206 346.741L458.059 345.34L459.461 343.087L460.513 339.833L462.114 339.433L462.315 340.434L463.966 341.685H466.42L470.475 342.086H471.476L473.329 340.234L475.982 339.833L476.784 338.632L479.637 337.18H482.892L484.093 336.58L489.2 336.179L490.852 336.78L493.355 335.379L494.857 336.179L495.859 335.379L499.363 335.778L502.367 334.778L503.368 334.978L504.37 339.433L505.872 340.234V341.685L504.37 343.888L502.868 344.939L503.368 345.94L506.372 348.193H506.873L509.376 349.394L511.88 348.993L516.886 350.846L517.888 353.699L518.889 354.1L522.894 354.9L524.897 355.902L526.899 357.353L528.401 356.952L529.903 354.499V352.247L531.405 349.995L533.908 348.993L535.911 349.394L538.414 349.995V351.246L540.417 351.846L542.92 352.247L543.922 353.048L549.429 354.1L550.931 354.9H552.433L553.935 355.501L554.936 355.1L557.439 353.699H560.944L561.945 354.9H566.451L567.953 354.1L568.454 353.249L569.956 348.593L572.459 343.487L571.958 339.833V338.031L572.959 337.18L572.459 336.179L570.957 337.18L568.454 336.58L566.952 338.431L563.948 339.032L561.945 337.18L559.943 336.58H557.94V338.031L555.937 338.632L554.435 338.031L553.935 336.78L552.433 336.179L549.929 335.778L549.429 334.778V332.525L546.925 331.724L547.927 328.47V327.019L545.924 327.419V325.817L547.927 323.966L550.43 323.765L552.933 323.966L553.935 323.365L554.435 321.112L559.943 321.563L562.446 319.31L565.45 318.309L568.954 318.509L570.957 319.31H572.459L573.46 321.112L574.962 320.712L576.464 321.963L578.967 322.164L581.971 321.563L583.473 322.164L586.978 320.712L587.479 320.111L587.979 318.509L586.978 315.656L582.973 313.404L580.469 310.55L576.464 308.748L574.461 306.495L576.464 305.695L577.465 303.642V301.79L578.967 300.189L578.467 299.187L576.464 299.588L574.461 300.589L571.958 300.989L570.957 302.04L568.954 302.842V304.243L570.957 306.095L572.959 305.695H573.961L573.46 307.296L570.957 306.896L570.456 307.497L567.953 308.298L566.952 309.749L565.95 309.349V306.896L563.447 305.695L566.451 303.842L565.45 303.242H562.446L561.444 300.989H559.943L558.941 302.04L556.939 303.842L555.437 304.644L555.937 306.495L555.437 307.897L553.434 308.298L552.933 312.002L552.433 313.404H551.431L550.43 316.057V316.657L551.431 318.509V321.963L549.929 322.164L548.928 323.365L547.927 323.765L546.425 325.216L545.924 322.964L543.421 321.963L541.418 322.164L539.916 323.966L538.414 324.817L536.912 323.966V325.216L537.413 326.218L537.914 329.872L540.417 331.324V333.526L539.416 332.525L538.414 332.925V334.377L536.912 333.927L538.414 336.58L535.911 336.78L535.41 335.778L533.908 336.58V334.377L532.907 333.125L533.408 331.724L534.91 331.324L537.413 332.525L536.912 331.324L534.91 331.123H532.907L531.405 329.472V328.871L529.903 326.618L529.403 325.617L528.401 324.817L527.901 323.365L528.401 318.91H527.901L526.899 317.458L525.898 316.657L523.395 315.255V314.805L521.392 313.404L518.889 312.402L516.886 310.55V309.749L516.385 308.748L515.885 306.896L514.884 306.095L513.882 307.296L513.382 307.897L512.38 305.495L512.881 305.044L511.379 304.243L508.876 306.495L509.877 307.497L508.876 308.748L509.376 310.15L511.88 312.402L512.38 312.803L513.382 316.057L515.885 318.309L516.886 318.509H518.889V320.311L521.893 321.963L524.396 323.365L525.898 325.216L525.397 326.218L524.396 324.817L521.893 323.765L521.392 324.366L520.391 326.218L521.893 327.619V329.271L520.391 329.872V331.123L518.889 332.525H517.888L519.389 328.871L517.888 325.617H517.387L516.385 324.366L515.885 322.964L513.882 322.563L512.881 321.112H511.379L507.874 318.309L507.374 317.458L504.37 314.805L503.869 311.551L500.865 309.749L499.864 309.349L497.861 311.551L496.359 312.002L493.856 314.204L492.354 314.605L488.8 313.404L487.348 312.803L484.694 314.204L484.294 315.255L484.694 316.657V318.91L482.491 320.311L481.84 321.112L478.786 321.963L476.383 325.617L475.532 327.419L476.383 329.271L476.983 329.872L474.931 331.324L473.729 333.927H473.129L471.877 334.778L470.475 336.58H464.568L463.966 337.18L462.315 337.631L462.114 338.632L461.313 339.032L460.312 338.431L458.66 335.778L456.657 334.978L455.405 335.778L453.202 335.379L452.952 334.377V331.123L451.15 329.872L451.35 327.619L452.151 327.019L453.202 321.963L452.552 318.91L452.952 318.509L452.552 317.858L451.751 314.204L454.004 313.404L455.005 312.002L456.857 312.803H461.313L464.968 313.404L466.821 313.003L470.475 313.804L471.476 313.404L472.278 312.402L473.129 308.748L473.329 303.642L473.129 302.441L471.476 301.79L470.876 300.189V299.588L469.474 298.336L469.024 297.335H467.822L466.821 296.534H464.968L464.568 294.682L463.566 294.482L464.167 293.28L467.822 292.23L469.024 293.681L470.075 292.881L471.877 293.28V290.828L471.476 288.976H472.728L473.329 290.027L476.784 290.427V288.976L479.236 287.774L480.438 286.773L480.639 283.72L483.292 283.119L485.545 281.668L487.748 281.868V281.668H486.547L486.947 280.066L488.349 277.212L490.852 278.013L491.853 276.812L490.852 275.36L489.851 276.412L489.35 274.96L491.853 272.708L494.357 272.507L495.859 273.559V271.706L497.861 271.306L498.362 272.107L500.365 269.454V268.052L499.363 265.8V263.598L497.861 262.947L498.362 261.545L497.861 260.344V258.091H498.863L501.366 256.038L502.868 255.638L503.869 256.239V257.891L505.872 258.892L504.87 259.893L503.869 260.744L501.867 263.598L501.366 266.2L502.868 266.65L503.368 268.052L505.371 268.853L506.873 270.705L507.374 269.454L508.876 269.053L509.376 268.052H510.878L512.38 269.454H512.881L513.382 271.306L514.383 271.706V270.705L518.889 269.053L519.389 268.853L520.391 267.652L522.393 267.051L525.397 266.2L525.898 268.052L526.899 268.453L529.403 268.052L529.903 265.8H532.907V264.398V260.344L532.406 259.292L532.907 256.639L533.408 255.638L534.409 252.985L536.412 252.385L538.414 254.237V255.638L539.416 256.038L541.418 254.837V251.584L541.919 249.732L539.416 248.931V247.93L538.915 245.077L540.417 244.276L541.418 243.424L545.924 242.424L548.427 243.424L550.43 243.825L551.431 243.424L554.435 240.571L553.434 237.968L550.43 237.768L545.423 238.769L543.922 239.57L538.414 241.623L536.912 238.769L535.911 238.369L533.408 237.317V235.916L533.908 233.664V230.61L532.907 229.609L533.408 228.608L532.907 226.956V225.154L533.408 224.553L533.908 222.701L535.911 222.301L536.912 219.648L538.414 218.647L540.417 215.393L541.418 214.542L541.919 212.74L544.422 212.139L543.922 210.488V208.685L540.417 206.633H539.416L537.914 207.234L535.911 206.232L534.91 209.086H533.908V211.288L532.907 212.139V213.941L533.908 214.992L532.406 216.794L531.906 218.647L530.404 219.648L528.401 220.449L527.4 221.9L525.397 223.703L524.396 226.356L523.395 226.956L522.393 232.863L521.893 235.515L522.393 236.918L524.396 237.317L525.898 239.77L526.899 241.022V242.023L525.397 243.424L521.893 243.825L525.397 245.276L521.893 247.93L520.891 248.931V253.836L520.391 255.638L518.889 259.893L517.387 260.344L515.384 259.893L514.884 261.144L514.383 263.598H511.379V262.146L509.376 259.292L510.878 258.091L509.376 256.239L508.375 253.836L507.374 252.585L507.874 250.132L506.372 248.931L505.872 246.077H506.873V245.276L503.869 244.676V245.677H502.367L498.362 250.583L496.86 250.782L494.857 250.583L491.353 248.33V245.677L490.351 243.224L490.852 242.023H491.853L491.353 239.77L490.351 238.769V237.768L489.851 233.664L491.353 228.608L492.855 227.356V225.955L494.857 225.554V224.102H497.361L499.363 222.701V221.249L502.367 220.048L503.368 216.794L504.37 215.393L506.873 214.141V212.34L509.376 210.488L509.877 208.485L509.376 207.634L510.878 204.381L512.38 203.579L511.379 200.726L514.383 198.474L515.885 194.019L516.886 192.617L520.391 190.164V186.711L522.393 186.11L523.395 183.457L524.396 183.056L524.897 181.004L526.899 180.203L527.901 178.351L529.903 177.951L530.404 179.152L532.907 178.351V175.098L534.91 173.896L538.414 174.697L540.918 171.443L541.919 169.191L544.422 168.79L545.423 169.591L543.421 172.445L544.422 173.896L547.426 169.191L547.927 169.591L547.426 173.296L548.427 172.845L549.929 168.39L551.431 167.79L553.434 169.591L555.937 170.643L558.941 172.845L559.442 174.296L555.437 176.949L555.937 177.951H558.941L560.944 179.152L561.945 176.949L564.949 179.402L565.45 181.605L570.957 182.005L572.459 182.856L577.465 186.711L581.971 191.166L585.977 193.418L586.477 199.525L584.475 202.579L579.468 204.781L575.463 203.179L570.957 202.579L569.455 201.127L565.45 200.326V201.327L569.956 205.832L568.954 210.287L569.956 212.74L569.455 214.542L571.458 215.393L573.46 217.796L576.464 219.047L577.966 217.596L576.965 215.393H575.463L573.46 212.34L575.463 210.287L577.966 212.34L581.971 214.141L584.475 212.74L582.472 209.086L582.973 207.634L584.975 205.432L586.978 204.781L588.98 201.728L591.984 202.178L593.987 204.781L595.489 200.726V198.924L592.986 196.672L593.987 193.819L594.488 187.511H596.991L598.994 187.912L600.996 190.365V192.617L597.492 193.418L596.49 195.871L597.992 197.472L598.994 199.525H601.997L603.499 198.474L604.501 194.019L607.004 193.418L611.51 189.764L620.021 184.658V186.711L621.022 190.164L624.026 187.912L628.032 186.711L629.534 187.511L631.035 185.259L634.039 184.257L636.042 186.711L639.547 184.858L637.043 179.402L639.547 177.55L646.055 179.152L647.557 180.203L652.063 183.457L655.568 185.259L658.571 188.913H659.573L661.075 185.259L659.573 184.257L658.071 181.205L655.067 178.351L656.569 170.643L654.566 170.242L655.067 166.338L657.57 164.135L659.573 161.482L661.075 153.773L662.577 152.321L667.583 151.922L671.088 153.773V157.428L669.085 163.734L671.088 170.042L670.587 173.296L670.087 174.296L670.587 177.55L670.087 182.856L670.587 185.259L673.091 187.912L672.089 190.164V192.617L670.587 194.42L670.087 196.271L667.583 201.127L665.08 201.728L663.077 199.525L661.075 201.127L664.579 202.979L669.586 203.179V201.728L673.091 199.525L674.092 196.271L676.094 193.819V190.365L675.093 188.913L675.594 186.511L680.1 184.257L683.104 187.912L683.604 190.765L685.106 189.764L683.604 185.259L681.101 183.056L678.097 182.406L676.094 183.457L673.091 182.856L673.591 180.604L673.091 178.751V175.498L675.093 172.445L673.091 166.588L671.589 165.137L673.091 161.883L676.595 159.029L678.097 153.573L678.598 157.828L677.096 161.883L677.596 165.536L680.6 166.988L682.603 165.937L680.1 163.334L679.599 161.082L682.102 159.63L683.604 161.482L684.105 158.228L686.608 156.827H688.611L694.619 162.683L697.623 161.883L698.123 165.137L696.121 166.338V168.39L698.624 169.591L698.123 173.896L700.126 172.845L698.624 166.588L700.126 163.334L697.623 161.082L696.121 157.828L693.617 157.228L692.115 155.375L692.616 151.721L691.615 145.815L694.118 145.414L699.125 145.013L708.136 142.761L707.135 137.255L707.636 134.852L710.64 132.199L714.144 127.093L726.661 122.438L726.16 120.786L731.167 119.385L735.172 122.038L741.18 117.132L742.181 115.73H744.684L746.687 114.279L745.685 111.025L746.687 108.422L752.194 101.915L755.198 101.465L759.705 104.718L758.703 108.422L763.207 109.624L763.706 110.625ZM613.513 299.187L608.005 302.04L605.001 304.644H603.499L602.999 306.495L601.497 308.748L603.499 312.402V314.805L606.503 318.91L609.507 324.366L609.007 324.817L607.004 329.872V331.123V332.925L608.506 333.927L610.008 334.377L611.51 335.778L613.012 336.58L615.015 337.18L619.52 336.179L620.522 336.58V334.778L620.021 330.673L620.522 329.271L620.021 328.47L618.519 325.617L617.518 324.366L618.519 322.964L620.021 323.365L622.524 322.563L623.025 321.563L621.022 320.311L620.522 318.309H618.519L617.518 319.71L616.516 319.31V318.309L617.518 316.057L614.514 315.255L613.513 313.003L612.011 310.55L610.509 309.749V308.748H612.011L612.511 307.497L613.513 306.095L616.516 305.695L618.519 303.642L618.018 300.189L616.516 299.588L615.515 300.189L613.513 299.187ZM533.908 317.458L531.906 318.309L534.91 317.057L533.908 317.458ZM227.408 101.064L226.156 104.317L220.048 104.118L220.649 100.463L227.408 101.064ZM181.948 102.916L176.842 105.97L173.537 103.317V98.6614L178.644 96.4091H183.049L181.948 102.916ZM540.918 101.465L540.417 103.717L536.912 106.57L535.41 103.717L532.406 104.317L533.908 98.6614L532.406 95.6079L537.413 94.1559L538.414 97.4098L540.918 101.465ZM535.41 93.7561L532.907 94.9571L529.903 91.3027L534.91 89.7011L535.41 93.7561ZM178.293 93.7561L174.288 94.1559L173.888 92.7546L181.247 87.2484L184.151 90.9029L183.8 93.3555L178.293 93.7561ZM221.5 97.8104L216.994 100.063L214.991 97.0092L213.339 91.503V87.2484L215.192 86.4473L222.501 91.9036L221.5 97.8104ZM751.693 79.1391L751.193 83.1942L754.197 82.1428L757.701 86.4473V90.9029L753.696 93.7561L746.687 95.1574L743.683 97.8104L742.682 95.1574L747.688 79.1391H751.693ZM210.085 89.7011L209.484 93.3555L211.937 96.8089L209.083 100.063L207.231 98.8617L206.029 94.9571L200.522 92.354L196.868 93.7561L196.267 89.7011L198.72 87.649L198.12 84.1949L194.014 83.1942L194.415 79.5397L198.52 78.6887L207.882 86.4473L210.085 89.7011ZM523.395 70.7797L526.899 77.2874V81.7422L533.908 86.0474L533.408 88.2499L528.902 89.1002L527.4 91.3027V96.0085L525.397 97.0092V103.317L523.895 103.717L522.393 113.278L520.391 114.73L514.884 107.771L513.382 103.317L514.884 100.463V97.8104L518.388 93.1552L516.886 89.5008L514.884 93.3555L510.878 94.1559L507.874 89.1002L506.873 84.1949L504.87 76.6865L506.372 72.5816L511.379 74.0335L512.38 76.8868L514.884 72.1818L517.888 71.7812L520.391 68.5273L523.395 70.7797ZM726.661 71.3806L723.657 74.4341L719.651 71.7812V68.5273L724.658 68.9279L726.661 71.3806ZM737.174 66.7254L738.176 70.7797L741.68 68.5273L743.683 72.5816L742.682 79.9403L743.683 84.1949L740.178 86.8478L736.173 86.0474L734.671 83.9946L730.666 83.1942L728.663 80.3409V77.2874L726.661 75.035L730.666 67.7261L737.174 66.7254ZM629.033 63.872V67.7261L625.028 67.5258L626.029 64.0722L629.033 63.872ZM549.429 67.7261L548.928 71.7812L544.923 75.035L545.924 76.6865L539.416 81.3416L536.912 78.0878L531.906 78.4884L526.399 73.6329L524.897 70.7797L525.397 66.7254L534.409 66.3248L535.911 69.3285V63.872L541.919 64.0722L544.923 66.3248L549.429 67.7261ZM606.003 56.5638L598.994 62.2202L596.991 58.9665L606.003 56.5638ZM643.051 56.7641L639.547 63.0711L635.041 60.4182L636.042 56.1133L641.549 54.912L643.051 56.7641ZM608.005 66.3248L605.001 67.126V64.0722L609.007 58.9665L608.005 56.5638L612.511 54.7117L614.514 57.5649L612.511 60.8186L609.007 61.6195L608.005 66.3248ZM648.558 57.5649L645.555 58.3658L643.552 55.7129L650.561 50.6571L651.062 54.3112L648.558 57.5649ZM247.534 75.035L249.336 80.3409L245.682 82.7936L241.226 90.9029L234.717 95.1574L229.811 94.5565L227.808 91.503L224.353 83.9946L226.556 81.7422L229.811 80.941L227.808 78.4884L225.555 79.9403H221.901L217.395 67.7261L220.649 63.0711L219.648 60.2179L221.901 52.8596L226.957 51.6583L229.811 49.2055L233.466 60.4182L242.027 62.6207L242.427 66.3248L244.88 74.4341L247.534 75.035ZM732.668 65.8744L726.661 69.3285L725.659 65.2736L720.653 64.8732L724.157 61.2191L723.657 56.7641L725.159 53.0598L729.664 51.0576L732.168 48.0042L734.671 53.9108L736.173 58.566V65.6741L732.668 65.8744ZM355.926 30.9349V33.7381L350.669 27.2308L348.616 22.3752L352.471 21.7746L357.778 27.2308L355.926 30.9349ZM293.894 15.4675L306.11 18.1205L307.963 23.5766L312.018 25.6289L313.019 29.6835L309.765 34.589L303.858 40.2454L303.457 45.7516L295.746 54.3112L291.041 62.6207L286.985 67.126L286.385 72.5816L280.877 76.2859L277.222 80.5412L276.421 89.5008L274.168 95.6079L268.061 100.063L267.26 105.168L264.406 106.971L265.407 110.625L268.061 110.224L268.261 113.478L260.751 119.385L259.099 115.13L255.244 116.932L251.189 116.131L248.535 117.983L242.627 116.531L237.971 116.131L236.97 111.476L242.027 105.569L240.825 99.6622L243.028 98.6614L245.682 100.063L247.133 104.118L250.387 106.17L248.535 100.063L246.082 96.8089L242.427 95.6079V91.9036L244.88 86.4473L249.787 85.8471L250.788 84.1949L250.387 78.0878L247.935 73.6329L244.88 72.5816V64.4728L252.19 65.2736L260.751 62.0199L259.95 58.9665L256.295 60.4182L252.59 57.1645L250.788 61.2191L246.082 60.8186L240.625 58.3658L237.571 55.7129L234.717 50.2567L236.119 47.6037L230.662 41.8973L234.717 36.9917L239.373 33.7381H244.28L249.987 26.0294L254.443 30.4844L256.695 21.7746L264.006 15.067L267.26 17.67L273.167 13.2149L279.276 15.8679L283.331 12.2138L293.894 15.4675ZM406.391 5.90672L410.447 16.4686L419.209 22.3752L416.354 28.2819L409.245 31.936L402.336 31.1351L398.682 34.7893L409.045 35.1897L408.244 39.6447L411.498 40.2454L411.898 34.7893L416.555 33.3376L417.806 39.2443L420.61 42.8984L426.117 43.6993L431.624 36.3911H436.681L444.041 42.8984L437.132 53.9108L431.624 57.9654L433.026 60.8186L427.97 72.1818L425.116 72.5816L423.264 77.2874L423.864 82.1428L420.21 89.1002L417.356 101.064L420.009 97.8104L422.863 101.064L421.862 103.717L423.864 105.569H427.369L427.97 110.224L427.369 112.077L423.264 110.224L420.009 111.476L418.407 113.879V116.131L423.664 119.785L424.315 128.945L421.461 129.746L420.61 133.401L422.463 135.253L425.116 137.055L423.864 139.107H422.463L421.862 137.305H418.407L416.956 140.759L420.61 142.761L421.061 146.815H418.407L416.956 149.068L413.701 147.666L412.299 145.815L408.644 146.815L406.792 149.468L409.645 150.92L411.048 156.827L416.354 161.082L416.555 164.736L418.207 166.338L418.808 171.043L416.555 173.296H414.101L411.498 170.242V167.79L410.046 165.937L408.244 165.536L407.793 166.988L405.59 168.79L401.936 169.191L400.884 173.696L404.539 172.845L405.991 175.098L407.793 173.696H409.645L413.301 175.698L414.552 177.55L412.7 180.203L405.59 186.711L398.231 188.913L397.63 190.164L393.174 191.166L390.721 190.765L387.266 194.819L387.066 196.672L385.464 198.474L385.214 200.326L383.412 203.179L381.159 203.579L376.703 206.633L374.249 205.432V207.634L369.793 208.034L370.194 210.287L367.941 213.941L367.14 220.048L364.687 224.954H362.885L363.485 229.609L361.633 234.064V237.768L361.032 240.171L358.379 239.57L356.977 240.571L355.525 239.57L353.322 235.916L349.618 235.515L346.363 234.064L343.309 229.609L341.907 225.554L339.654 222.701L338.653 219.648L339.053 216.794L337.251 215.393V210.287L334.197 206.633L333.546 203.179L334.197 200.726L332.745 196.672L333.997 193.819L334.197 190.164H335.999L336.8 187.511L339.654 187.111V183.056L340.505 178.751L339.454 176.149L337.652 176.549L334.197 173.896L332.145 173.696L330.542 171.443L332.145 170.042L335.999 171.043L337.852 172.845L341.306 173.896L339.454 170.042L337.652 168.39L335.399 164.135L332.345 162.683L332.145 164.736L329.892 165.536L326.838 163.334L327.689 159.63L329.491 158.228L329.091 155.976L330.292 152.722L328.089 150.52L328.489 147.666L326.637 145.013L325.836 141.36V137.055L323.984 134.451V132.6L321.781 133L321.38 130.347L320.329 129.746L320.729 126.292L318.526 123.84L316.674 121.637L313.821 119.385H305.71L303.858 118.784L302.856 120.586L301.003 120.786L300.603 118.984L299.402 117.983L297.949 121.637L293.694 120.186L290.239 117.132L292.092 114.73L287.386 112.077L285.584 109.624L286.585 107.371L291.041 106.971L293.294 105.569H297.549L296.948 101.465L295.746 103.317L291.441 104.317L288.387 102.916L287.386 100.063L284.132 98.8617L281.478 95.1574L282.329 90.5023L290.64 86.4473L291.892 84.1949L295.746 82.1428H298.801L302.856 76.6865V68.1267H297.349L295.746 64.0722L297.949 60.4182L302.055 56.7641L303.057 53.0598L307.963 49.2055L311.618 51.6583L313.42 50.2567L313.821 44.7505L312.619 38.4434L319.528 32.9372L330.542 27.8815L334.998 37.4422L344.16 36.3911L340.906 31.5356L339.654 25.0283H343.759L349.217 31.5356L356.126 35.1897L356.977 30.0839L359.18 28.2819L352.271 13.2149L360.632 8.55968L363.886 9.56077L367.541 14.6165L371.596 15.067L372.648 4.45508L389.119 0L396.429 1.20139L406.391 5.90672Z" fill="#00C8FF"/>
</svg>
