<svg width="30" height="30" viewBox="0 0 30 30" fill="none" xmlns="http://www.w3.org/2000/svg">
<g clip-path="url(#clip0_185_49)">
<path d="M15 30C23.2843 30 30 23.2843 30 15C30 6.71573 23.2843 0 15 0C6.71573 0 0 6.71573 0 15C0 23.2843 6.71573 30 15 30Z" fill="#444DFF"/>
<path d="M17.163 7.9541H12.837C8.88897 7.9541 7.9541 8.88897 7.9541 12.837V17.163C7.9541 21.111 8.88897 22.0459 12.837 22.0459H17.163C21.111 22.0459 22.0459 21.111 22.0459 17.163V12.837C22.0459 8.88897 21.1011 7.9541 17.163 7.9541ZM19.331 18.0082H18.3056C17.9177 18.0082 17.7984 17.7 17.1023 16.9939C16.4956 16.408 16.2272 16.3277 16.077 16.3277C15.8681 16.3277 15.8083 16.3863 15.8083 16.6758V17.6007C15.8083 17.8494 15.7286 17.9985 15.0724 17.9985C13.9884 17.9985 12.7852 17.3423 11.9396 16.1188C10.6667 14.3288 10.3187 12.9861 10.3187 12.7078C10.3187 12.5587 10.3772 12.4195 10.6667 12.4195H11.6921C11.9508 12.4195 12.0501 12.5388 12.1494 12.8174C12.6565 14.2793 13.5021 15.5622 13.8486 15.5622C13.9778 15.5622 14.0376 15.5036 14.0376 15.1743V13.6626C13.9978 12.9665 13.6298 12.9067 13.6298 12.6583C13.6298 12.5391 13.7291 12.4195 13.8885 12.4195H15.4998C15.7187 12.4195 15.798 12.5388 15.798 12.7975V14.8359C15.798 15.0548 15.8974 15.1342 15.9571 15.1342C16.0863 15.1342 16.1959 15.0545 16.4344 14.816C17.1703 13.9907 17.6974 12.7178 17.6974 12.7178C17.7671 12.5687 17.8863 12.4295 18.145 12.4295H19.1704C19.4786 12.4295 19.5483 12.5886 19.4786 12.8074C19.3494 13.4042 18.0964 15.1743 18.0964 15.1743C17.9871 15.3533 17.9473 15.433 18.0964 15.6316C18.2057 15.7808 18.5651 16.089 18.8024 16.3676C19.2401 16.8656 19.5782 17.2825 19.6676 17.5708C19.7687 17.8591 19.6192 18.0082 19.331 18.0082Z" fill="white"/>
</g>
<defs>
<clipPath id="clip0_185_49">
<rect width="30" height="30" fill="white"/>
</clipPath>
</defs>
</svg>
